<?xml version="1.0" encoding="utf-8"?>
<!-- Generator: Adobe Illustrator 28.1.0, SVG Export Plug-In . SVG Version: 6.00 Build 0)  -->
<svg version="1.1" id="Layer_1" xmlns="http://www.w3.org/2000/svg" xmlns:xlink="http://www.w3.org/1999/xlink" x="0px" y="0px"
	 viewBox="0 0 750 500" style="enable-background:new 0 0 750 500;" xml:space="preserve">
<style type="text/css">
	.st0{fill:#E0E0E0;}
	.st1{fill:#EBEBEB;}
	.st2{fill:#F5F5F5;}
	.st3{fill:#FFFFFF;}
	.st4{fill:#263238;}
	.st5{fill:#FAFAFA;}
	.st6{fill:#F25E6B;}
	.st7{opacity:0.3;}
	.st8{fill:#455A64;}
	.st9{fill-rule:evenodd;clip-rule:evenodd;fill:#FFFFFF;}
	.st10{fill:#FFBF9D;}
	.st11{fill:#FF9A6C;}
	.st12{opacity:0.6;}
	.st13{fill:#AE7461;}
	.st14{fill:#6F4439;}
</style>
<g>
	<g id="freepik--background-complete--inject-283">
		<path class="st0" d="M441.9,405.3h37.8c2.6,0,4.7,2.1,4.7,4.7l0,0v45.8c0,2.6-2.1,4.7-4.7,4.7l0,0h-37.8c-7,0-12.6-5.7-12.6-12.6
			V418C429.3,411,435,405.3,441.9,405.3z"/>
		<path class="st1" d="M423.3,405.3h47.4c2.1,0,3.8,1.7,3.8,3.8v47.4c0,2.1-1.7,3.8-3.8,3.8h-47.4c-2.1,0-3.8-1.7-3.8-3.8v-47.4
			C419.4,407.1,421.1,405.3,423.3,405.3z"/>
		<polygon class="st0" points="449.3,446.9 432.7,435.7 436.6,429.9 447.7,437.4 461.7,418.9 467.3,423.1 		"/>
		<path class="st1" d="M276.1,418.2c0.3,21.3-16.7,38.7-38,39s-38.7-16.7-39-38c-0.3-21.2,16.6-38.6,37.8-39
			C258.3,380,275.8,396.9,276.1,418.2z M219.2,419.1c0.2,10.2,8.7,18.3,18.8,18.1c10.2-0.2,18.3-8.7,18.1-18.8
			c-0.2-10.2-8.6-18.2-18.7-18.1C227.1,400.6,219.1,409,219.2,419.1L219.2,419.1z"/>
		<path class="st0" d="M276.1,418.2c0.4,21.3-16.5,38.9-37.8,39.3l-0.3-20.2c10.2-0.3,18.3-8.8,17.9-19.1
			c-0.3-10-8.5-17.9-18.4-17.9l-0.3-20.2C258.3,379.9,275.8,396.9,276.1,418.2z"/>
		<path class="st2" d="M241.7,460.6c-24.8,0.4-44.7-18.9-45.1-43.8l23.5-0.4c0.2,11.9,9.2,19.4,21.1,19.2L241.7,460.6z"/>
		<path class="st1" d="M687.3,83.8c0.2,16.6-13.1,30.2-29.7,30.4c-16.6,0.2-30.2-13.1-30.4-29.7s13-30.1,29.6-30.4
			C673.3,53.9,687,67.2,687.3,83.8z M642.8,84.5c0.2,7.9,6.7,14.3,14.6,14.1s14.3-6.7,14.1-14.6c-0.2-7.9-6.7-14.2-14.5-14.1
			C649,70.1,642.7,76.6,642.8,84.5L642.8,84.5z"/>
		<path class="st0" d="M687.3,83.8c0.3,16.6-12.9,30.3-29.6,30.7l-0.3-15.8c8-0.1,14.4-6.7,14.2-14.6c-0.1-8-6.7-14.4-14.6-14.2
			l-0.3-15.8C673.3,53.9,687,67.2,687.3,83.8z"/>
		<path class="st2" d="M660.4,116.9c-18.9,0.5-34.7-14.5-35.2-33.5c0-0.3,0-0.5,0-0.8l18.3-0.3c0.2,9.3,7.2,15.2,16.5,15
			L660.4,116.9z"/>
		<path class="st1" d="M76.2,227.7h7v-17.6h4.9l0.6-5.9h-5.4v-3.3c0-1.4,0.3-1.9,1.6-1.9h3.8v-6.1h-4.8c-5.2,0-7.6,2.3-7.6,6.7v4.7
			h-3.6v6h3.6L76.2,227.7L76.2,227.7z"/>
		<path class="st2" d="M220.4,74.1l28.3-4.4c2.4,15.7-8.4,30.2-24,32.7c-15.6,2.5-30.2-8.4-32.7-24c-2.4-15.7,8.4-30.2,24-32.7
			c2.5-0.4,5-0.5,7.5-0.2L220.4,74.1z"/>
		<path class="st0" d="M229.7,45.7l-3.4,22l21.6-4.1C247.8,63.6,244.6,51.3,229.7,45.7z"/>
		<path class="st3" d="M130.1,281.5H67.6c-9.2,0-16.6,7.4-16.6,16.6v37.8c0,9.2,7.4,16.6,16.6,16.6h22.9l8.4,12l8.4-12h22.9
			c9.2,0,16.6-7.4,16.6-16.6v-37.7C146.8,288.9,139.3,281.5,130.1,281.5L130.1,281.5z"/>
		<path class="st0" d="M130.1,281.5c0.8,0,1.4,0,2.2,0.1c2.1,0.3,4.1,0.9,6,1.9c1.3,0.8,2.6,1.7,3.7,2.8c1.3,1.3,2.4,2.8,3.2,4.5
			c1,1.9,1.5,4,1.7,6.1c0.1,2.3,0.1,4.7,0.1,7.1c0,5,0,10.6,0,16.5c0,2.9,0,6.1,0,9.3c0,1.6,0,3.2,0,4.8c0.1,1.7-0.1,3.4-0.4,5
			c-1.7,7.4-8.1,12.8-15.7,13.1c-7.6,0.1-15.5,0-23.7,0.1l0.3-0.1l-8.4,12l-0.3,0.4l-0.3-0.4l-8.3-12l0.3,0.1H69.8
			c-1.3,0-2.8,0-4.1-0.1c-2.8-0.3-5.3-1.3-7.6-2.9c-2.2-1.5-4.1-3.6-5.4-6c-1.2-2.4-1.9-4.9-2-7.6v-29.8c0-2.4,0-4.8,0-7
			c-0.1-2.3,0.2-4.7,1-6.8c2.2-6.4,8-10.8,14.7-11.3c2.1-0.1,4.1,0,6,0h11.3l34,0.1l9.2,0.1h2.4
			C129.8,281.4,130.1,281.4,130.1,281.5l-0.8-0.1h-2.5l-9.2,0.1h-34H72.3c-1.9,0-4-0.1-6,0.1c-6.5,0.5-12.1,4.8-14.2,10.9
			c-0.7,2.2-1,4.4-1,6.7c0,2.3,0,4.7,0,7c0,9.5,0,19.5,0,29.8c0.1,2.7,0.8,5.1,2,7.5c1.2,2.3,3,4.2,5.1,5.7c2.2,1.5,4.8,2.4,7.3,2.8
			c1.3,0.1,2.7,0.2,4,0.1h20.9l0.1,0.1l8.4,12h-0.6l8.4-12l0.1-0.1h0.2c8.2,0,16.2,0,23.7,0c7.3-0.3,13.6-5.5,15.2-12.6
			c0.4-1.6,0.5-3.3,0.4-4.9c0-1.7,0-3.3,0-4.8c0-3.2,0-6.3,0-9.3c0-6,0-11.5,0-16.5c0-2.5,0.1-4.8-0.1-7.1c-0.2-2.1-0.8-4.1-1.6-6
			c-0.8-1.6-1.9-3.1-3.1-4.4c-1-1-2.3-2-3.6-2.8c-1.8-1-3.8-1.7-5.9-2c-0.6-0.1-1-0.1-1.6-0.2L130.1,281.5z"/>
		<path class="st0" d="M85.9,317.9c0,2.9-2.4,5.4-5.4,5.4c-2.9,0-5.4-2.4-5.4-5.4c0-2.9,2.4-5.4,5.4-5.4l0,0
			C83.5,312.6,85.9,314.9,85.9,317.9z"/>
		<path class="st0" d="M103.7,317.9c0,2.9-2.4,5.4-5.4,5.4c-3,0-5.4-2.4-5.4-5.4c0-2.9,2.4-5.4,5.4-5.4
			C101.2,312.6,103.7,314.9,103.7,317.9z"/>
		<path class="st0" d="M121.4,317.9c0,2.9-2.4,5.4-5.4,5.4c-2.9,0-5.4-2.4-5.4-5.4c0-2.9,2.4-5.4,5.4-5.4l0,0
			C119,312.6,121.4,314.9,121.4,317.9z"/>
		<path class="st3" d="M617.7,132.6h-49.5c-7.3,0-13.2,5.9-13.2,13.2l0,0v29.9c0,7.3,5.9,13.2,13.2,13.2h18.2l6.7,9.5l6.7-9.5h18.2
			c7.2,0,13.2-5.9,13.2-13.1l0,0v-29.9c0-7.2-5.9-13.2-13.1-13.2C617.8,132.6,617.7,132.6,617.7,132.6z"/>
		<path class="st0" d="M617.7,132.6c0.6,0,1.1,0,1.7,0.1c1.7,0.2,3.3,0.7,4.8,1.5c1,0.6,2,1.3,2.9,2.2c1,1,1.9,2.2,2.6,3.5
			c0.8,1.5,1.2,3.1,1.3,4.8c0.1,1.8,0,3.7,0.1,5.6c0,4,0,8.4,0,13.1c0,2.4,0,4.8,0,7.4v3.9c0.1,1.3-0.1,2.7-0.3,4
			c-1.3,5.9-6.4,10.2-12.5,10.5c-6,0.1-12.3,0-18.8,0l0.2-0.1l-6.6,9.5L593,199l-0.2-0.3l-6.7-9.5l0.2,0.1h-16.4c-1,0-2.2,0-3.2-0.1
			c-2.2-0.3-4.3-1-6.1-2.3c-1.8-1.2-3.2-2.9-4.3-4.8c-1-1.9-1.5-4-1.6-6.1v-29.2c-0.1-1.8,0.2-3.7,0.8-5.4c1.7-5,6.4-8.6,11.7-8.9
			c1.6-0.1,3.2,0,4.8,0h8.9l27,0.1h7.3h1.9L617.7,132.6l-0.7-0.1h-1.9h-7.3l-27,0.1h-8.9c-1.5,0-3.1,0-4.8,0.1
			c-5.1,0.4-9.6,3.8-11.2,8.7c-0.6,1.7-0.8,3.5-0.8,5.3s0,3.7,0,5.6c0,7.5,0,15.4,0,23.7c0.1,2,0.6,4,1.5,5.8c1,1.8,2.4,3.3,4.1,4.6
			c1.7,1.1,3.7,1.9,5.8,2.2c1,0.1,2.1,0.1,3.2,0.1h16.5l0.1,0.1l6.7,9.5h-0.5l6.7-9.5l0.1-0.1h0.1c6.5,0,12.8,0,18.7,0
			c2.9-0.1,5.7-1.2,7.9-3.1c2.1-1.8,3.5-4.2,4.2-6.9c0.3-1.3,0.4-2.6,0.3-3.9c0-1.3,0-2.7,0-3.9c0-2.6,0-5,0-7.4c0-4.8,0-9.1,0-13.1
			c0-2,0.1-3.9,0-5.6c-0.1-1.6-0.6-3.2-1.3-4.8c-0.7-1.2-1.4-2.5-2.5-3.5c-0.9-0.9-1.8-1.5-2.9-2.2c-1.4-0.9-3-1.3-4.7-1.6
			c-0.4-0.1-0.9-0.1-1.2-0.1L617.7,132.6z"/>
		<path class="st0" d="M582.7,161.5c0,2.4-1.9,4.3-4.3,4.3s-4.3-1.9-4.3-4.3s1.9-4.3,4.3-4.3l0,0
			C580.8,157.2,582.7,159.1,582.7,161.5z"/>
		<path class="st0" d="M596.8,161.5c0,2.4-1.9,4.3-4.3,4.3s-4.3-1.9-4.3-4.3s1.9-4.3,4.3-4.3l0,0
			C594.8,157.2,596.8,159.1,596.8,161.5z"/>
		<path class="st0" d="M610.8,161.5c0,2.4-2,4.3-4.3,4.2c-2.4,0-4.3-2-4.2-4.3c0-2.4,2-4.3,4.3-4.2
			C608.9,157.2,610.8,159.1,610.8,161.5L610.8,161.5z"/>
		<path class="st1" d="M665.9,179.4c2.9,1.8,6.2,2.9,9.6,2.8c11.6,0,18.2-9.8,17.8-18.6c1.2-0.9,2.3-2,3.1-3.2
			c-1.1,0.5-2.4,0.9-3.6,1c1.3-0.8,2.3-2,2.8-3.4c-1.2,0.8-2.6,1.2-4,1.5c-2.4-2.6-6.3-2.7-8.8-0.3c-1.6,1.5-2.4,3.8-1.8,6
			c-5-0.3-9.7-2.7-12.8-6.6c-1.6,2.9-0.9,6.5,1.9,8.4c-1,0-2-0.3-2.9-0.8c-0.1,3,2.1,5.7,5.1,6.3c-1,0.3-1.9,0.3-2.9,0.1
			c0.9,2.6,3.1,4.3,5.8,4.4C672.5,178.9,669.1,179.9,665.9,179.4z"/>
	</g>
	<g id="freepik--Floor--inject-283">
		<path class="st4" d="M699.4,461.1h-1.6H693l-18.1-0.2l-66.5-0.5c-28.1-0.2-61.6-0.3-98.8-0.4l-120.9,0.1l-219.6,0.8l-66.5,0.2
			H84.5h-4.8c-1,0-1.6,0-1.6,0h1.6h4.8l18.1-0.1l66.5-0.4c56.2-0.3,133.8-0.8,219.6-1c42.8-0.1,83.7-0.1,120.8-0.1
			s70.6,0.2,98.8,0.5l37.9,0.4l28.6,0.4l18.1,0.3l4.8,0.1L699.4,461.1z"/>
	</g>
	<g id="freepik--speech-bubble--inject-283">
		<path class="st5" d="M129.8,140.5l-2.3-7.6c7.7-12.5,3.8-28.9-8.7-36.6s-28.9-3.8-36.6,8.7s-3.8,28.9,8.7,36.6
			c9.4,5.8,21.5,5.2,30.2-1.6l0,0L129.8,140.5z"/>
		<path class="st4" d="M129.8,140.5c0,0-0.2,0-0.6,0l-1.6-0.1l-6.5-0.3c-0.1,0-0.1-0.1-0.1-0.1l0,0c0,0,0,0,0-0.1l0,0l0.2,0.2
			c-8.6,6.7-20.2,7.5-29.6,2.1c-12.8-7.3-17.3-23.6-10-36.4c0.9-1.5,1.9-3,3.1-4.4c2.9-3.3,6.5-5.8,10.6-7.4c3.9-1.5,8.1-2,12.2-1.6
			c14.3,1.4,24.8,13.9,24,28.1c-0.3,4.4-1.6,8.7-4,12.4v-0.1l1.6,5.7c0.2,0.7,0.3,1.1,0.4,1.4C129.7,140.2,129.7,140.5,129.8,140.5
			c-0.1-0.1-0.1-0.2-0.2-0.6l-0.5-1.5c-0.4-1.3-1-3.1-1.7-5.6v-0.1c7.6-12.4,3.7-28.6-8.7-36.2c-7-4.1-15.6-4.9-23.2-2
			c-4,1.5-7.6,4-10.4,7.2c-9.6,10.9-8.5,27.5,2.5,37.1c3.7,3.2,8.3,5.4,13.2,6.2c2.8,0.5,5.6,0.5,8.4,0c4.3-0.7,8.4-2.5,11.9-5.1
			c0,0,0.1,0,0.2,0l0,0c0,0,0,0.1,0,0.2l0,0l-0.1-0.2l6.4,0.5l1.7,0.1L129.8,140.5z"/>
		<path class="st4" d="M97.4,119c0,1.5-1.1,2.7-2.7,2.8c-1.5,0-2.7-1.1-2.8-2.7c0-1.5,1.1-2.7,2.7-2.8l0,0
			C96.2,116.4,97.4,117.5,97.4,119z"/>
		<path class="st4" d="M108.3,119c0,1.5-1.1,2.7-2.7,2.8c-1.5,0-2.7-1.1-2.8-2.7c0-1.5,1.1-2.7,2.7-2.8c0,0,0,0,0.1,0
			C107,116.4,108.3,117.5,108.3,119z"/>
		<path class="st4" d="M119,117.7c0.8,1.2,0.4,2.9-1,3.7c-1.2,0.8-2.9,0.4-3.7-1c-0.8-1.2-0.4-2.9,1-3.7l0,0
			C116.6,116,118.2,116.4,119,117.7z"/>
	</g>
	<g id="freepik--Like--inject-283">
		<path class="st6" d="M372.1,392L372.1,392c0,0,0,1.4-0.1,3.9c-1.7-1.5-3.7-2.8-5.9-3.5l0,0c0,0-11.9-7.3-17.3-16.7
			c-2.6-4.8-4.3-9.8-5.2-15.1c0-0.4,0-4-0.1-6.9c0-2.4-2-4.4-4.4-4.5c-5.1-0.2-18.6,0.3-19.6,9.7c-1.4,14.1,9,26.4,9.9,30.5
			c0.2,0.8,0.3,1.4,0.4,1.9c-4,0-7.1,0-7.1,0.1l0,0h-26.3c0,0-8.8-0.6-9.7,8.6c-0.9,9.1,9.4,9.7,9.4,9.7s-4.6,0.9-4,8.8
			c0.6,8,9.4,8.6,9.4,8.6s-5.1,0.9-4.8,8c0.3,6.9,9.5,9,10,9.1c-0.7,0-1.4,0-2.1,0.1c0.6,0.1,1,0.1,1.6,0.1
			c-3.7,1.4-3.2,6.1-3.2,6.1c-0.3,10,7.4,10.3,7.4,10.3l48.1,0.1c4.8,0,9.5-1.2,13.7-3.7c0,2,0,3.2,0,3.2l0,0l33.7,0.1
			c0.1,0,0.2-15.3,0.2-34.1s0-34.1-0.1-34.1L372.1,392z"/>
		<g class="st7">
			<path d="M372.1,392L372.1,392c0,0,0,1.4-0.1,3.9c-1.7-1.5-3.7-2.8-5.9-3.5l0,0c0,0-11.9-7.3-17.3-16.7c-2.6-4.8-4.3-9.8-5.2-15.1
				c0-0.4,0-4-0.1-6.9c0-2.4-2-4.4-4.4-4.5c-5.1-0.2-18.6,0.3-19.6,9.7c-1.4,14.1,9,26.4,9.9,30.5c0.2,0.8,0.3,1.4,0.4,1.9
				c-4,0-7.1,0-7.1,0.1l0,0h-26.3c0,0-8.8-0.6-9.7,8.6c-0.9,9.1,9.4,9.7,9.4,9.7s-4.6,0.9-4,8.8c0.6,8,9.4,8.6,9.4,8.6
				s-5.1,0.9-4.8,8c0.3,6.9,9.5,9,10,9.1c-0.7,0-1.4,0-2.1,0.1c0.6,0.1,1,0.1,1.6,0.1c-3.7,1.4-3.2,6.1-3.2,6.1
				c-0.3,10,7.4,10.3,7.4,10.3l48.1,0.1c4.8,0,9.5-1.2,13.7-3.7c0,2,0,3.2,0,3.2l0,0l33.7,0.1c0.1,0,0.2-15.3,0.2-34.1
				s0-34.1-0.1-34.1L372.1,392z"/>
		</g>
		<path class="st6" d="M368,402.5l1.6,4l-0.1,46l0,0c-5.1,5.4-12.2,8.5-19.6,8.5l-48.1-0.1c0,0-7.7-0.3-7.4-10.3
			c0,0-0.6-5.1,3.7-6.3c0,0-9.7-2-10-9.1c-0.3-7.1,4.8-8,4.8-8s-8.8-0.6-9.4-8.6c-0.6-8,4-8.8,4-8.8s-10.3-0.6-9.4-9.7
			s9.7-8.6,9.7-8.6l34.2,0.1H352C359.1,391.7,365.4,396,368,402.5z"/>
		<path class="st6" d="M357.7,392.6c0,0-11.9-7.3-17.3-16.7c-2.6-4.7-4.3-9.8-5.2-15c0-0.4,0-4-0.1-6.9c0-2.4-2-4.4-4.4-4.5
			c-5.1-0.2-13.2,4.2-14.2,13.6c-1.4,14.1,3.5,22.5,4.4,26.6l0.9,4L357.7,392.6z"/>
		
			<rect x="346.3" y="409.5" transform="matrix(1.919865e-03 -1 1 1.919865e-03 -46.6667 805.9532)" class="st6" width="68.3" height="33.7"/>
		<path class="st4" d="M363.5,460.5c-0.1,0-0.1-15.3-0.1-34.1s0.1-34.1,0.2-34.1c0.1,0,0.1,15.3,0.1,34.1S363.6,460.5,363.5,460.5z"
			/>
		<path class="st4" d="M397.2,460.6c-0.1,0-0.1-15.3-0.1-34.1s0.1-34.1,0.2-34.1c0.1,0,0.1,15.3,0.1,34.1S397.2,460.6,397.2,460.6z"
			/>
		<path class="st3" d="M375.5,407.9c0,3.5,2.8,6.3,6.3,6.3c3.5,0,6.3-2.8,6.3-6.3s-2.8-6.3-6.3-6.3l0,0
			C378.3,401.6,375.5,404.4,375.5,407.9z"/>
		<path class="st4" d="M314.2,391.7c0-0.1,3.7-0.1,8.2-0.1s8.2,0.1,8.2,0.1s-3.7,0.1-8.2,0.1S314.2,391.7,314.2,391.7z"/>
		<path class="st4" d="M292.2,427.6c1.7-0.1,3.5-0.2,5.2-0.1c1.7,0,3.5,0,5.2,0.1c0,0.1-2.4,0.1-5.2,0.1S292.2,427.6,292.2,427.6z"
			/>
		<path class="st4" d="M286.9,409.6c0-0.1,3.3-0.1,7.4-0.1c4.1,0,7.4,0.1,7.4,0.1s-3.3,0.1-7.4,0.1
			C290.2,409.7,286.9,409.7,286.9,409.6z"/>
		<path class="st4" d="M295.9,444.4c0-0.1,3.3-0.1,7.4-0.1s7.4,0.1,7.4,0.1s-3.3,0.1-7.4,0.1S295.9,444.5,295.9,444.4z"/>
		<g class="st7">
			<path class="st3" d="M331.2,352.7c1.1,0.9,1.8,2.2,1.6,3.6c-0.2,1.4-0.5,2.8-0.9,4.1c-0.7,3-0.4,6.2,1,9c0.4,0.9,0.9,1.8,0.5,2.7
				c-0.6,1.2-2.4,1-3.6,0.5c-4.7-2.2-7.6-6.9-7.6-12.2c0-2.2,0.7-4.3,2-5.9C325.5,352.9,327.9,351.2,331.2,352.7"/>
		</g>
		<g class="st7">
			<path class="st3" d="M285.2,393.4c1.1-0.4,2.3-0.6,3.4-0.5l20.4,0.5c2.2,0,6.3-0.4,6.8,1.7l0,0c0.6,1.2,0.2,2.7-1,3.3
				c-1.1,0.7-2.4,1-3.6,1c-2.7,0.2-5.3,0.2-8.1,0.2c-5.3,0.1-10.7-0.2-16.1-1c-0.8-0.1-1.6-0.3-2.3-0.7c-0.8-0.4-1.2-1-1.4-1.8
				C283.3,395,284,393.8,285.2,393.4z"/>
		</g>
		<path class="st3" d="M371.6,394.1c0-0.1,4.7-0.1,10.5-0.1c5.8,0,10.5,0.1,10.5,0.2s-4.7,0.1-10.5,0.1
			C376.2,394.3,371.6,394.2,371.6,394.1z"/>
		<path class="st3" d="M287.3,421.4c0,0-0.1-0.1-0.2-0.4c-0.2-0.3-0.3-0.7-0.4-1c-0.2-0.6-0.3-1-0.3-1.6c-0.1-0.7,0-1.3,0.1-2
			c0.1-0.7,0.3-1.3,0.6-1.9c0.2-0.5,0.5-1,0.8-1.4c0.2-0.3,0.5-0.6,0.7-0.9c0.1-0.1,0.2-0.2,0.3-0.3c0,0-0.4,0.5-0.9,1.2
			c-0.3,0.5-0.6,1-0.8,1.4c-0.2,0.6-0.4,1.2-0.5,1.9c-0.1,0.7-0.1,1.3-0.1,2c0,0.6,0.1,1,0.3,1.6
			C287.1,420.8,287.3,421.4,287.3,421.4z"/>
		<path class="st3" d="M282.3,404.1c-0.3-0.2-0.6-0.4-0.8-0.8c-0.6-0.7-1-1.5-1-2.4c-0.2-0.9-0.1-1.7,0.2-2.6c0.1-0.4,0.3-0.7,0.6-1
			c0,0-0.2,0.4-0.4,1c-0.5,1.6-0.2,3.3,0.8,4.8C282,403.8,282.4,404.1,282.3,404.1z"/>
		<path class="st3" d="M293.2,439.9c-0.4-0.1-0.8-0.4-1-0.7c-1.6-1.4-2-3.7-1-5.5c0.2-0.4,0.5-0.7,0.8-1c0,0-0.3,0.4-0.6,1
			c-0.9,1.8-0.6,3.9,0.9,5.3C292.8,439.7,293.2,439.9,293.2,439.9z"/>
		<path class="st3" d="M299.9,456.2c-0.3-0.2-0.6-0.5-0.8-0.8c-1.1-1.4-1.4-3.3-1-5.1c0.1-0.4,0.2-0.7,0.5-1c0,0-0.1,0.4-0.3,1
			c-0.2,0.9-0.2,1.7,0,2.6c0.2,0.9,0.5,1.6,1,2.4C299.7,455.8,300,456.1,299.9,456.2z"/>
		<path class="st3" d="M319.7,378.4c-0.2-0.2-0.3-0.5-0.4-0.7c-0.1-0.3-0.3-0.6-0.4-0.9c-0.1-0.4-0.3-0.8-0.5-1.1
			c-0.4-1-0.7-2-0.9-3c-0.3-1.2-0.4-2.6-0.5-3.8c0-1.3,0-2.6,0.2-3.9c0.1-1,0.3-2.1,0.6-3.1c0.1-0.5,0.2-0.9,0.4-1.1
			c0.2-0.3,0.2-0.7,0.3-0.9c0.1-0.3,0.2-0.5,0.3-0.8c-0.1,0.3-0.1,0.5-0.2,0.8c-0.1,0.2-0.2,0.6-0.3,0.9c-0.1,0.3-0.2,0.8-0.3,1.1
			c-0.3,1-0.5,2.1-0.6,3c-0.1,1.2-0.2,2.6-0.1,3.8c0.1,1.2,0.2,2.6,0.5,3.8c0.2,1,0.5,2,0.8,3c0.1,0.5,0.3,0.9,0.4,1.1
			c0.1,0.3,0.2,0.6,0.3,0.9C319.6,377.9,319.7,378.2,319.7,378.4z"/>
	</g>
	<g id="freepik--Board--inject-283">
		<path class="st3" d="M235.7,85.4h269c8.4,0,15.2,6.8,15.2,15.2v218.9c0,8.4-6.8,15.2-15.2,15.2h-269c-8.4,0-15.2-6.8-15.2-15.2
			V100.6C220.4,92.1,227.3,85.4,235.7,85.4z"/>
		<path class="st4" d="M504.8,335.2h-269c-8.7,0-15.7-7-15.7-15.7V100.6c0-8.7,7-15.7,15.7-15.7h269c8.7,0,15.7,7,15.7,15.7v218.9
			C520.5,328.2,513.4,335.2,504.8,335.2z M235.7,85.8c-8.2,0-14.7,6.6-14.7,14.7v218.9c0,8.2,6.7,14.7,14.7,14.7h269
			c8.2,0,14.7-6.6,14.7-14.7V100.6c0-8.2-6.7-14.7-14.7-14.7H235.7z"/>
		<rect x="267.9" y="270.6" class="st6" width="6.4" height="43.8"/>
		<rect x="255.9" y="303.5" class="st6" width="6.4" height="10.9"/>
		<rect x="278.8" y="292.6" class="st6" width="6.4" height="22"/>
		<rect x="289.6" y="279.8" class="st6" width="6.4" height="34.7"/>
		<rect x="302" y="305.2" class="st6" width="6.4" height="9.3"/>
		<path class="st6" d="M500.6,304.3c-0.3-0.3-0.4-0.7-0.4-1s0.1-0.8,0.4-1c0.2-0.3,0.6-0.4,1-0.4s0.7,0.1,1,0.4
			c0.5,0.7,0.5,1.5,0,2.1C502,304.8,501.3,304.9,500.6,304.3C500.7,304.4,500.7,304.3,500.6,304.3L500.6,304.3z M502,303.9
			c0.1-0.2,0.2-0.5,0.2-0.7c0-0.3,0-0.5-0.2-0.7c-0.1-0.2-0.3-0.3-0.5-0.3c-0.2,0-0.4,0.1-0.5,0.3c-0.1,0.2-0.2,0.5-0.2,0.7
			c0,0.3,0,0.5,0.2,0.7c0.1,0.2,0.3,0.3,0.5,0.3C501.7,304.2,501.8,304.1,502,303.9L502,303.9z M504.7,301.8h0.8l-3.6,5.3h-0.8
			L504.7,301.8z M504.1,306.9c-0.3-0.3-0.4-0.7-0.4-1s0.1-0.8,0.4-1c0.5-0.5,1.2-0.6,1.8-0.1l0.1,0.1c0.3,0.3,0.4,0.7,0.4,1
			s-0.1,0.8-0.4,1C505.4,307.3,504.7,307.3,504.1,306.9L504.1,306.9z M505.5,306.5c0.1-0.2,0.2-0.5,0.2-0.7c0-0.3,0-0.5-0.2-0.7
			c-0.1-0.2-0.3-0.3-0.5-0.3c-0.2,0-0.4,0.1-0.5,0.2c-0.1,0.2-0.2,0.5-0.2,0.7c0,0.3,0,0.5,0.2,0.7
			C504.8,306.7,505.2,306.7,505.5,306.5C505.4,306.6,505.4,306.5,505.5,306.5L505.5,306.5z"/>
		<path class="st1" d="M469.4,277.5h20.9c0.6,0,1-0.4,1-0.9c0-0.3-0.1-0.6-0.3-0.8l-10.5-10.6c-0.4-0.4-1-0.4-1.3-0.1
			c0,0,0,0-0.1,0.1l-10.5,10.6c-0.4,0.4-0.4,1-0.1,1.3C468.8,277.4,469.1,277.5,469.4,277.5z"/>
		<rect x="473.4" y="275.5" class="st1" width="13.4" height="21.3"/>
		<path class="st6" d="M482.3,314.6v4.4H469v-3.4l6-5.5c0.4-0.4,0.8-0.8,1-1.2c0.2-0.3,0.3-0.7,0.3-1s-0.1-0.8-0.4-1
			c-0.4-0.3-0.8-0.4-1.2-0.4c-1,0-2,0.6-2.5,1.5l-4.2-2.1c0.7-1.1,1.6-2.2,2.8-2.9c1.3-0.8,2.9-1,4.4-1c1.2,0,2.4,0.2,3.5,0.7
			c1,0.4,1.8,1,2.4,1.8c0.6,0.8,0.9,1.7,0.9,2.8c0,0.9-0.2,1.8-0.6,2.6c-0.6,1-1.3,2-2.3,2.8l-2.4,2.2L482.3,314.6z"/>
		<path class="st6" d="M487.1,318.3c-1.1-0.7-2.1-1.7-2.7-2.9c-1.2-2.9-1.2-6.4,0-9.3c0.6-1.2,1.5-2.3,2.7-2.9
			c2.4-1.3,5.4-1.3,7.8,0c1.1,0.8,2.1,1.7,2.7,2.9c1.2,2.9,1.2,6.4,0,9.3c-0.6,1.2-1.5,2.3-2.7,2.9
			C492.5,319.6,489.6,319.6,487.1,318.3z M492.9,310.7c0-2.8-0.7-4.2-1.9-4.2s-1.9,1.4-1.9,4.2c0,2.8,0.7,4.2,1.9,4.2
			S492.9,313.4,492.9,310.7L492.9,310.7z"/>
		<path class="st6" d="M282.1,184.7c-0.3-0.3-0.4-0.7-0.4-1c0-0.4,0.1-0.8,0.4-1c0.5-0.6,1.2-0.6,1.8-0.1l0.1,0.1
			c0.5,0.7,0.5,1.5,0,2.1C283.6,185.3,282.8,185.3,282.1,184.7C282.2,184.8,282.1,184.8,282.1,184.7L282.1,184.7z M283.6,184.3
			c0.1-0.2,0.2-0.5,0.2-0.7c0-0.3,0-0.5-0.2-0.7c-0.1-0.2-0.3-0.3-0.5-0.3c-0.2,0-0.4,0.1-0.5,0.3s-0.2,0.5-0.2,0.7
			c0,0.3,0,0.5,0.2,0.7c0.1,0.2,0.3,0.3,0.5,0.3C283.2,184.6,283.4,184.5,283.6,184.3L283.6,184.3z M286.2,182.2h0.8l-3.6,5.4h-0.8
			L286.2,182.2z M285.6,187.3c-0.3-0.3-0.4-0.7-0.4-1s0.1-0.8,0.4-1c0.2-0.3,0.6-0.4,1-0.4s0.7,0.1,1,0.4c0.3,0.3,0.4,0.7,0.4,1
			c0,0.4-0.1,0.8-0.4,1c-0.3,0.3-0.6,0.4-1,0.4C286.2,187.7,285.8,187.6,285.6,187.3L285.6,187.3z M287,186.9
			c0.1-0.2,0.2-0.5,0.2-0.7c0-0.3,0-0.5-0.2-0.7c-0.2-0.3-0.6-0.3-0.9-0.1l-0.1,0.1c-0.1,0.2-0.2,0.5-0.2,0.7c0,0.3,0,0.5,0.2,0.7
			c0.1,0.2,0.3,0.3,0.5,0.3C286.8,187.1,286.9,187,287,186.9L287,186.9z"/>
		<path class="st1" d="M230.7,183.5h19.1c0.5,0,0.9-0.4,0.9-0.9c0-0.2-0.1-0.5-0.3-0.6l-9.5-9.9c-0.4-0.4-1-0.4-1.2,0l0,0l-9.6,9.8
			c-0.4,0.4-0.3,1,0,1.2C230.3,183.4,230.5,183.5,230.7,183.5z"/>
		<rect x="234.4" y="181.7" class="st1" width="12.3" height="19.4"/>
		<path class="st6" d="M263.3,182.9v16.5h-5.6v-12.4h-2.9v-4.2H263.3z"/>
		<path class="st6" d="M268.9,198.9c-1.1-0.8-2.1-1.7-2.7-2.9c-1.2-2.9-1.2-6.4,0-9.3c0.6-1.2,1.5-2.3,2.7-2.9
			c2.4-1.3,5.4-1.3,7.8,0c1.1,0.8,2.1,1.7,2.7,2.9c1.2,2.9,1.2,6.4,0,9.3c-0.6,1.2-1.5,2.3-2.7,2.9
			C274.2,200.2,271.3,200.2,268.9,198.9L268.9,198.9z M274.7,191.3c0-2.8-0.7-4.2-1.9-4.2s-1.9,1.4-1.9,4.2c0,2.8,0.7,4.2,1.9,4.2
			S274.7,194,274.7,191.3L274.7,191.3z"/>
		<path class="st4" d="M311.9,314.8c0,0.1-12.9,0.3-28.8,0.3c-15.9,0-28.8-0.2-28.8-0.3c0-0.1,12.9-0.3,28.8-0.3
			C299,314.5,311.9,314.6,311.9,314.8z"/>
	</g>
	<g id="freepik--Tab--inject-283">
		<path class="st3" d="M418.6,40.2h127.6c4.3,0,7.7,3.4,7.7,7.7v67.9c0,4.3-3.4,7.7-7.7,7.7H418.6c-4.3,0-7.7-3.4-7.7-7.7V48
			C410.9,43.7,414.4,40.2,418.6,40.2z"/>
		<path class="st4" d="M546.2,123.6c0,0,0.4,0,1.1-0.1c2.9-0.5,5.3-2.6,6.2-5.4c0.3-1.1,0.4-2.3,0.3-3.4c0-1.2,0-2.6,0-3.9
			c0-11.1,0-27.2-0.1-47.1c0-4.9,0-10.2,0-15.6c0-2.8-1.5-5.3-3.9-6.7c-1.2-0.7-2.6-1-4-1h-4.4h-37.4h-85.6c-3.8,0-7,2.9-7.4,6.7
			c-0.1,3.7,0,7.4,0,11.1c0,7.4,0,14.6,0,21.9v21.1c0,3.4,0,6.8,0,10.3c0,1.7,0,3.3,0,5c0.2,3.3,2.6,6.1,5.8,6.7
			c0.8,0.2,1.5,0.2,2.4,0.2h30h32.5l47.1,0.1l12.8,0.1h3.3L546.2,123.6l-1.1,0.1h-3.3h-12.8l-47.1,0.1h-32.5h-29.9
			c-0.9,0-1.6,0-2.5-0.2c-3.4-0.8-5.9-3.7-6.2-7.2c-0.1-1.7,0-3.3,0-5v-10.2c0-6.8,0-13.9,0-21V58.3c0-3.7-0.1-7.4,0-11.2
			c0.5-4.1,3.9-7.1,8-7.1h85.6h37.4h4.4c1.4-0.1,2.9,0.3,4.2,1c2.6,1.4,4.1,4.1,4.1,7c0,5.4,0,10.6,0,15.6c0,19.9-0.1,35.9-0.1,47.1
			c0,1.4,0,2.7,0,3.9c0.1,1.1-0.1,2.3-0.4,3.4c-0.6,1.7-1.7,3.2-3.2,4.3c-1,0.6-2,1-3.1,1.1c-0.3,0-0.6,0.1-0.9,0.1L546.2,123.6z"/>
		<rect x="429.2" y="93" class="st6" width="4.1" height="14.9"/>
		<rect x="443.8" y="80.9" class="st6" width="4.1" height="26.9"/>
		<rect x="436" y="63.2" class="st8" width="5" height="44.6"/>
		<rect x="458.5" y="97.6" class="st6" width="4.1" height="10.2"/>
		<rect x="451.2" y="97.6" class="st8" width="4.1" height="10.2"/>
		<rect x="473.1" y="91.2" class="st6" width="4.1" height="16.7"/>
		<rect x="465.8" y="76.6" class="st8" width="4.1" height="31.2"/>
		<rect x="495" y="76.6" class="st8" width="4.1" height="31.2"/>
		<rect x="480.4" y="60.8" class="st8" width="4.1" height="47"/>
		<rect x="487.8" y="96.2" class="st6" width="4.1" height="11.6"/>
		<rect x="524.3" y="99.3" class="st8" width="4.1" height="8.6"/>
		<rect x="509.6" y="61.8" class="st8" width="4.1" height="46.1"/>
		<rect x="516.9" y="71.2" class="st6" width="4.1" height="36.7"/>
		<rect x="502.3" y="69.9" class="st6" width="4.1" height="38"/>
		<rect x="531.6" y="76.6" class="st6" width="4.1" height="31.2"/>
		<path class="st0" d="M430,112.3h8.5c0.3,0,0.6,0.3,0.6,0.6v0.6c0,0.3-0.3,0.6-0.6,0.6H430c-0.3,0-0.6-0.3-0.6-0.6v-0.6
			C429.4,112.6,429.6,112.3,430,112.3z"/>
		<path class="st0" d="M457.9,112.3h8.5c0.3,0,0.6,0.3,0.6,0.6v0.6c0,0.3-0.3,0.6-0.6,0.6h-8.5c-0.3,0-0.6-0.3-0.6-0.6v-0.6
			C457.2,112.6,457.5,112.3,457.9,112.3z"/>
		<path class="st0" d="M482.5,112.3h8.5c0.3,0,0.6,0.3,0.6,0.6v0.6c0,0.3-0.3,0.6-0.6,0.6h-8.5c-0.3,0-0.6-0.3-0.6-0.6v-0.6
			C482,112.6,482.2,112.3,482.5,112.3z"/>
		<path class="st0" d="M507.9,112.3h8.5c0.3,0,0.6,0.3,0.6,0.6v0.6c0,0.3-0.3,0.6-0.6,0.6h-8.5c-0.3,0-0.6-0.3-0.6-0.6v-0.6
			C507.3,112.6,507.6,112.3,507.9,112.3z"/>
		<path class="st0" d="M529.5,112.3h8.5c0.3,0,0.6,0.3,0.6,0.6v0.6c0,0.3-0.3,0.6-0.6,0.6h-8.5c-0.3,0-0.6-0.3-0.6-0.6v-0.6
			C528.9,112.6,529.1,112.3,529.5,112.3z"/>
		<path class="st4" d="M541,107.8c0,0.2-26.4,0.3-58.9,0.3s-58.9-0.1-58.9-0.3s26.4-0.3,58.9-0.3S541,107.7,541,107.8z"/>
		<circle class="st0" cx="424.5" cy="52" r="2.3"/>
		<path class="st0" d="M433,52c0,1.2-1,2.3-2.2,2.3s-2.3-1-2.3-2.2s1-2.3,2.2-2.3l0,0C432,49.8,432.9,50.8,433,52z"/>
		<circle class="st0" cx="436.8" cy="52" r="2.3"/>
	</g>
	<g id="freepik--Speaker--inject-283">
		<path class="st4" d="M315.3,233.7l14,29.2l7.3-1.9l46.8,40.1l13.8-26.1c0,0-27.9-12.8-32.9-23.1c-5-10.3-0.3-10-0.3-10l-11.6-18
			L315.3,233.7z"/>
		<path class="st0" d="M333.5,194.7c0,0,14.7-4.3,38.2-20.9c17.2-12.2,30.6-26.6,36.6-33.6c2.9-3.3,7.8-3.8,11.2-1
			c5.1,4.4,12.3,15.3,20.1,43.1c13.7,49,3.9,58.3-0.3,57.6c-4.2-0.7-31.2-9.7-49.1-10.5c-17.9-0.8-45,4.6-45,4.6L333.5,194.7z"/>
		<path class="st4" d="M333.5,194.7c0,0.2,0.1,0.5,0.2,0.7c0.1,0.5,0.3,1.1,0.6,2l2.2,7.7c2,6.7,4.8,16.6,8.6,29l0.1,0.3l0.3-0.1
			c7.7-1.4,16.5-2.8,26.3-3.7c4.8-0.5,10-0.9,15.3-0.8c5.5,0.1,11,0.7,16.4,1.7c11.3,2,22.9,5.4,35.2,8.7l0.6,0.1h0.7
			c0.5,0,1-0.1,1.3-0.3s0.8-0.5,1.1-0.7l1-1c1-1.3,1.8-2.9,2.3-4.5c1-3.2,1.4-6.6,1.4-9.9c0-6.8-0.7-13.6-2-20.2
			c-0.3-1.5-0.6-3-0.9-4.5c-0.3-1.4-0.7-2.9-1-4.5c-0.7-2.9-1.4-5.9-2.2-8.7c-1.4-5.8-3.1-11.4-5-16.8c-1.8-5.4-3.9-10.6-6.3-15.8
			c-2.4-4.9-5.1-9.8-8.9-13.6c-1-1-2.1-1.8-3.3-2.3c-2.6-1-5.4-0.6-7.7,1c-1,0.8-2,1.6-2.8,2.7c-3.3,3.7-6.7,7.2-9.9,10.6
			c-6.1,6.2-12.5,11.9-19.4,17.3c-9.9,7.7-20.4,14.4-31.6,20.2c-3.9,2-7.1,3.4-9.2,4.3c-1,0.5-1.9,0.8-2.5,1
			C334,194.5,333.8,194.6,333.5,194.7c0.4-0.1,0.7-0.1,1-0.2c0.6-0.2,1.4-0.5,2.5-0.9c2.2-0.9,5.3-2.2,9.3-4.1
			c11.2-5.7,21.9-12.4,31.8-20.1c6.8-5.3,13.4-11.1,19.5-17.2c3.3-3.3,6.7-6.8,10-10.6c0.8-1,1.6-1.8,2.6-2.6c1-0.7,2.2-1,3.3-1.2
			c2.5-0.3,4.9,0.7,6.7,2.6c3.7,3.7,6.4,8.5,8.7,13.4c2.4,5.1,4.5,10.4,6.2,15.7c1.8,5.4,3.5,11,4.9,16.8c0.8,2.9,1.5,5.8,2.2,8.7
			c0.3,1.5,0.7,2.9,1,4.4c0.3,1.4,0.6,2.9,0.9,4.5c1.3,6.7,2,13.4,1.9,20.2c0,3.2-0.5,6.5-1.3,9.6c-0.5,1.5-1.1,2.9-2.1,4.2
			l-0.8,0.8c-0.3,0.2-0.6,0.4-1,0.6c-0.7,0.3-1.3,0.3-2,0.1c-12.2-3.3-24-6.7-35.3-8.7c-5.4-1-11-1.6-16.5-1.6
			c-5.3,0-10.5,0.4-15.4,0.9c-9.8,1-18.6,2.4-26.4,3.9l0.4,0.2l-8.7-28.7c-1-3.3-1.8-5.9-2.4-7.7c-0.3-0.9-0.5-1.5-0.7-2
			C333.5,195.1,333.5,194.7,333.5,194.7z"/>
		<polygon class="st6" points="295.1,236.2 304.7,234.7 299.1,222.1 291.2,226.3 		"/>
		<path class="st6" d="M297.9,220.8l4.3,9.9l2.4,5.4c3.1,7.4,11.5,10.9,19,8.1l38.7-10.6l-15.8-49.1l-39.2,14.4
			C299,202.7,294.9,212.2,297.9,220.8z"/>
		<g class="st7">
			<path d="M436.2,184.9c7.1,26.1,8.2,48.6,2.5,50.2c-5.7,1.6-16.2-18.3-23.3-44.4c-7.1-26.1-8.2-48.6-2.5-50.2
				C418.6,138.9,429.1,158.8,436.2,184.9z"/>
		</g>
		<path class="st3" d="M411.8,175.4c0,0,13.8-5.9,18.1,12.5c4.3,18.3-9.5,19.1-9.5,19.1C416,196.8,413.1,186.2,411.8,175.4z"/>
		<path class="st4" d="M338.7,203.5c0.1,0.3-6.6,2.8-14.8,5.5c-8.3,2.8-15.1,4.8-15.1,4.6c0-0.3,6.6-2.8,14.8-5.5
			C331.9,205.3,338.6,203.2,338.7,203.5z"/>
		<path class="st4" d="M340.4,208.9c0.1,0.3-6.6,2.8-14.8,5.5c-8.3,2.8-15.1,4.8-15.1,4.6c0-0.3,6.6-2.8,14.8-5.5
			C333.6,210.8,340.4,208.7,340.4,208.9z"/>
		<path class="st4" d="M342.1,214.4c0.1,0.3-6.6,2.8-14.8,5.5c-8.3,2.8-15.1,4.8-15.1,4.6c0-0.3,6.6-2.8,14.8-5.5
			S342,214.1,342.1,214.4z"/>
		<path class="st4" d="M343.8,219.8c0.1,0.3-6.6,2.8-14.8,5.5c-8.3,2.8-15.1,4.8-15.1,4.6c0-0.3,6.6-2.8,14.8-5.5
			C337,221.6,343.7,219.5,343.8,219.8z"/>
		<path class="st4" d="M460.9,198.8c-0.1,0.2,7.9,3.1,17.9,6.6s18,6.2,18.1,6s-8-3.1-17.9-6.6C469,201.3,460.9,198.7,460.9,198.8z"
			/>
		<path class="st4" d="M457.6,180c0,0.2,12.7-1.6,28.5-4c15.8-2.4,28.4-4.5,28.4-4.6s-12.7,1.6-28.5,4S457.6,179.9,457.6,180z"/>
		<path class="st4" d="M454.8,160.8c0.1,0.1,4.6-3.9,10-8.9c5.4-5,9.7-9.2,9.5-9.4c-0.2-0.2-4.6,3.9-10,8.9
			C458.9,156.5,454.7,160.7,454.8,160.8z"/>
		<path class="st4" d="M410.2,143.4c-0.1,0.3-0.2,0.7-0.1,1c-0.1,0.8-0.1,1.6-0.2,2.8s-0.1,2.6-0.1,4.4s-0.1,3.6,0,5.7
			c0.1,4.9,0.5,10,1.1,14.8c0.9,6.1,2,12.1,3.5,18c1.5,5.9,3.4,11.7,5.7,17.3c1.8,4.7,3.9,9.1,6.3,13.5c1,1.9,2,3.5,2.8,4.9
			c0.8,1.4,1.6,2.7,2.3,3.7l1.5,2.3c0.2,0.3,0.4,0.6,0.6,0.8c-0.1-0.3-0.2-0.6-0.4-0.9c-0.4-0.7-0.9-1.4-1.3-2.4s-1.3-2.3-2.1-3.8
			c-0.8-1.5-1.7-3.1-2.7-5c-1.9-3.8-4-8.4-6.1-13.5c-2.2-5.6-4.1-11.4-5.6-17.3c-1.5-5.9-2.7-11.8-3.5-17.8
			c-0.8-5.5-1.1-10.6-1.3-14.8c-0.1-2.1-0.1-4-0.2-5.7c-0.1-1.7,0-3.1,0-4.3c0-1.1,0-2,0-2.8C410.3,143.9,410.3,143.6,410.2,143.4z"
			/>
	</g>
	<g id="freepik--icon-4--inject-283">
		<path class="st6" d="M429,358.3L429,358.3c-18.5,0-33.7-15-33.7-33.7l0,0l0,0c0-18.5,15-33.7,33.7-33.7l0,0
			c18.5,0,33.7,15,33.7,33.7l0,0C462.7,343.3,447.5,358.3,429,358.3L429,358.3z"/>
		<path class="st3" d="M413.8,336.4c2.9,1.8,6.2,2.9,9.6,2.9c11.6,0,18.2-9.8,17.8-18.5c1.2-0.9,2.3-2,3.1-3.2
			c-1.1,0.5-2.4,0.9-3.6,1c1.3-0.8,2.3-2,2.8-3.4c-1.2,0.8-2.6,1.2-4,1.5c-2.4-2.5-6.4-2.7-8.8-0.3c-1.6,1.5-2.3,3.8-1.8,6
			c-5-0.3-9.7-2.7-12.8-6.6c-1.6,2.9-0.9,6.5,1.9,8.4c-1,0-2-0.3-2.9-0.8c0,3,2.1,5.6,5,6.2c-1,0.3-1.9,0.3-2.9,0.1
			c0.9,2.6,3.1,4.3,5.8,4.4C420.4,335.9,417,336.8,413.8,336.4z"/>
		
			<rect x="420.8" y="266" transform="matrix(0.9592 -0.2827 0.2827 0.9592 -62.4417 130.5953)" class="st6" width="1" height="31.4"/>
		<path class="st6" d="M420,266c0,1.7-1.4,3.1-3.1,3.1c-1.7,0-3.1-1.4-3.1-3.1c0-1.7,1.4-3.1,3.1-3.1l0,0
			C418.6,262.8,420,264.3,420,266z"/>
	</g>
	<g id="freepik--icon-3--inject-283">
		<path class="st6" d="M538.4,264.8L538.4,264.8c-18.5,0-33.7-15-33.7-33.7l0,0l0,0c0-18.5,15-33.7,33.7-33.7l0,0
			c18.5,0,33.7,15,33.7,33.7l0,0l0,0C572.1,249.8,557.1,264.8,538.4,264.8L538.4,264.8z"/>
		<path class="st3" d="M554.4,224.3c0-1.3-0.3-2.7-0.8-3.9c-0.4-1-1-2.1-1.9-2.9c-0.8-0.9-1.8-1.4-2.9-1.8c-1.2-0.5-2.6-0.8-3.9-0.8
			c-1.7-0.1-2.3-0.1-6.7-0.1c-4.4,0-4.9,0-6.7,0.1c-1.3,0-2.7,0.3-3.9,0.8c-2.2,0.9-3.9,2.6-4.7,4.7c-0.5,1.2-0.8,2.6-0.8,3.9
			c-0.1,1.7-0.1,2.3-0.1,6.6c0,4.3,0,4.9,0.1,6.7c0,1.3,0.3,2.7,0.8,3.9c0.9,2.2,2.6,3.9,4.7,4.7c1.2,0.5,2.6,0.8,3.9,0.8
			c1.7,0.1,2.3,0.1,6.7,0.1c4.4,0,4.9,0,6.7-0.1c1.3,0,2.7-0.3,3.9-0.8c1-0.4,2.1-1,2.9-1.8c0.9-0.8,1.5-1.8,1.9-2.9
			c0.5-1.2,0.8-2.6,0.8-3.9c0.1-1.7,0.1-2.3,0.1-6.7C554.5,226.5,554.5,226.1,554.4,224.3z M551.5,237.5c0,1-0.2,2-0.6,2.9
			c-0.6,1.4-1.6,2.5-3,3c-1,0.4-2,0.6-2.9,0.6c-1.7,0.1-2.2,0.1-6.5,0.1c-4.3,0-4.8,0-6.5-0.1c-1,0-2-0.2-2.9-0.6
			c-0.7-0.3-1.3-0.7-1.8-1.2c-0.6-0.5-1-1.1-1.2-1.8c-0.4-1-0.6-2-0.6-2.9c-0.1-1.7-0.1-2.2-0.1-6.5s0-4.8,0.1-6.5
			c0-1,0.2-2,0.6-2.9c0.6-1.4,1.6-2.5,3-3c1-0.4,2-0.6,2.9-0.6c1.7-0.1,2.2-0.1,6.5-0.1l6.5,0.1c1,0,2,0.2,2.9,0.6
			c0.7,0.3,1.3,0.7,1.8,1.2c0.6,0.5,1,1.1,1.2,1.8c0.4,1,0.6,2,0.6,2.9c0.1,1.7,0.1,2.2,0.1,6.5S551.5,235.8,551.5,237.5
			L551.5,237.5z"/>
		<path class="st3" d="M538.4,222.7c-4.6,0-8.3,3.7-8.3,8.3s3.7,8.3,8.3,8.3c4.6,0,8.3-3.7,8.3-8.3l0,0
			C546.7,226.4,543,222.7,538.4,222.7z M538.4,236.3c-2.9,0-5.3-2.4-5.3-5.3s2.4-5.3,5.3-5.3c2.9,0,5.3,2.4,5.3,5.3
			S541.4,236.3,538.4,236.3L538.4,236.3L538.4,236.3z"/>
		<path class="st3" d="M547,220.4c-1,0-1.9,0.9-1.9,1.9s0.9,1.9,1.9,1.9s1.9-0.9,1.9-1.9S548,220.4,547,220.4z"/>
		
			<rect x="486" y="210" transform="matrix(1.413665e-02 -0.9999 0.9999 1.413665e-02 247.4022 715.4481)" class="st6" width="1" height="44.6"/>
		<path class="st6" d="M466.1,229.4c1.4,1,1.6,3,0.7,4.4c-1,1.4-3,1.6-4.4,0.7c-1.4-1-1.6-3-0.7-4.4l0,0
			C462.8,228.6,464.7,228.3,466.1,229.4z"/>
	</g>
	<g id="freepik--icon-2--inject-283">
		<path class="st6" d="M346.1,118.5L346.1,118.5c-19,0-34.4-15.4-34.4-34.4l0,0l0,0c0-19,15.4-34.4,34.4-34.4l0,0l0,0
			c19,0,34.4,15.4,34.4,34.4l0,0C380.6,103,365.2,118.4,346.1,118.5L346.1,118.5z"/>
		<path class="st3" d="M341.7,99.4h7V81.8h4.9l0.5-5.9h-5.4v-3.3c0-1.4,0.3-1.9,1.6-1.9h3.8v-6.2h-4.8c-5.2,0-7.6,2.3-7.6,6.7V76
			H338v6h3.7V99.4z"/>
		<rect x="346.4" y="112.3" class="st6" width="1" height="40.3"/>
		<path class="st6" d="M343.7,153.4c0.5-1.7,2.1-2.7,3.8-2.3c1.7,0.5,2.7,2.1,2.3,3.8c-0.5,1.6-2.1,2.7-3.8,2.3
			C344.3,156.8,343.3,155,343.7,153.4z"/>
	</g>
	<g id="freepik--icon-1--inject-283">
		<path class="st6" d="M265.5,173.8L265.5,173.8c-18.5,0-33.7-15-33.7-33.7l0,0l0,0c0-18.5,15-33.7,33.7-33.7l0,0l0,0
			c18.5,0,33.7,15,33.7,33.7l0,0C299.1,158.8,284.1,173.8,265.5,173.8z"/>
		<path class="st9" d="M283.8,138.8c-0.3-10-8.7-17.9-18.6-17.6c-9.4,0.3-17.1,7.8-17.6,17.2c0,0.3,0,0.6,0,0.8
			c0,3.2,0.9,6.5,2.6,9.3l-2,6c-0.4,1,0.1,2.1,1,2.5c0.5,0.2,1,0.2,1.3,0l6.4-2c8.7,4.8,19.8,1.6,24.6-7.1c1.4-2.7,2.2-5.6,2.3-8.6
			L283.8,138.8z M265.8,154.4c-2.9,0-5.9-0.9-8.4-2.5l-5.8,1.9l1.9-5.6c-1.9-2.6-2.9-5.7-2.9-8.8c0-0.5,0-1,0.1-1.4
			c0.8-8.4,8.2-14.5,16.5-13.8c7.4,0.7,13.2,6.7,13.8,14.1c0,0.4,0,0.8,0,1.1C280.9,147.7,274.1,154.4,265.8,154.4L265.8,154.4z"/>
		<path class="st9" d="M274.1,142.9c-0.5-0.2-2.7-1.2-3-1.4s-0.7-0.2-1,0.2s-1.1,1.4-1.4,1.7c-0.3,0.3-0.5,0.3-1,0.1
			c-1.3-0.5-2.6-1.2-3.6-2.2c-1-0.9-1.8-1.9-2.5-3c-0.3-0.5,0-0.7,0.2-0.9s0.5-0.6,0.7-0.8l0.2-0.2c0.1-0.2,0.2-0.4,0.3-0.6
			c0.1-0.3,0.1-0.6,0-0.8s-1-2.4-1.3-3.2c-0.3-0.9-0.8-0.8-1-0.8s-0.6-0.1-0.9-0.1c-0.5,0-0.9,0.2-1.1,0.6c-1,1-1.6,2.3-1.5,3.7
			c0,0.5,0.1,1,0.2,1.5c0.4,1.1,0.9,2.1,1.6,3c0.2,0.3,3,4.8,7.6,6.7c4.6,1.8,4.6,1.1,5.3,1c1.2-0.2,2.4-1,2.9-2.1
			c0.3-0.7,0.4-1.4,0.3-2.1C274.8,143.3,274.4,143.2,274.1,142.9z"/>
		<rect x="289.7" y="154" transform="matrix(0.756 -0.6546 0.6546 0.756 -40.2715 231.3634)" class="st6" width="1" height="31.4"/>
		<path class="st6" d="M297.9,183.5c-0.8-1.5,0-3.4,1.5-4.1c1.5-0.8,3.4,0,4.1,1.5c0.8,1.5,0,3.4-1.5,4.1
			C300.5,185.7,298.7,185.1,297.9,183.5z"/>
	</g>
	<g id="freepik--character-2--inject-283">
		<path class="st8" d="M586,380.2h61.8c2.6,0,4.7,2.1,4.7,4.7l0,0v69.8c0,2.6-2.1,4.7-4.7,4.7l0,0H586c-6.9,0-12.6-5.7-12.6-12.6
			v-53.8C573.3,385.9,578.9,380.2,586,380.2z"/>
		<g class="st7">
			<path d="M586,380.2h61.8c2.6,0,4.7,2.1,4.7,4.7l0,0v69.8c0,2.6-2.1,4.7-4.7,4.7l0,0H586c-6.9,0-12.6-5.7-12.6-12.6v-53.8
				C573.3,385.9,578.9,380.2,586,380.2z"/>
		</g>
		<path class="st8" d="M562.9,380.2h67.3c2.1,0,3.8,1.7,3.8,3.8v71.5c0,2.1-1.7,3.8-3.8,3.8h-67.3c-2.1,0-3.8-1.7-3.8-3.8v-71.4
			C559.1,381.9,560.8,380.2,562.9,380.2z"/>
		<path class="st10" d="M549.7,284.8c0,0-8.4-7.2-10.6-8.6c-2.2-1.3-6.1-0.5-9.4-1c-3.3-0.6-8.2-2.8-9.4-2.1
			c-1.4,0.8,0.1,4.1,5.2,6.1l-1.5-0.1l-3.7,0.3c0,0-1.3-2-2.6-2c-1.6,0-1.6,1.4-1.6,1.4s-2.6-2.9-3.3,0.2c0,0-2.9-1.1-3.1,1.1
			c0,0-0.7,1.8,5.7,2.3c0,0,5.4,5,6.7,5.6s5.9-0.2,5.9-0.2s1.3,1.9,2.8,2c2.7,0.2,9.5-0.3,9.5-0.3l2.7,3.2L549.7,284.8z"/>
		<path class="st11" d="M528.2,287.8c-0.2-0.4-0.4-0.8-0.7-1c-0.7-1-1-2-1.2-3c-0.1-1.6,0.5-3.2,1.6-4.5c0.3-0.4,0.6-0.8,1-1
			c0.3-0.4,0.7-0.8,1-1c0.3-0.3,0.9-0.3,1.1,0c0.4,0.4,0.5,0.9,0.5,1.3c-0.1,1.3-0.8,2.7-1.8,3.4l-0.2,0.2l0.2,0.2
			c0.7,0.6,1.2,1.2,1.7,1.9l0.1,0.2l0.2-0.1c1.8-1.1,3.7-2,5.8-2.5c1.5-0.3,2.5-0.3,2.5-0.4c-0.2,0-0.5,0-0.7,0
			c-0.6,0-1.2,0.1-1.8,0.2c-2.2,0.4-4.2,1.1-6,2.4l0.3,0.1c-0.5-0.8-1.1-1.4-1.8-2.1v0.4c1.2-1,1.9-2.3,2-3.8
			c0.1-0.7-0.2-1.2-0.6-1.7c-0.3-0.2-0.6-0.4-0.9-0.4s-0.6,0.1-0.9,0.3c-0.4,0.4-0.8,0.7-1.1,1.1c-0.4,0.4-0.7,0.8-1,1.1
			c-1.1,1.3-1.7,3-1.6,4.8c0.2,1.1,0.8,2.2,1.4,3.1C527.6,287.3,527.9,287.6,528.2,287.8z"/>
		<path class="st11" d="M519.9,278.9c0.7,1.2,1.5,2.4,2.6,3.3c0.4,0.5,0.8,0.9,1.1,1.2c0.4,0.4,0.8,0.6,1.2,0.7c0.3,0,0.7,0,1-0.1
			c0.2-0.1,0.3-0.1,0.3-0.2c0-0.1-0.1,0-0.3,0c-0.3,0-0.6,0-0.9,0c-0.4-0.1-0.8-0.3-1-0.6c-0.3-0.4-0.7-0.8-1-1.2
			C522,280.9,520.9,279.9,519.9,278.9z"/>
		<path class="st11" d="M522.4,287.3c0.1-0.1-1.5-1.9-3.3-4.3s-2.9-4.6-3-4.6C517.4,281.9,519.6,284.9,522.4,287.3L522.4,287.3z"/>
		<path class="st11" d="M517.1,283.9c-0.7-1-1.3-1.8-2.2-2.7c-0.7-1-1.4-1.8-2.3-2.6c0.5,1,1.1,2,1.9,2.9
			C515.2,282.6,516.1,283.4,517.1,283.9z"/>
		<path class="st11" d="M527,279.5c0-0.1-0.8-0.3-1.7-0.4c-1-0.1-1.7,0-1.7,0.1s0.8,0.3,1.7,0.4S527,279.6,527,279.5z"/>
		<path class="st6" d="M597.6,262.5c0,0-8.9-0.7-14.1,9.7c-3.4,6.8-13.8,25.4-13.8,25.4l-20.4-17.1l-12,12.9
			c0,0,20.4,24.3,28.4,26.2c8,1.9,17.3-3.5,20.2-7.7c2.9-4.2,12.6-14.3,12.6-14.3L597.6,262.5z"/>
		<path class="st4" d="M600.1,284.4l1.4-22.9c0-17.9-1.8-38.4,0.4-44.3c4-10.7,18.4-13.1,18.4-13.1c19.5-2,23.5,12.9,25.9,26.5
			c0.4,2.3,1.5,6.4,2.9,11.1c3.2,9.9,7.1,20,14.5,26.4c2.9,2.6,4.8,6,5.5,9.8c0.8,3.7-1.1,8.3-4.8,9c3.5,3.1,3.9,8.7,0.7,12.2
			c-0.5,0.6-1,1-1.6,1.4c-3,2.1-7,1.9-10.7,1.6c-3.7-0.3-7.5-0.9-10.5-3c-2.9-2.2-4.6-5.8-5.7-9.2c-1.4-4.2-2.7-8.5-3.4-12.8
			L600.1,284.4z"/>
		<path class="st10" d="M619.7,209.1l1.4-1l12.3,7.3c1.8,0.4,3,2.2,2.9,4.1l-8,42.2c-0.5,2.9,0,5.6-2.1,7.6l-14.4,13.5
			c-5,4.8-2.8-7.2-5.1-13.8c-0.2-0.5,1-1.9,1-2.2s0-0.7,0-1c0.2-3.5,0.6-6.5,0.6-6.5c0.4-3.8,0.5-5.3,0.5-5.3s-7.9-2.2-8.5-12.7
			c-0.3-5.3,1-12.3,2.4-19.1C604.5,212.7,612,207.9,619.7,209.1z"/>
		<path class="st4" d="M616.7,231.2c-0.1,0.8,0.5,1.4,1.1,1.5c0.7,0.1,1.3-0.4,1.5-1l0,0c0.1-0.8-0.5-1.4-1.1-1.5
			C617.5,230,616.9,230.4,616.7,231.2L616.7,231.2z"/>
		<path class="st4" d="M603.6,229.1c-0.1,0.8,0.5,1.4,1.1,1.5c0.7,0.1,1.3-0.3,1.5-1l0,0c0.1-0.8-0.4-1.4-1.1-1.5
			C604.4,228,603.7,228.3,603.6,229.1L603.6,229.1z"/>
		<path class="st4" d="M603.4,225.7c0.2,0.2,1.2-0.5,2.7-0.3s2.4,1,2.6,0.9c0.2-0.1-0.1-0.4-0.5-0.8c-0.6-0.5-1.3-0.8-2.1-0.9
			s-1.5,0.1-2.2,0.5C603.6,225.3,603.4,225.6,603.4,225.7z"/>
		<path class="st4" d="M617.4,227.6c0.2,0.2,1.1-0.6,2.7-0.6s2.5,0.8,2.7,0.6c0.2-0.2-0.1-0.4-0.6-0.8c-0.7-0.5-1.3-0.7-2.1-0.7
			s-1.5,0.3-2.1,0.7S617.3,227.5,617.4,227.6z"/>
		<path class="st4" d="M611.4,237.2c-0.8-0.3-1.5-0.6-2.3-0.7c-0.4-0.1-0.7-0.2-0.8-0.5c0-0.4,0.1-0.8,0.4-1l1.4-2.7
			c1.9-3.8,3.3-7,3.2-7s-1.8,2.9-3.8,6.7l-1.3,2.8c-0.3,0.4-0.4,1-0.4,1.4c0.1,0.3,0.3,0.5,0.6,0.6c0.2,0.1,0.4,0.1,0.7,0.2
			C609.8,237.1,610.6,237.2,611.4,237.2z"/>
		<path class="st11" d="M608.7,254.1c4.9,0.6,9.9-0.2,14.4-2.3c0,0-4.3,6.8-14.6,4.8L608.7,254.1z"/>
		<path class="st4" d="M617.5,221.7c0.1,0.4,1.6,0.3,3.2,0.5s3,0.8,3.3,0.4c0.1-0.2-0.1-0.6-0.7-1c-0.8-0.5-1.5-0.9-2.4-1
			c-0.9-0.1-1.7-0.1-2.6,0.2C617.8,221.2,617.5,221.5,617.5,221.7z"/>
		<path class="st4" d="M604.4,219.9c0.2,0.4,0.5,0.3,1.9,0.6c1.4,0.3,3.5,1,3.8,0.7c0.2-0.1,0.1-0.5-0.4-1c-0.6-0.6-1.3-1-2.2-1
			c-0.8-0.2-1.6-0.2-2.4,0.1C604.6,219.4,604.3,219.7,604.4,219.9z"/>
		<path class="st4" d="M633.2,237.7c0,0-6.5,1.1-12.4-16.6c-1.2-4.3-2-8.7-2.1-13.2l2.5-0.4c0,0,13.8,6.3,14.1,6.6
			c0.3,0.3,2.5,8,2.5,8L633.2,237.7z"/>
		<path class="st10" d="M631.5,236.7c0.1-0.8,1.1-2.5,1.9-2.6c2.1-0.1,5.8,0.5,5.2,5.7c-0.7,7.1-7.7,4.9-7.7,4.8
			S631.2,239.4,631.5,236.7z"/>
		<path class="st11" d="M633.5,242c0,0,0.1,0.1,0.3,0.2c0.3,0.2,0.7,0.2,1,0.1c1-0.5,1.6-1.5,1.7-2.7c0.1-0.6,0-1.2-0.2-1.8
			c-0.1-0.5-0.4-0.9-0.9-1c-0.3-0.1-0.6,0-0.8,0.3c-0.1,0.2-0.1,0.4-0.1,0.4s-0.1-0.1,0-0.4c0.1-0.2,0.2-0.3,0.3-0.4
			c0.2-0.1,0.5-0.2,0.7-0.1c0.6,0.2,1,0.7,1.1,1.2c0.3,0.7,0.3,1.3,0.2,2c-0.2,1.4-1,2.8-2.1,2.9c-0.4,0.1-0.8,0-1.1-0.3
			C633.4,242.2,633.4,242,633.5,242z"/>
		<path class="st8" d="M634.7,245.4c0,1-0.8,1.8-1.8,1.9c-1,0.1-1.8-0.8-1.9-1.8c0-1,0.8-1.8,1.8-1.9
			C633.8,243.5,634.6,244.2,634.7,245.4C634.7,245.3,634.7,245.3,634.7,245.4z"/>
		<path class="st4" d="M657,212.1c-2.1-2.5-5.3-3.5-8.5-2.9c-3,0.8-5.6,2.9-6.6,6l-0.9,18c1.6,0.8,3.5,0,4.3-1.6
			c0.4-0.9,0.4-1.8,0-2.6c0.9,1.4,2.6,2.2,4.2,1.9c1.6-0.4,2.8-1.8,2.9-3.4c0-1.3-0.9-2.6-2.1-3c2.9,0.5,5.7-0.9,7.2-3.3
			C659.2,218.2,659,214.6,657,212.1z"/>
		<path class="st8" d="M644.1,229.1c-0.1,0.1-0.2,0.2-0.3,0.2c-0.3,0.2-0.7,0.4-1,0.5c-1.2,0.5-2.6,0.9-3.9,1c-2,0.2-4,0-6-0.6
			c-2.4-0.7-4.6-1.9-6.5-3.5c-1.8-1.6-3.3-3.6-4.5-5.8c-1-1.8-1.6-3.7-2-5.7c-0.3-1.3-0.5-2.7-0.5-4c0-0.5,0-0.9,0-1
			c0-0.1,0-0.3,0-0.4c0.1,0.5,0.1,1,0.1,1.4c0.1,1.3,0.3,2.7,0.6,4c0.5,1.9,1.1,3.8,2,5.5c1.1,2.2,2.6,4.1,4.4,5.7s4,2.8,6.3,3.4
			c1.9,0.6,3.9,0.8,5.8,0.7C640.6,230.2,642.4,229.9,644.1,229.1z"/>
		<path class="st8" d="M644.4,231.4c0,0-0.2,0.5-0.7,1c-1.3,1.5-3.1,2.6-5.1,2.8c-0.4,0.1-0.9,0-1.2-0.1
			C640.1,234.8,642.6,233.5,644.4,231.4z"/>
		<path class="st8" d="M646.1,230.8c-0.2-0.8-0.4-1.6-0.5-2.4c-0.3-1.5-0.8-3.6-1.3-5.8c-0.6-2.2-1.2-4.3-1.7-5.7
			c-0.3-0.8-0.6-1.5-0.8-2.4c0.4,0.8,0.8,1.5,1,2.3c0.8,1.9,1.3,3.8,1.8,5.7c0.5,1.9,0.9,3.9,1.1,5.9
			C646.1,229.2,646.1,230,646.1,230.8z"/>
		<path class="st11" d="M615.3,241.8c0-0.5-0.2-1-0.6-1.4c-0.7-0.8-1.7-1-2.6-0.5c-1,0.6-1.5,1.5-1.4,2.6l0,0c0.4,0.7,1,1.1,1.7,1.3
			l0.4,0.1c0.6,0.1,1.2-0.1,1.7-0.4C615,243.1,615.3,242.5,615.3,241.8z"/>
		<path class="st4" d="M614.9,239.2c-0.2,0-0.4,1.5-1.7,2.5c-1.3,1-2.9,0.7-3,0.9s0.3,0.3,1,0.4c0.9,0.1,1.8-0.2,2.5-0.7
			c0.7-0.5,1.2-1.2,1.3-2.1C615.1,239.6,615,239.2,614.9,239.2z"/>
		<path class="st6" d="M596.6,262.5c0,0-10.9,14.8-11.9,20s1.6,38.3,2.9,44.1l-8.5,19.1l14.5,3.4l48.3-0.9l-2-31.8l4.8-21.1
			l0.5-27.8l-17.2-5.7c-4.5,9.1-19.3,6.1-20.2-1.1L596.6,262.5z"/>
		<path class="st6" d="M645.4,267.5c4.1,1.8,7.4,4.9,9.3,8.9c2.8,5.5,10.3,29.3,12.1,35.3c2.1,6.7,2.7,12.3-1,16.8
			c-1,1.3-1.2,2.9-9.1,6.2c-7.9,3.3-28.5,9.5-28.5,9.5l-4.4-10.7l25.5-15.6l-7.3-19.9L645.4,267.5z"/>
		<path class="st4" d="M647.3,287.8c0.1,0-1.4,6.4-3.4,14.3c-2,7.9-3.8,14.2-3.9,14.1s1.4-6.4,3.4-14.3
			C645.4,294,647.2,287.8,647.3,287.8z"/>
		<path class="st10" d="M601.8,336.5l2.1-1l-0.8,1c-0.6,0.6-0.9,1.4-0.7,2.3c0.3,1.1,2.5,1.4,2.5,1.4c-0.1,0.9,0.1,1.6,0.7,2.3
			c0.8,1,3.6,0.3,3.6,0.3l-0.4,0.9c-0.5,1,0.7,2.1,1.2,2.2c1.2-0.1,2.5-0.5,3.6-1c1-0.7,4.5-0.4,4.5-0.4s4.4,1.4,6.3,0.8
			c1-0.3,1.9-1,2.4-2c0,0-0.3-8.2-3-9.5c-1.3-0.7-9.3-3.7-11.7-4.8c-0.8-0.4-1.7-0.4-2.6-0.1c-2.6,1-7.2,2.9-8.5,3.8
			c0,0-2.1,1.3-1.6,2.5C599.6,336.1,600.7,336.8,601.8,336.5C601.7,336.5,601.8,336.5,601.8,336.5z"/>
		<path class="st11" d="M607.8,332.8c-0.7,0.6-1.3,1.1-2.1,1.6c-0.7,0.6-1.4,1-2.2,1.4c0.7-0.6,1.3-1.1,2.1-1.6
			S607.1,333.3,607.8,332.8z"/>
		<path class="st11" d="M609.9,337.4c0,0.1-1.1,0.6-2.6,1.4c-1.4,0.9-2.5,1.5-2.6,1.4c0.2-0.2,0.5-0.4,0.7-0.6
			c0.5-0.3,1-0.8,1.7-1.1c0.6-0.4,1.2-0.7,1.8-1C609.4,337.5,609.7,337.4,609.9,337.4z"/>
		<path class="st11" d="M613,340.7c-0.7,0.5-1.2,0.9-2,1.2c-0.7,0.4-1.3,0.8-2.1,1c0.7-0.5,1.2-0.9,2-1.2
			C611.5,341.4,612.2,341,613,340.7z"/>
		<path class="st4" d="M586.9,273.9c0,0.2,0,0.3,0,0.5c0,0.4-0.1,0.9-0.2,1.3c-0.2,1.1-0.4,2.9-0.6,4.9c-1,10.8-1,21.8,0.3,32.7
			c0.3,2.1,0.5,3.8,0.7,4.9c0.1,0.6,0.1,1,0.2,1.3c0,0.2,0,0.3,0,0.5c-0.1-0.2-0.1-0.3-0.1-0.5c-0.1-0.4-0.2-0.8-0.3-1.3
			c-0.2-1.1-0.5-2.9-0.8-4.9c-1.5-10.8-1.6-21.9-0.3-32.7c0.3-2.1,0.5-3.8,0.7-4.9c0.1-0.6,0.2-1,0.2-1.3
			C586.8,274.2,586.9,274,586.9,273.9z"/>
		<path class="st8" d="M563.8,447.3l10.6,16.4c0,0-12.5,16.4-10.7,19.5l31.4-19.6l-15.7-26L563.8,447.3z"/>
		<path class="st0" d="M583.4,456.1c0.8-0.2,1.5,0.2,1.8,1c0.2,0.8-0.2,1.5-0.9,1.8c-0.8,0.2-1.6-0.3-1.9-1
			c-0.2-0.8,0.4-1.7,1.1-1.8"/>
		<path class="st4" d="M595.2,463.5l-1.7-2.6l-29.4,19.7c0,0-1,1.5-0.3,2.4L595.2,463.5z"/>
		<path class="st3" d="M573.9,463.7c0.1,0.2,1-0.3,2-0.2s1.9,0.5,2,0.3c0.1-0.2-0.7-1-2-1S573.8,463.6,573.9,463.7z"/>
		<path class="st3" d="M571.5,467.2c0.1,0.2,0.9,0,1.8,0.4s1.5,1,1.6,0.9c0.1-0.1-0.3-1-1.4-1.4C572.4,466.7,571.4,467,571.5,467.2z
			"/>
		<path class="st3" d="M572.1,472.5c0.2,0-0.1-1-1-1.6c-1-0.7-1.8-0.5-1.8-0.4c0,0.1,0.8,0.4,1.5,0.9
			C571.5,471.8,572,472.5,572.1,472.5z"/>
		<path class="st3" d="M571.9,459.7c0.2,0.1,0.8-0.6,1.6-1s1.7-0.6,1.7-0.8c0-0.2-1-0.4-2.1,0.2C572,458.7,571.7,459.6,571.9,459.7z
			"/>
		<path class="st4" d="M596.1,348.2c0,0-51.4,17.1-59.9,24c-6.8,5.5-5.9,21.3-2,27.6c1.6,2.6,37.2,62.2,37.2,62.2l17.7-9.6
			l-23.8-58.2c0,0,58-11.3,68.7-16.1c13.3-6,9-19.8,9-19.8l-2.4-10L596.1,348.2z"/>
		<path class="st8" d="M576.9,431.1l10.6,16.4c0,0-12.5,16.4-10.7,19.5l31.3-19.6l-15.7-26.1L576.9,431.1z"/>
		<path class="st0" d="M596.5,439.9c0.8-0.2,1.5,0.2,1.8,1c0.2,0.8-0.2,1.5-0.9,1.8c-0.8,0.2-1.6-0.3-1.9-1
			c-0.2-0.8,0.4-1.7,1.1-1.8"/>
		<path class="st4" d="M608.2,447.4l-1.7-2.6l-29.4,19.7c0,0-1,1.5-0.2,2.4L608.2,447.4z"/>
		<path class="st3" d="M587.7,447.6c0.1,0.2,1-0.3,2-0.2c1,0.1,1.9,0.5,2,0.3c0.1-0.2-0.7-1-2-1
			C588.3,446.7,587.6,447.5,587.7,447.6z"/>
		<path class="st3" d="M585.2,451.1c0.1,0.2,0.9,0,1.8,0.4s1.5,1,1.6,0.9s-0.3-1-1.4-1.4C586,450.5,585.1,451,585.2,451.1z"/>
		<path class="st3" d="M585.8,456.4c0.2,0-0.1-1-1-1.6c-1-0.7-1.8-0.5-1.8-0.4c0,0.1,0.8,0.4,1.5,0.9
			C585.2,455.7,585.7,456.5,585.8,456.4z"/>
		<path class="st3" d="M586,444.6c0.2,0.1,0.8-0.6,1.6-1s1.7-0.6,1.7-0.9s-1-0.4-2.1,0.2C586,443.5,585.8,444.5,586,444.6z"/>
		<path class="st4" d="M540.6,349.6c-2.9,2.8-7.5,11.7-2.7,22.1c3,6.7,45.2,71.8,45.2,71.8l17.1-11.2c0,0-14.6-30.7-19.6-45.1
			c-3.7-10.9-12-27.8-12.5-28.9l0,0l26.5-9.7c0,0-28.3-9-38.7-6.7C545.6,344.2,540.6,349.6,540.6,349.6z"/>
		<path class="st8" d="M540.6,349.6c0.2-0.3,0.5-0.5,0.8-0.8c0.8-0.7,1.5-1.3,2.4-1.9c3.1-2.2,6.7-3.8,10.4-4.8l1.9-0.5
			c0.7-0.1,1.3-0.2,2-0.3c1.4-0.1,2.9-0.1,4.3,0c3.2,0.2,6.5,0.7,9.7,1.2c7.7,1.5,15.4,3.4,22.9,5.8l0.6,0.2l-0.5,0.2l-26.5,9.8
			l0.1-0.3c2.1,4.2,4.1,8.6,6.1,13.1c2,4.6,4,9.2,5.8,14.1s3.6,9.9,5.7,14.8c2.1,4.9,4.3,10,6.6,15.1c2.6,5.7,5.2,11.3,7.8,16.8
			l0.1,0.2l-0.2,0.1l-17.1,11.2l-0.2,0.1l-0.1-0.2c-8.5-13.1-16.4-25.5-23.4-36.5c-7-11-13.2-20.9-18.2-29.1c-1.2-2.1-2.4-4-3.4-6
			c-0.9-1.8-1.5-3.8-1.9-5.8c-0.3-1.7-0.4-3.5-0.3-5.2c0.1-1.4,0.4-2.9,0.8-4.4c0.6-1.9,1.4-3.8,2.7-5.4
			C539.6,350.7,540,350.1,540.6,349.6c0,0-0.2,0.2-0.4,0.4c-0.4,0.4-0.7,0.8-1,1.2c-1.1,1.7-2,3.5-2.6,5.4c-0.4,1.4-0.7,2.9-0.8,4.3
			c-0.1,1.7,0,3.5,0.3,5.2c0.4,2,1,3.9,1.9,5.7c1,1.9,2.2,3.9,3.4,5.9c5,8.3,11.2,18.1,18.3,29.1c7,11,14.9,23.3,23.5,36.5l-0.3-0.1
			l17.1-11.2l-0.1,0.3c-2.6-5.5-5.2-11.1-7.8-16.8c-2.3-5-4.5-10.1-6.6-15.1c-2.1-5-4.1-10-5.7-14.8c-1.6-4.8-3.8-9.6-5.8-14.1
			c-2-4.5-4.1-8.9-6.1-13.1l-0.1-0.2l0.2-0.1l26.5-9.7v0.4c-7.5-2.4-15.1-4.3-22.8-5.8c-3.1-0.7-6.4-1-9.6-1.3
			c-1.4-0.1-2.9-0.1-4.3,0c-0.7,0.1-1.3,0.2-2,0.3l-1.8,0.5c-3.7,1-7.2,2.6-10.4,4.8c-0.9,0.6-1.6,1.1-2.4,1.8
			C541,349.4,540.8,349.5,540.6,349.6z"/>
		<path class="st8" d="M562,352.1c2.7,1.6,4.8,3.9,6.4,6.7c-0.1,0.1-1.3-1.6-3-3.4S561.9,352.2,562,352.1z"/>
		<path class="st4" d="M576.9,431.1l0.3-0.2l0.8-0.5l3-2l11.4-7.3l0.2-0.1l0.1,0.2c4.2,6.9,9.6,16,15.7,26l0.1,0.2l-0.2,0.1l-12.8,8
			L577,467l-0.2,0.1l-0.1-0.2c-0.2-0.6-0.3-1.1-0.1-1.7c0.1-0.6,0.3-1,0.5-1.5c0.4-1,0.9-1.9,1.3-2.9c1-1.8,2-3.4,3-5
			c2.1-3.2,4.1-6.1,6.1-8.6v0.2l-7.8-12c-0.9-1.4-1.6-2.5-2.1-3.2l-0.5-0.9C577.1,431.3,577,431.2,576.9,431.1
			c0.1,0,0.1,0.1,0.3,0.3c0.2,0.2,0.3,0.5,0.6,0.9l2.2,3.2c1.9,2.9,4.6,6.8,7.9,11.9l0.1,0.1l-0.1,0.1c-1.9,2.6-3.9,5.4-6,8.6
			c-1,1.6-2.1,3.2-3,5c-0.5,0.9-1,1.8-1.3,2.8c-0.2,0.5-0.4,1-0.5,1.4c-0.2,0.5-0.2,1,0,1.4l-0.3-0.1l18.5-11.6l12.8-8l-0.1,0.4
			l-15.6-26.1l0.3,0.1l-11.4,7.1l-3.1,1.9l-0.9,0.5C577.2,431,577.1,431,576.9,431.1z"/>
		<g class="st7">
			<polygon points="542.3,348.2 581.4,350 642,354 640.7,348.2 642,348.2 641.9,346.2 545.1,346.2 			"/>
		</g>
		<path class="st4" d="M644.7,305.9c0.2,0.3,0.3,0.6,0.4,0.9l1,2.5c0.9,2.2,2,5.2,3.3,8.7l0.1,0.2l-0.2,0.1l-6.7,4.1
			c-4.8,2.9-9.2,5.7-12.5,7.6l-3.8,2.3c-0.5,0.3-1,0.6-1.4,0.8c0.4-0.4,0.9-0.7,1.3-1l3.7-2.4c3.1-2,7.5-4.8,12.4-7.7l6.7-4.1
			l-0.1,0.3l-3.1-8.7c-0.4-1-0.7-1.9-0.9-2.5C644.8,306.6,644.7,306.2,644.7,305.9z"/>
		<path class="st0" d="M535.1,300.6l51.8,2.6c1.7,0.1,3.2,1,3.4,2.7l4.1,38l26.7,1.1c0.9,0.1,1.5,0.9,1.4,1.7
			c-0.1,0.8-0.8,1.3-1.5,1.4l-26.2-1l-4.9-0.2l-54.1-2.3l-4.2-40.1c-0.2-1.9,1.1-3.5,3-3.7C534.8,300.6,535,300.6,535.1,300.6z"/>
		<path class="st4" d="M535.1,300.6c-0.3,0-0.6,0-0.9,0c-0.8,0.2-1.5,0.6-2,1.2c-0.4,0.5-0.7,1-0.8,1.6c0,0.8,0,1.4,0.1,2.1
			c0.2,1.5,0.3,3.3,0.6,5.3c0.8,8,2,19.5,3.4,33.6v0.1h0.2l82.7,3.5l2.2,0.1c0.4,0.1,0.9,0,1.1-0.2c0.4-0.2,0.7-0.5,0.9-0.9
			c0.4-0.8,0-1.7-0.8-2.2c-0.4-0.2-0.8-0.3-1.1-0.3h-1.1l-8.7-0.4l-16.6-0.7l0.2,0.2c-1.5-13.6-2.9-26.3-4.1-37.7
			c0-0.8-0.3-1.5-0.9-2c-0.6-0.5-1.2-0.9-1.9-1c-0.7-0.1-1.4-0.2-2.1-0.2l-2-0.1l-7.8-0.4l-13.9-0.7l-19.8-1l-5.2-0.2h-1.3H535.1
			h0.5l1.3,0.1l5.2,0.3l19.8,1l13.9,0.8l7.8,0.4l2,0.1c0.7,0,1.3,0.1,2,0.2c0.7,0.1,1.2,0.4,1.8,0.9c0.5,0.5,0.8,1.1,0.8,1.8
			c1.2,11.4,2.6,24.1,4,37.7v0.2h0.2l16.6,0.7l8.7,0.4h1.1c0.3,0,0.7,0.1,1,0.2c0.6,0.4,0.8,1,0.6,1.7c-0.1,0.3-0.4,0.6-0.7,0.7
			c-0.3,0.1-0.7,0.2-1,0.1l-2.2-0.1l-82.7-3.4l0.2,0.1c-1.5-14.1-2.8-25.6-3.5-33.6c-0.2-2-0.4-3.7-0.6-5.3
			c-0.1-0.7-0.2-1.4-0.1-2.1c0.2-1.4,1.2-2.6,2.7-2.9C534.8,300.6,535.1,300.7,535.1,300.6z"/>
		<path class="st3" d="M563.3,323.2c-0.1,1.8-1.6,3.2-3.4,3.1c-1.8-0.1-3.2-1.6-3.1-3.4c0.1-1.8,1.6-3.2,3.4-3.1l0,0
			C562,320,563.4,321.5,563.3,323.2z"/>
		<path class="st4" d="M592.3,346.5c-0.1,0-1.3-9.7-2.8-21.7s-2.6-21.7-2.6-21.7s1.3,9.7,2.8,21.7
			C591.2,336.8,592.3,346.5,592.3,346.5z"/>
	</g>
	<g id="freepik--character-1--inject-283">
		<path class="st4" d="M178.8,431.4l-0.8,19.2c0,0,19.2,7.1,19.5,10.7l-37.3-0.1l-0.1-29.9L178.8,431.4z"/>
		<path class="st0" d="M166.5,449c-0.8,0.2-1.2,1-1,1.7c0.2,0.8,1,1.2,1.7,1c0.8-0.3,1.2-1,1.1-1.8
			C168.1,449.2,167.2,448.8,166.5,449"/>
		<path class="st8" d="M160.3,461.2l0.1-3l35.6,1.2c0,0,1.6,0.8,1.4,1.9L160.3,461.2z"/>
		<path class="st3" d="M178.6,450.4c0,0.2-1,0.3-1.8,0.9c-0.9,0.6-1.3,1.3-1.5,1.2c-0.2-0.1,0.1-1.1,1.2-1.8
			C177.7,450,178.6,450.2,178.6,450.4z"/>
		<path class="st3" d="M182.6,452c0,0.2-0.8,0.5-1.3,1.2c-0.6,0.8-0.8,1.6-1,1.5c-0.2-0.1-0.3-1,0.5-2
			C181.6,451.8,182.5,451.8,182.6,452z"/>
		<path class="st3" d="M184.7,456.7c-0.2,0-0.4-0.9,0-1.9c0.4-1,1.3-1.4,1.4-1.2c0.1,0.2-0.5,0.7-0.9,1.5S184.9,456.7,184.7,456.7z"
			/>
		<path class="st3" d="M178.3,446c-0.1,0.2-1-0.1-1.9,0c-1,0.1-1.8,0.4-1.9,0.2c-0.1-0.2,0.7-0.8,1.9-0.9
			C177.7,445.3,178.4,445.8,178.3,446z"/>
		<path class="st4" d="M133.2,428.8l-2,23.1l3.7,18.7c0.3,1.3-0.6,2.6-1.8,2.9c-0.1,0-0.1,0-0.2,0l0,0c-0.8,0.1-1.5-0.2-2.1-0.8
			c-3.3-3.6-15.5-17-15.2-18.6c0.3-1.9,0.5-24.5,0.5-24.5L133.2,428.8z"/>
		<path class="st8" d="M132.8,473.5l-17.1-21l-0.1,1c-0.1,0.9,0.2,1.7,0.7,2.4c1.3,1.8,5.2,6.7,14.4,16.9
			C131.3,473.3,132,473.6,132.8,473.5L132.8,473.5z"/>
		<g class="st12">
			<path class="st3" d="M120.8,445.4c0.6,0.5,0.7,1.3,0.3,1.9c-0.5,0.6-1.3,0.8-1.9,0.3c-0.6-0.5-0.7-1.3-0.3-2
				C119.5,445,120.3,445,120.8,445.4"/>
		</g>
		<path class="st3" d="M128.1,463c0.1,0.1,0.8-1.1,2.2-1.7c0.9-0.3,1.8-0.4,2.7-0.4c0,0-0.3-0.3-0.8-0.4c-0.7-0.1-1.4,0-2.1,0.2
			c-0.7,0.3-1.2,0.8-1.6,1.3C128.1,462.7,128,463,128.1,463z"/>
		<path class="st3" d="M129.6,466.2c0.7-0.3,1.4-0.6,2.1-0.9c0.8-0.1,1.5-0.2,2.3-0.2c-0.7-0.5-1.6-0.7-2.4-0.4
			C130.2,465.2,129.5,466.2,129.6,466.2z"/>
		<path class="st3" d="M125.3,458.9c1-0.6,2.1-1.1,3.1-1.5c1.1-0.3,2.3-0.5,3.5-0.6c-1.1-0.4-2.5-0.4-3.6,0.1
			C127.1,457.2,126,457.8,125.3,458.9z"/>
		<path class="st3" d="M125.4,451.7c0.1,0.1,1.3-0.3,3-0.3s2.9,0.6,3,0.4C129.6,450.8,127.3,450.7,125.4,451.7z"/>
		<path class="st3" d="M125.8,445c1-0.3,2.1-0.4,3.1-0.4c1,0.2,2.1,0.5,3,1c0,0-0.2-0.4-0.8-0.7c-1.4-0.9-3.1-1-4.7-0.5
			C126,444.7,125.8,444.9,125.8,445z"/>
		<path class="st3" d="M129,443.4c0.1-0.3,0.1-0.6,0.1-0.9c0-0.9-0.2-1.6-0.6-2.4c-0.2-0.6-0.6-1-1-1.3c-0.4-0.2-0.8-0.1-1,0.1
			c-0.3,0.3-0.4,0.7-0.5,1c0,1.6,1.1,3,2.8,3.3c1.5,0.3,3.1-0.5,4-1.8c0.2-0.4,0.3-0.8,0.1-1.1c-0.2-0.4-0.6-0.6-1-0.6
			c-0.6,0.1-1.1,0.3-1.6,0.7c-0.7,0.5-1.2,1-1.7,1.7c-0.2,0.2-0.3,0.5-0.4,0.8c0.7-0.9,1.4-1.5,2.3-2.2c0.4-0.3,0.9-0.5,1.4-0.6
			c0.2,0,0.5,0.1,0.6,0.3c0.1,0.3,0,0.5-0.1,0.8c-0.8,1.1-2.1,1.7-3.4,1.5c-1.3-0.3-2.3-1.4-2.4-2.8c0-0.3,0.1-0.5,0.3-0.8
			c0.2-0.2,0.4-0.2,0.6-0.1c0.5,0.3,0.8,0.7,1,1.1C128.6,441.3,128.9,442.3,129,443.4z"/>
		<path class="st4" d="M196.7,269.8c1.8,8,2.4,16.2,1.8,24.2c-0.4,5.1-17.8,147.7-17.8,147.7h-23.5l6.6-133.9l-1.9,0.4
			c0,0-12.8,57.1-13.9,66.4c-1,8.4-11.8,68.7-11.8,68.7l-21.5,0.3l6.8-79.9l8-76.6l2.9-22.2L196.7,269.8z"/>
		<path class="st8" d="M164.4,298.8c0,0,0,0.1,0.2,0.2s0.4,0.2,0.6,0.3c0.8,0.2,1.6,0,2.2-0.5c0.9-0.8,1.4-1.9,1.5-3
			c0.2-1.2,0.2-2.7,0.3-4.1c0.2-2.9,0.3-5.5,0.4-7.4c0.1-1,0.1-2.1,0-3c-0.2,1-0.3,2-0.3,3c-0.1,1.9-0.3,4.6-0.5,7.4
			c-0.1,1.4-0.1,2.9-0.3,4.1c0,1-0.5,2.1-1.3,2.9c-0.6,0.5-1.2,0.7-2,0.6C164.9,299.1,164.6,299,164.4,298.8z"/>
		<path class="st8" d="M129.9,285c0.2,0.1,0.4,0.2,0.7,0.2c0.7,0.2,1.2,0.3,1.9,0.3c2.1,0.2,4.2-0.2,6.2-1s3.7-2,5.1-3.6
			c0.4-0.5,0.8-1,1.1-1.5c0.2-0.4,0.4-0.6,0.3-0.7c-0.1-0.1-0.6,0.8-1.7,1.9c-2.9,3-6.8,4.7-11,4.5
			C130.9,285.2,129.9,284.9,129.9,285z"/>
		<path class="st8" d="M188.8,279.1c0,0.8,0.1,1.6,0.4,2.4c1,3.8,3.2,7.1,6.3,9.5c0.6,0.5,1.3,1,2,1.2
			C193.1,289.1,189.9,284.4,188.8,279.1L188.8,279.1z"/>
		<path class="st4" d="M185.1,127c2.4,0.4,4.6-1.2,4.9-3.6c0.4-2.4-1.2-4.6-3.6-4.9c1.6-1.9,1.5-4.8-0.4-6.4c-1-1-2.6-1.3-3.9-1
			c-0.3-2.9-2.9-5.1-5.9-4.8c-0.9,0.1-1.7,0.4-2.5,0.9c-2.3-1.6-5.3-1.5-7.5,0.2c-2.4-0.3-4.6,1.3-4.8,3.7c-0.2,1.4,0.4,2.9,1.4,3.8
			"/>
		<path class="st13" d="M165.6,111.6l1-0.1c9.6-0.5,17.9,6.5,19.2,16c1.1,8.8,2.3,18.6,2.5,23.4c0.4,9.9-9.4,11.9-9.4,11.9l1.4,11.8
			l-24,0.5l-4.3-42.9C150.6,122.1,155.4,112.7,165.6,111.6z"/>
		<path class="st14" d="M178.9,162.8c-4.6,0.2-9.1-0.9-13.1-3.1c0,0,3.5,7.1,13.3,5.7L178.9,162.8z"/>
		<path class="st4" d="M183.6,137c0,0.8-0.6,1.4-1.3,1.5s-1.4-0.5-1.5-1.1l0,0c0-0.8,0.6-1.4,1.3-1.5S183.6,136.2,183.6,137
			L183.6,137z"/>
		<path class="st4" d="M183.8,132.5c-0.2,0.2-1.2-0.6-2.8-0.5c-1.5,0.1-2.6,0.9-2.8,0.8c-0.2-0.1,0.1-0.4,0.6-0.8
			c0.7-0.5,1.4-0.8,2.2-0.8s1.5,0.2,2.2,0.6C183.7,132.1,183.9,132.4,183.8,132.5z"/>
		<path class="st4" d="M170.2,137.6c0,0.8-0.6,1.4-1.3,1.5c-0.8,0.1-1.4-0.5-1.5-1.1l0,0c0-0.8,0.6-1.4,1.3-1.5
			C169.4,136.3,170.1,136.8,170.2,137.6L170.2,137.6z"/>
		<path class="st4" d="M169.7,133.6c-0.2,0.2-1.2-0.6-2.8-0.5c-1.5,0.1-2.6,0.9-2.8,0.8c-0.2-0.1,0.1-0.4,0.6-0.8
			c0.7-0.5,1.4-0.8,2.2-0.8c0.8,0,1.6,0.2,2.3,0.6C169.6,133.1,169.8,133.5,169.7,133.6z"/>
		<path class="st4" d="M175,144.5c0.8-0.3,1.6-0.5,2.5-0.6c0.4-0.1,0.8-0.2,0.8-0.4c0-0.4-0.1-0.8-0.3-1.1c-0.4-1-0.9-1.9-1.3-2.9
			c-1.8-4.1-3.1-7.5-2.9-7.6s1.8,3.2,3.5,7.3c0.4,1,0.9,2,1.2,2.9c0.3,0.5,0.4,1,0.3,1.5c-0.1,0.3-0.3,0.5-0.6,0.6
			c-0.2,0.1-0.5,0.1-0.7,0.1C176.7,144.5,175.9,144.6,175,144.5z"/>
		<path class="st4" d="M170,127.7c-0.2,0.4-1.5,0-3.1,0.1s-2.9,0.4-3.1,0c-0.1-0.2,0.2-0.6,0.8-0.9c0.8-0.4,1.5-0.7,2.4-0.7
			s1.6,0.2,2.4,0.6C169.8,127.1,170.1,127.5,170,127.7z"/>
		<path class="st4" d="M183.6,126.2c-0.3,0.4-1.5,0.1-3,0.1s-2.8,0.4-3,0c-0.1-0.2,0-0.6,0.6-0.9c0.8-0.5,1.6-0.7,2.5-0.7
			c0.9,0,1.7,0.2,2.5,0.6C183.6,125.8,183.7,126,183.6,126.2z"/>
		<path class="st4" d="M184.5,123.1c0,0-2.9-6.1-6-7.3c-3.7-1.6-5,2.5-8.6,1.7c-3.5-0.8-6.9-2.4-10.3,0.5c-3.7,3.1-1.8,5-1.8,9.4
			c-0.1,17.8-3,23-4.4,14.6c-0.2-1-2.8-1.5-3.3-5.3c-0.8-4.9-1.2-11.1-0.3-14.6c0.8-3,2.4-5.2,5.3-7.6c4.7-3.9,11.3-4.3,15.9-4
			C175.7,110.7,184.6,115.4,184.5,123.1z"/>
		<path class="st13" d="M154.1,141.7c-0.1-1.5-1.4-2.6-2.9-2.5H151c-1.8,0.3-3.8,1.4-3.5,5.2c0.6,6.7,7.2,4.8,7.2,4.6
			S154.3,144.6,154.1,141.7z"/>
		<path class="st14" d="M153.1,146.8c0,0-0.1,0.1-0.3,0.2c-0.3,0.1-0.6,0.2-0.9,0.1c-1-0.5-1.5-1.4-1.5-2.5c-0.1-0.6,0-1.1,0.2-1.7
			c0.1-0.5,0.4-0.8,0.9-1c0.3-0.1,0.6,0,0.8,0.3c0.1,0.2,0.1,0.3,0.1,0.3s0.1-0.1,0.1-0.4c-0.1-0.2-0.2-0.3-0.3-0.4
			c-0.2-0.1-0.5-0.2-0.7-0.1c-0.6,0.2-1,0.6-1.1,1.1c-0.3,0.6-0.3,1.2-0.3,1.9c0.2,1.3,1,2.6,1.9,2.8c0.4,0.1,0.8,0,1-0.3
			C153.1,146.9,153.1,146.8,153.1,146.8z"/>
		<path class="st4" d="M153.5,128.7c0.9,0.7,1.9,1,2.9,1.1c1,0.1,2.1-0.6,2.4-1.7c0.1-0.5-0.1-1,0.2-1.4c0.3-0.4,1-0.4,1.6-0.3
			c2,0.1,4.2-2.2,4.6-4.1c0.6,0.8,1.6,0.9,2.4,0.4c0.6-0.4,1.1-1,1.5-1.5c0.5-0.8,1.3-1.2,2.3-1.2c0.5,0.1,1,0.2,1.5,0.3
			c0.9-0.1,1.2-1.1,1.3-2.1c0.1-1,0.1-1.9,0.9-2.5c0.8-0.4,1.6-0.4,2.4-0.2c0.9,0.1,1.9-0.2,2-1c0.1-0.5-0.1-0.9-0.4-1.2
			c-1.2-1.6-3.4-2.2-5.2-1.4c-1-3-4.5-4.8-7.5-3.6c-1.5,0.5-2.7,1.6-3.4,3c-2.6-2.1-6.4-1.7-8.5,0.9c-0.5,0.6-0.8,1.1-1,1.8
			c-2.4-0.5-4.7,1-5.1,3.4c-0.2,1.1,0,2.3,0.6,3.2c-1.2,0.7-2,2-2.1,3.4c0,1.4,1.5,2.8,2.8,2.3c-0.5,1.2,0.1,2.7,1.2,3.1
			c1.1,0.5,2.4,0.1,3-1"/>
		<path class="st8" d="M174.5,113.9L174.5,113.9c0,0.2,0,0.4,0,0.5c-0.1,0.5-0.2,1-0.4,1.3c-0.4,0.7-0.9,1.2-1.4,1.7
			c-0.8,0.6-1.7,1-2.8,1l0.1-0.2c0.3,0.6,0.2,1.3-0.1,1.9c-0.3,0.7-0.7,1.2-1,1.7c-0.2,0.3-0.5,0.6-0.8,0.8c-0.3,0.2-0.7,0.4-1,0.5
			c-0.8,0.2-1.6-0.1-2.2-0.7l0.3-0.1c-0.1,1.4-0.9,2.8-2,3.6c-0.6,0.5-1.4,0.8-2.2,0.9c-0.8,0-1.5-0.1-2.2-0.4l0.2-0.1
			c-0.3,0.9-0.9,1.6-1.5,2.2c-0.7,0.6-1.4,0.9-2.3,0.8c-1.4-0.3-2.7-1.3-3-2.8l0.2,0.1c-0.7,0.4-1.5,0.6-2.3,0.5
			c-0.6-0.1-1.1-0.3-1.6-0.7c-0.3-0.2-0.6-0.5-0.8-0.8c-0.1-0.1-0.1-0.2-0.2-0.3c0.3,0.4,0.7,0.8,1,1c0.5,0.3,1,0.5,1.6,0.6
			c0.8,0.1,1.5-0.1,2.2-0.5l0.1-0.1v0.2c0.4,1.3,1.5,2.4,2.9,2.6c0.8,0.1,1.5-0.2,2.1-0.8c0.7-0.6,1.1-1.2,1.4-2.1v-0.1h0.1
			c0.7,0.3,1.4,0.4,2.1,0.4c0.8,0,1.4-0.3,2-0.8c1-0.9,1.8-2.1,1.9-3.4v-0.3l0.2,0.2c0.5,0.5,1.2,0.8,2,0.6c0.4,0,0.7-0.2,1-0.4
			c0.3-0.2,0.5-0.5,0.7-0.8c0.4-0.5,0.8-1,1-1.6c0.3-0.6,0.3-1.1,0.1-1.7l-0.1-0.2h0.2c1,0,1.9-0.3,2.7-0.9c0.6-0.4,1-1,1.4-1.6
			C174.2,115.1,174.4,114.5,174.5,113.9z"/>
		<path class="st4" d="M175,149.7c-0.1-0.3-1.7,0.2-3.2-1c-1.5-1.1-1.8-2.9-2-2.9s-0.2,0.5,0,1.2c0.2,1,0.9,1.8,1.6,2.4
			c0.8,0.6,1.7,0.8,2.7,0.7C174.6,150.1,175,149.8,175,149.7z"/>
		<path class="st13" d="M228.4,245h4.2c1-1.5,2.1-1.9,4.3-3.1c5.5-3.2,12.9-5.9,14.4-4.7s-0.4,2.7-1,3c-0.6,0.4-5.9,2.5-5.7,4.2
			s17.6,4.8,18.3,6.6c1,2.3-0.9,3.1-8.2,1.9l-2.1-0.4c0,0,1.2,1.8-0.1,3.1c-1.3,1.3-2.5,0.8-2.5,0.8c0,1-0.6,2-1.5,2.4
			c-1.7,0.8-2.4,0-2.4,0s0.4,4.2-3.2,3.5c-3.3-0.6-5.6-0.6-8.8-1.2c-1-0.2-1.9-0.6-2.8-1l-4.1-1.6
			C226.6,255.3,228.1,245.7,228.4,245z"/>
		<path class="st14" d="M250.2,256.3c-0.6-0.7-1.2-1.1-2-1.6c-0.7-0.4-1.5-0.9-2.4-1.4c-0.5-0.3-1-0.8-1.2-1.2
			c-0.2-0.3-0.2-0.7-0.2-1c0-0.4,0.2-0.7,0.4-1c0.5-0.5,1.1-0.7,1.8-0.6c0.6,0,1.1,0.2,1.7,0.3c1,0.3,1.8,0.6,2.6,1
			c0.6,0.3,1,0.7,1.5,1.1c0.3,0.3,0.5,0.5,0.5,0.6c0,0.1-0.8-0.7-2.1-1.3c-0.9-0.4-1.7-0.8-2.6-1c-0.5-0.1-1-0.2-1.5-0.3
			c-0.6-0.1-1,0.1-1.4,0.5s-0.4,1-0.1,1.3c0.3,0.5,0.7,0.9,1,1c0.9,0.6,1.7,1,2.3,1.5c0.6,0.4,1,0.8,1.4,1.2
			C250.2,256.1,250.3,256.3,250.2,256.3z"/>
		<path class="st14" d="M243.3,245.5c0,0.6-0.1,1-0.4,1.6c-0.5,1.2-1.1,2.4-2,3.4c-0.9,1-1.9,1.8-3,2.5c-0.5,0.3-1,0.5-1.5,0.6
			C239.6,251.8,242,249,243.3,245.5L243.3,245.5z"/>
		<path class="st14" d="M246.3,258.7c-0.5-0.1-1-0.4-1.3-0.7c-0.5-0.3-0.9-0.6-1.3-1c-0.6-0.5-1-1-1.1-1.7c-0.3-0.7-0.2-1.4,0.2-2.1
			c0.3-0.5,0.9-0.9,1.4-1c1-0.1,1.5,0.5,1.4,0.5c-0.5-0.2-1-0.2-1.3-0.1c-0.5,0.1-0.9,0.4-1.1,0.9c-0.3,0.6-0.3,1.1-0.1,1.7
			s0.6,1.1,1,1.5c0.4,0.4,0.9,0.8,1.2,1C245.8,258.3,246.3,258.6,246.3,258.7z"/>
		<path class="st14" d="M243.7,261.6c0,0.1-0.5-0.2-1.1-0.7c-1-0.5-1.7-1.3-2.1-2.3c-0.2-0.6-0.2-1.2,0-1.8c0.2-0.5,0.6-0.9,1-1
			c0.3-0.1,0.7-0.1,1,0c0.2,0.1,0.3,0.2,0.3,0.2c-0.4-0.1-0.8,0-1.1,0.1c-0.4,0.2-0.7,0.5-0.8,0.9c-0.2,0.5-0.2,1,0,1.5
			c0.4,0.9,1,1.6,1.9,2.2C243.4,261.2,243.8,261.6,243.7,261.6z"/>
		<path class="st0" d="M213.3,238.5l-1.8-1.2l-6.4-44.9c-0.6-3.9-6.6-14.3-18.3-18.2l2.4,25.4l9.8,54.3c3.1,1.5,6.4,2.9,9.6,3.9
			c6.3,2.2,18.7,4.6,18.7,4.6l4-18.6L213.3,238.5z"/>
		<path class="st0" d="M135.2,177l17.3-7.2l2.1-7.9l21.4,10.1l3.6-5.7l2.8,6.3l4.7,1.5l10.9,19.2v41l2.2,35.4l-2.4,5.6l-19.6,2.9
			c-2.2,0.3-4.3,0.3-6.5,0l-39.7-6.5l-1-11.7l4.1-32.1L135.2,177z"/>
		<path class="st6" d="M174.6,214.6c-0.4-9,1-31.9,1-31.9l2.9-0.5c3.8,16.4,6.3,33,7.6,49.7c0.9,11,0.9,23.9,0.9,23.9l-6,12.7
			l-6.6-12.7C174.5,255.9,175,225.7,174.6,214.6z"/>
		<polygon class="st6" points="174.9,175 177.4,174.1 179.7,177.2 178.9,183 175.9,183.5 173,179.8 		"/>
		<path class="st0" d="M135.6,177c0,0-11.3,2.9-14.5,14.1c-0.9,2.9-5.1,44.6-5.8,50c-0.7,5.4-2.7,13.4,4,18.9
			c4.1,3.4,38.3,6.9,38.3,6.9l6.9-16.5l-27-10.6l4.2-36L135.6,177z"/>
		<path class="st4" d="M189,267.7l-18-18c-0.4-0.5-0.4-1.1,0-1.5l0,0c0.4-0.5,1.1-0.5,1.6,0l0,0l18,18c0.4,0.5,0.4,1.1,0,1.5l0,0
			C190.2,268.2,189.4,268.2,189,267.7C189,267.8,189,267.8,189,267.7z"/>
		<path class="st13" d="M163.7,250.5c0.1,0.1,7.9,0.4,10.3,0.9c2.4,0.5,8.1,2,9.9,3.2s5.5,6,4.6,6.7c-0.8,0.7-1.9,0.7-2.7,0
			c-0.5-0.5-4.9-3.9-4.9-3.9s-2.7-0.9-2.8-0.2c-0.1,0.7,6.7,4.4,5.6,6c-1,1.6-4,1.2-4,1.2s0.9,2.7-0.1,3.9c-0.9,1-2,1.6-3.2,2
			c0.5,1.2-0.2,2.7-1.4,3.1c-1.6,0.7-4-1-4-1l-10.4-5.2l-2.9-0.2L163.7,250.5z"/>
		<path class="st4" d="M124.1,262.1h0.2l0.5,0.1l1.8,0.3l6.8,1.1l24.1,4.3l-0.3,0.1c1.9-5.4,3.9-11.3,6.1-17.6l0.1,0.3l-5-2
			l-22.2-8.7l-0.2-0.1v-0.2c1.5-10,2.8-18.3,3.6-24.3c0.5-2.9,0.9-5.3,1-6.9c0.1-0.8,0.2-1.4,0.3-1.8c0-0.2,0.1-0.4,0.1-0.5
			c0-0.1,0-0.1,0.1-0.2c0,0,0,0.1,0,0.2v0.5c-0.1,0.5-0.1,1-0.2,1.8c-0.2,1.6-0.6,4-1,6.9c-0.9,6-2.1,14.4-3.4,24.4l-0.2-0.3
			l22.2,8.7l5,1.9l0.2,0.1l-0.1,0.2l-6.1,17.6l-0.1,0.2h-0.2l-24.1-4.4l-6.8-1.3l-1.8-0.4H124.1
			C124.1,262.1,124.1,262.1,124.1,262.1z"/>
		<path class="st4" d="M136.3,239.9c-1.8,0.4-3.5,1-5.2,1.8c-1.6,1-3,2.1-4.4,3.3C128.9,241.9,132.5,240,136.3,239.9z"/>
		<path class="st4" d="M140.6,194.5c-0.1,0,0-0.9-0.1-2.3c-0.1-1.8-0.5-3.6-1.1-5.4c-0.7-1.7-1.6-3.3-2.8-4.8
			c-0.9-1.1-1.5-1.7-1.5-1.8c0.7,0.4,1.2,1,1.7,1.5c1.2,1.4,2.3,3,2.9,4.8c0.7,1.8,1,3.6,1,5.5C140.9,193,140.8,193.8,140.6,194.5z"
			/>
		<path class="st4" d="M198.8,195.9c0.1,0,0.3,14.3,0.3,31.8s-0.1,31.8-0.3,31.8s-0.3-14.3-0.3-31.8S198.6,195.9,198.8,195.9z"/>
		<path class="st4" d="M182.2,172.7c-0.2,0.5-0.4,0.9-0.6,1.2c-0.5,0.9-1,2-1.7,3.3l-0.1,0.2l-0.2-0.2c-1.1-1.4-2.5-3.1-3.9-5.1
			l0.4-0.1l-3.2,8.5l-0.1,0.3l-0.3-0.1l-1-0.5c-5.3-2.8-10.1-5.3-13.5-7.2l-4.1-2.3c-0.5-0.3-1-0.6-1.4-0.9c0.6,0.2,1,0.4,1.6,0.7
			l4.2,2.1c3.5,1.8,8.3,4.3,13.6,7.1l1,0.5l-0.4,0.1c1.2-3,2.3-5.9,3.3-8.5l0.1-0.4l0.2,0.3l3.8,5.1h-0.3l1.9-3.2
			C181.7,173.4,181.9,173,182.2,172.7z"/>
	</g>
</g>
</svg>
