<svg xmlns="http://www.w3.org/2000/svg" width="532.001" height="323.703" viewBox="0 0 532.001 323.703"><defs><style>.a{fill:#f5f5f5;}.b{fill:#ebebeb;}.c{fill:#e0e0e0;}.d{fill:#fafafa;}.e,.r,.v{fill:#fff;}.f,.o,.p{fill:#263238;}.g{fill:#f24a46;}.h,.q{opacity:0.3;}.i{opacity:0.4;}.j,.s{fill:#455a64;}.k{opacity:0.6;}.l{fill:#ffbe9d;}.m{fill:#eb996e;}.n{fill:#e8e8e3;}.n,.p{font-size:5px;}.n,.s{font-family:Montserrat-Regular, Montserrat;}.n,.q,.r{isolation:isolate;}.o,.s{font-size:7px;}.o,.p{font-family:Montserrat-Bold, Montserrat;font-weight:700;}.r{opacity:0.5;}.t,.u{fill:none;}.t{stroke:#263238;stroke-width:0.475px;}.t,.u,.v{stroke-miterlimit:10;}.u,.v{stroke:#f24a46;stroke-width:0.967px;}.u{stroke-dasharray:5.799;}</style></defs><g transform="translate(-82.81 -112.197)"><g transform="translate(82.81 112.197)"><path class="a" d="M700,131.336c.45-3.231-4.115-5.89-7.536-6.165-1.638-.137-3.338.114-4.885-.427-3.353-1.166-4.694-5.5-7.963-6.858-2.446-1.036-5.266-.114-7.62,1.082s-4.717,2.7-7.369,2.865c-2.286.145-4.808-.709-6.858.419-1.524.838-2.286,2.568-3.673,3.589a8.667,8.667,0,0,1-4.808,1.3,13.523,13.523,0,0,0-4.953.808,3.884,3.884,0,0,0-2.477,3.978Z" transform="translate(-215.842 -113.444)"></path><rect class="a" width="64.406" height="204.113" transform="translate(52.693 75.432)"></rect><rect class="b" width="32.203" height="203.549" transform="translate(84.896 75.432)"></rect><rect class="a" width="22.746" height="20.041" transform="translate(60.047 55.399)"></rect><rect class="b" width="5.418" height="20.041" transform="translate(77.367 55.399)"></rect><path class="c" d="M144.92,210.823v-1.166h71.652v1.166" transform="translate(-97.591 -135.391)"></path><rect class="d" width="5.448" height="11.491" transform="translate(65.404 84.172)"></rect><path class="c" d="M184.163,243.608c0,.114-7.209.213-16.1.213s-16.1-.1-16.1-.213,7.209-.221,16.1-.221S184.163,243.478,184.163,243.608Z" transform="translate(-99.266 -143.418)"></path><rect class="c" width="5.448" height="11.491" transform="translate(97.888 84.172)"></rect><path class="c" d="M226.783,243.608c0,.114-7.209.213-16.1.213s-16.1-.1-16.1-.213,7.209-.221,16.1-.221S226.783,243.478,226.783,243.608Z" transform="translate(-109.409 -143.418)"></path><rect class="c" width="5.448" height="11.499" transform="translate(97.888 106.995)"></rect><path class="c" d="M226.783,273.548c0,.114-7.209.213-16.1.213s-16.1-.1-16.1-.213,7.209-.221,16.1-.221S226.783,273.426,226.783,273.548Z" transform="translate(-109.409 -150.543)"></path><rect class="c" width="5.448" height="11.491" transform="translate(97.888 130.503)"></rect><path class="c" d="M226.783,304.4c0,.122-7.209.221-16.1.221s-16.1-.1-16.1-.221,7.209-.221,16.1-.221S226.783,304.276,226.783,304.4Z" transform="translate(-109.409 -157.885)"></path><rect class="c" width="5.448" height="11.491" transform="translate(97.888 154.019)"></rect><path class="c" d="M226.783,335.248c0,.122-7.209.221-16.1.221s-16.1-.1-16.1-.221,7.209-.221,16.1-.221S226.783,335.126,226.783,335.248Z" transform="translate(-109.409 -165.227)"></path><rect class="c" width="5.448" height="11.491" transform="translate(97.888 176.856)"></rect><path class="c" d="M226.783,365.218c0,.122-7.209.221-16.1.221s-16.1-.1-16.1-.221,7.209-.221,16.1-.221S226.783,365.1,226.783,365.218Z" transform="translate(-109.409 -172.359)"></path><rect class="c" width="5.448" height="11.491" transform="translate(97.888 199.785)"></rect><rect class="c" width="5.448" height="11.491" transform="translate(97.888 223.011)"></rect><path class="c" d="M226.783,395.31c0,.122-7.209.221-16.1.221s-16.1-.1-16.1-.221,7.209-.213,16.1-.213S226.783,395.2,226.783,395.31Z" transform="translate(-109.409 -179.523)"></path><rect class="d" width="5.448" height="11.491" transform="translate(65.404 107.345)"></rect><path class="c" d="M184.163,274c0,.122-7.209.221-16.1.221s-16.1-.1-16.1-.221,7.209-.221,16.1-.221S184.163,273.876,184.163,274Z" transform="translate(-99.266 -150.65)"></path><rect class="d" width="5.448" height="11.491" transform="translate(65.404 130.51)"></rect><path class="c" d="M184.163,304.408c0,.122-7.209.221-16.1.221s-16.1-.1-16.1-.221,7.209-.221,16.1-.221S184.163,304.286,184.163,304.408Z" transform="translate(-99.266 -157.888)"></path><rect class="d" width="5.448" height="11.491" transform="translate(65.404 153.683)"></rect><path class="c" d="M184.163,334.818c0,.114-7.209.213-16.1.213s-16.1-.1-16.1-.213,7.209-.221,16.1-.221S184.163,334.7,184.163,334.818Z" transform="translate(-99.266 -165.125)"></path><rect class="d" width="5.448" height="11.491" transform="translate(65.404 176.856)"></rect><path class="c" d="M184.163,365.218c0,.122-7.209.221-16.1.221s-16.1-.1-16.1-.221,7.209-.221,16.1-.221S184.163,365.1,184.163,365.218Z" transform="translate(-99.266 -172.359)"></path><rect class="d" width="5.448" height="11.491" transform="translate(65.404 200.021)"></rect><path class="c" d="M184.163,395.608c0,.122-7.209.221-16.1.221s-16.1-.1-16.1-.221,7.209-.221,16.1-.221S184.163,395.5,184.163,395.608Z" transform="translate(-99.266 -179.592)"></path><rect class="d" width="5.448" height="11.491" transform="translate(65.404 223.194)"></rect><rect class="a" width="92.836" height="294.214" transform="translate(278.395 28.88)"></rect><rect class="b" width="46.414" height="293.406" transform="translate(324.809 28.88)"></rect><rect class="a" width="32.782" height="28.888" transform="translate(288.994)"></rect><rect class="b" width="7.811" height="28.888" transform="translate(313.965)"></rect><path class="c" d="M438,149.571v-1.684H541.283v1.684" transform="translate(-167.34 -120.69)"></path><rect class="d" width="7.856" height="16.566" transform="translate(296.721 41.484)"></rect><path class="c" d="M494.564,196.809c0,.175-10.386.32-23.2.32s-23.211-.145-23.211-.32,10.386-.312,23.211-.312S494.564,196.634,494.564,196.809Z" transform="translate(-169.755 -132.259)"></path><rect class="c" width="7.856" height="16.566" transform="translate(343.539 41.484)"></rect><path class="c" d="M556.012,196.809c0,.175-10.394.32-23.211.32s-23.211-.145-23.211-.32,10.394-.312,23.211-.312S556.012,196.634,556.012,196.809Z" transform="translate(-184.377 -132.259)"></path><rect class="c" width="7.856" height="16.566" transform="translate(343.539 74.38)"></rect><path class="c" d="M556.012,239.987c0,.175-10.394.312-23.211.312s-23.211-.137-23.211-.312,10.394-.32,23.211-.32S556.012,239.812,556.012,239.987Z" transform="translate(-184.377 -142.533)"></path><rect class="c" width="7.856" height="16.566" transform="translate(343.539 108.267)"></rect><path class="c" d="M556.012,284.457c0,.175-10.394.32-23.211.32s-23.211-.145-23.211-.32,10.394-.32,23.211-.32S556.012,284.282,556.012,284.457Z" transform="translate(-184.377 -153.116)"></path><rect class="c" width="7.856" height="16.566" transform="translate(343.539 142.162)"></rect><path class="c" d="M556.012,328.929c0,.175-10.394.32-23.211.32s-23.211-.145-23.211-.32,10.394-.312,23.211-.312S556.012,328.754,556.012,328.929Z" transform="translate(-184.377 -163.702)"></path><rect class="c" width="7.856" height="16.566" transform="translate(343.539 175.081)"></rect><path class="c" d="M556.012,372.137c0,.168-10.394.312-23.211.312s-23.211-.145-23.211-.312,10.394-.32,23.211-.32S556.012,371.962,556.012,372.137Z" transform="translate(-184.377 -173.982)"></path><rect class="c" width="7.856" height="16.566" transform="translate(343.539 208.129)"></rect><rect class="c" width="7.856" height="16.566" transform="translate(343.539 241.62)"></rect><path class="c" d="M556.012,415.509c0,.175-10.394.32-23.211.32s-23.211-.145-23.211-.32,10.394-.312,23.211-.312S556.012,415.334,556.012,415.509Z" transform="translate(-184.377 -184.306)"></path><rect class="d" width="7.856" height="16.566" transform="translate(296.721 74.883)"></rect><path class="c" d="M494.564,240.647c0,.168-10.386.312-23.2.312s-23.211-.145-23.211-.312,10.386-.32,23.211-.32S494.564,240.472,494.564,240.647Z" transform="translate(-169.755 -142.69)"></path><rect class="d" width="7.856" height="16.566" transform="translate(296.721 108.282)"></rect><path class="c" d="M494.564,284.477c0,.168-10.386.312-23.2.312s-23.211-.145-23.211-.312,10.386-.32,23.211-.32S494.564,284.3,494.564,284.477Z" transform="translate(-169.755 -153.121)"></path><rect class="d" width="7.856" height="16.566" transform="translate(296.721 141.681)"></rect><path class="c" d="M494.564,328.307c0,.168-10.386.312-23.2.312s-23.211-.145-23.211-.312,10.386-.32,23.211-.32S494.564,328.132,494.564,328.307Z" transform="translate(-169.755 -163.552)"></path><rect class="d" width="7.856" height="16.566" transform="translate(296.721 175.081)"></rect><path class="c" d="M494.564,372.137c0,.168-10.386.312-23.2.312s-23.211-.145-23.211-.312,10.386-.32,23.211-.32S494.564,371.962,494.564,372.137Z" transform="translate(-169.755 -173.982)"></path><rect class="d" width="7.856" height="16.566" transform="translate(296.721 208.48)"></rect><path class="c" d="M494.564,415.967c0,.175-10.386.312-23.2.312s-23.211-.137-23.211-.312,10.386-.32,23.211-.32S494.564,415.792,494.564,415.967Z" transform="translate(-169.755 -184.413)"></path><rect class="d" width="7.856" height="16.566" transform="translate(296.721 241.879)"></rect><rect class="a" width="50.72" height="160.739" transform="translate(353.27 162.347)"></rect><rect class="b" width="25.36" height="160.298" transform="translate(378.63 162.347)"></rect><rect class="a" width="17.907" height="15.781" transform="translate(359.062 146.566)"></rect><rect class="b" width="4.267" height="15.781" transform="translate(372.702 146.566)"></rect><path class="c" d="M540.86,324.959v-.922h56.435v.922" transform="translate(-191.819 -162.611)"></path><rect class="d" width="4.29" height="9.053" transform="translate(363.283 169.228)"></rect><path class="c" d="M571.77,350.772c0,.091-5.677.168-12.68.168s-12.68-.076-12.68-.168,5.677-.175,12.68-.175S571.77,350.658,571.77,350.772Z" transform="translate(-193.14 -168.932)"></path><rect class="c" width="4.29" height="9.053" transform="translate(388.864 169.228)"></rect><path class="c" d="M605.34,350.772c0,.091-5.677.168-12.68.168s-12.68-.076-12.68-.168,5.677-.175,12.68-.175S605.34,350.658,605.34,350.772Z" transform="translate(-201.129 -168.932)"></path><rect class="c" width="4.29" height="9.053" transform="translate(388.864 187.204)"></rect><path class="c" d="M605.34,374.352c0,.1-5.677.175-12.68.175s-12.68-.076-12.68-.175,5.677-.175,12.68-.175S605.34,374.261,605.34,374.352Z" transform="translate(-201.129 -174.544)"></path><rect class="c" width="4.29" height="9.053" transform="translate(388.864 205.721)"></rect><path class="c" d="M605.34,398.622c0,.091-5.677.175-12.68.175s-12.68-.084-12.68-.175,5.677-.175,12.68-.175S605.34,398.546,605.34,398.622Z" transform="translate(-201.129 -180.32)"></path><rect class="c" width="4.29" height="9.053" transform="translate(388.864 224.231)"></rect><path class="c" d="M605.34,422.952c0,.091-5.677.168-12.68.168s-12.68-.076-12.68-.168,5.677-.175,12.68-.175S605.34,422.853,605.34,422.952Z" transform="translate(-201.129 -186.11)"></path><rect class="c" width="4.29" height="9.053" transform="translate(388.864 242.222)"></rect><path class="c" d="M605.34,446.552c0,.1-5.677.175-12.68.175s-12.68-.076-12.68-.175,5.677-.175,12.68-.175S605.34,446.453,605.34,446.552Z" transform="translate(-201.129 -191.727)"></path><rect class="c" width="4.29" height="9.053" transform="translate(388.864 260.281)"></rect><rect class="c" width="4.29" height="9.053" transform="translate(388.864 278.57)"></rect><path class="c" d="M605.34,470.252c0,.091-5.677.168-12.68.168s-12.68-.076-12.68-.168,5.677-.175,12.68-.175S605.34,470.153,605.34,470.252Z" transform="translate(-201.129 -197.367)"></path><rect class="d" width="4.29" height="9.053" transform="translate(363.283 187.479)"></rect><path class="c" d="M571.77,374.712c0,.1-5.677.175-12.68.175s-12.68-.076-12.68-.175,5.677-.175,12.68-.175S571.77,374.644,571.77,374.712Z" transform="translate(-193.14 -174.63)"></path><rect class="d" width="4.29" height="9.053" transform="translate(363.283 205.729)"></rect><path class="c" d="M571.77,398.622c0,.091-5.677.168-12.68.168s-12.68-.076-12.68-.168,5.677-.175,12.68-.175S571.77,398.554,571.77,398.622Z" transform="translate(-193.14 -180.32)"></path><rect class="d" width="4.29" height="9.053" transform="translate(363.283 223.971)"></rect><path class="c" d="M571.77,422.625c0,.1-5.677.175-12.68.175s-12.68-.076-12.68-.175,5.677-.168,12.68-.168S571.77,422.518,571.77,422.625Z" transform="translate(-193.14 -186.034)"></path><rect class="d" width="4.29" height="9.053" transform="translate(363.283 242.222)"></rect><path class="c" d="M571.77,446.552c0,.1-5.677.175-12.68.175s-12.68-.076-12.68-.175,5.677-.175,12.68-.175S571.77,446.453,571.77,446.552Z" transform="translate(-193.14 -191.727)"></path><rect class="d" width="4.29" height="9.053" transform="translate(363.283 260.464)"></rect><path class="c" d="M571.77,470.5c0,.091-5.677.168-12.68.168s-12.68-.076-12.68-.168,5.677-.175,12.68-.175S571.77,470.4,571.77,470.5Z" transform="translate(-193.14 -197.426)"></path><rect class="d" width="4.29" height="9.053" transform="translate(363.283 278.715)"></rect><rect class="c" width="54.606" height="103.634" transform="translate(95.023 219.46)"></rect><rect class="b" width="25.604" height="103.634" transform="translate(124.026 219.46)"></rect><rect class="a" width="4.907" height="11.926" transform="translate(106.476 229.207)"></rect><rect class="a" width="4.907" height="11.926" transform="translate(106.476 275.895)"></rect><path class="a" d="M236.527,434.73c0,.107-6.492.183-14.478.183s-14.478-.076-14.478-.183,6.492-.183,14.478-.183S236.527,434.646,236.527,434.73Z" transform="translate(-112.501 -188.911)"></path><rect class="a" width="4.907" height="11.926" transform="translate(106.476 252.73)"></rect><path class="a" d="M236.527,465.618c0,.1-6.492.183-14.478.183s-14.478-.084-14.478-.183,6.492-.19,14.478-.19S236.527,465.5,236.527,465.618Z" transform="translate(-112.501 -196.26)"></path><rect class="c" width="4.907" height="11.926" transform="translate(129.466 229.207)"></rect><rect class="c" width="4.907" height="11.926" transform="translate(140.119 229.207)"></rect><rect class="c" width="4.907" height="11.926" transform="translate(129.466 251.846)"></rect><rect class="c" width="4.907" height="11.926" transform="translate(140.119 251.846)"></rect><rect class="c" width="4.907" height="11.926" transform="translate(129.466 274.478)"></rect><rect class="c" width="4.907" height="11.926" transform="translate(140.119 274.478)"></rect><rect class="c" width="62.813" height="2.598" transform="translate(90.924 216.953)"></rect><path class="b" d="M262.645,400.618c0,.1-12.192.183-27.257.183s-27.257-.084-27.257-.183,12.192-.191,27.257-.191S262.645,400.48,262.645,400.618Z" transform="translate(-112.634 -180.791)"></path><path class="b" d="M180.745,492.691H92.808L92.42,353.707h87.944Z" transform="translate(-85.097 -169.672)"></path><rect class="c" width="43.968" height="138.984" transform="translate(51.299 184.034)"></rect><rect class="b" width="31.052" height="27.364" transform="translate(17.366 156.67)"></rect><rect class="c" width="7.399" height="27.364" transform="translate(41.019 156.67)"></rect><rect class="c" width="97.843" height="1.593" transform="translate(0 182.434)"></rect><rect class="e" width="7.445" height="15.698" transform="translate(24.682 195.967)"></rect><path class="c" d="M136.4,397.959c0,.168-9.845.3-21.984.3s-21.992-.13-21.992-.3,9.845-.282,21.992-.282S136.4,397.791,136.4,397.959Z" transform="translate(-85.097 -180.137)"></path><rect class="a" width="7.445" height="15.698" transform="translate(69.039 195.967)"></rect><path class="b" d="M194.6,397.954c0,.168-9.845.3-21.984.3s-21.984-.13-21.984-.3,9.838-.3,21.984-.3S194.6,397.787,194.6,397.954Z" transform="translate(-98.95 -180.132)"></path><rect class="a" width="7.445" height="15.698" transform="translate(69.039 227.126)"></rect><path class="b" d="M194.6,438.852c0,.16-9.845.3-21.984.3s-21.984-.137-21.984-.3,9.838-.3,21.984-.3S194.6,438.684,194.6,438.852Z" transform="translate(-98.95 -189.863)"></path><rect class="a" width="7.445" height="15.698" transform="translate(69.039 259.23)"></rect><path class="b" d="M194.6,480.982c0,.16-9.845.3-21.984.3s-21.984-.137-21.984-.3,9.838-.3,21.984-.3S194.6,480.814,194.6,480.982Z" transform="translate(-98.95 -199.889)"></path><rect class="a" width="7.445" height="15.698" transform="translate(69.039 291.334)"></rect><path class="b" d="M194.6,523.1c0,.168-9.845.3-21.984.3s-21.984-.137-21.984-.3,9.838-.3,21.984-.3S194.6,522.944,194.6,523.1Z" transform="translate(-98.95 -209.916)"></path><rect class="e" width="7.445" height="15.698" transform="translate(24.682 227.606)"></rect><path class="c" d="M136.4,439.474c0,.168-9.845.3-21.984.3s-21.992-.13-21.992-.3,9.845-.3,21.992-.3S136.4,439.307,136.4,439.474Z" transform="translate(-85.097 -190.013)"></path><rect class="e" width="7.445" height="15.698" transform="translate(24.682 259.245)"></rect><path class="c" d="M136.4,480.989c0,.168-9.845.3-21.984.3s-21.992-.13-21.992-.3,9.845-.312,21.992-.312S136.4,480.822,136.4,480.989Z" transform="translate(-85.097 -199.889)"></path><rect class="e" width="7.445" height="15.698" transform="translate(24.682 290.884)"></rect><path class="c" d="M136.4,522.514c0,.168-9.845.3-21.984.3s-21.992-.13-21.992-.3,9.845-.3,21.992-.3S136.4,522.347,136.4,522.514Z" transform="translate(-85.097 -209.775)"></path><path class="a" d="M729.423,247.465c.632-4.618-5.883-8.382-10.783-8.809-2.332-.191-4.763.168-6.972-.6-4.793-1.669-6.706-7.864-11.385-9.838-3.5-1.478-7.529-.16-10.912,1.524s-6.744,3.848-10.531,4.092c-3.292.213-6.858-1.013-9.754.6-2.149,1.2-3.277,3.673-5.258,5.136s-4.458,1.73-6.858,1.859-4.892.152-7.079,1.158-4,3.315-3.543,5.677Z" transform="translate(-216.906 -139.655)"></path><rect class="b" width="70.745" height="50.857" transform="translate(461.255 272.23)"></rect><path class="a" d="M711.385,469.447c.107,0,0,10.737,0,10.737H706.15V469.447Z" transform="translate(-231.155 -197.217)"></path><rect class="c" width="35.373" height="50.857" transform="translate(496.628 272.23)"></rect><rect class="e" width="9.472" height="6.698" transform="translate(463.412 313.135)"></rect><rect class="e" width="4.732" height="6.698" transform="translate(474.636 313.135)"></rect><rect class="b" width="46.064" height="33.117" transform="translate(479.216 239.113)"></rect><path class="a" d="M726.844,425.987c.061,0,0,7,0,7H723.43v-7Z" transform="translate(-235.268 -186.874)"></path><rect class="c" width="23.028" height="33.117" transform="translate(502.252 239.113)"></rect><rect class="e" width="6.165" height="4.366" transform="translate(480.626 265.745)"></rect><rect class="e" width="3.086" height="4.366" transform="translate(487.926 265.745)"></rect><path class="b" d="M139.541,133.658c.358-2.614-3.33-4.77-6.1-4.991a15.865,15.865,0,0,1-3.955-.343c-2.713-.945-3.81-4.45-6.447-5.57-1.981-.838-4.26-.091-6.18.876s-3.81,2.179-5.959,2.286c-1.867.122-3.894-.572-5.525.343-1.219.678-1.859,2.08-2.979,2.9a7.123,7.123,0,0,1-3.894,1.067,10.724,10.724,0,0,0-4.008.655,3.141,3.141,0,0,0-2.012,3.216Z" transform="translate(-85.102 -114.623)"></path><path class="b" d="M757.9,203.416c.351-2.553-3.246-4.648-5.951-4.869a15.464,15.464,0,0,1-3.856-.328c-2.644-.93-3.7-4.351-6.287-5.441-1.928-.808-4.153-.084-6.028.853s-3.726,2.134-5.814,2.286c-1.821.122-3.81-.556-5.387.335-1.189.663-1.806,2.027-2.9,2.835a7,7,0,0,1-3.81,1.029,10.56,10.56,0,0,0-3.909.64A3.078,3.078,0,0,0,712,203.888Z" transform="translate(-232.538 -131.291)"></path><path class="a" d="M233.7,151.993c.655-4.778-6.1-8.71-11.148-9.144-2.423-.191-4.93.175-7.216-.617-4.961-1.73-6.942-8.138-11.781-10.181-3.62-1.524-7.78-.168-11.285,1.6s-6.972,3.985-10.889,4.237c-3.414.221-7.11-1.044-10.1.617-2.217,1.242-3.383,3.81-5.433,5.334s-4.61,1.791-7.1,1.928-5.06.16-7.323,1.2-4.13,3.429-3.665,5.875Z" transform="translate(-98.249 -116.764)"></path></g><g transform="translate(94.857 435.086)"><path class="f" d="M618.314,536.125c0,.114-116.36.2-259.847.2s-259.847-.084-259.847-.2,116.337-.2,259.885-.2S618.314,536.018,618.314,536.125Z" transform="translate(-98.62 -535.927)"></path></g><g transform="translate(248.19 402.57)"><path class="g" d="M309.834,493.257a6.172,6.172,0,0,1,3.9,2.858,10.838,10.838,0,0,1,1.471,4.7c.335,3.193-.762,6.729-2.1,9.632-3.124-1.715-4.572-5.57-5.235-7.574-.991-3.17-.861-9.5,1.966-9.617" transform="translate(-301.617 -493.257)"></path><path class="g" d="M320.254,519.18a5.288,5.288,0,0,1,.587-5.266,7.01,7.01,0,0,1,4.7-2.682,2.924,2.924,0,0,1,2.431.511,2.287,2.287,0,0,1,.526,2.225,4.643,4.643,0,0,1-1.3,1.989c-1.958,1.92-4.206,3.429-6.95,3.223" transform="translate(-304.592 -497.516)"></path><path class="f" d="M318.7,530.552a3.154,3.154,0,0,1-.053-.655c0-.472-.038-1.074-.061-1.8a18.527,18.527,0,0,1,.572-5.921A11.235,11.235,0,0,1,322.2,517.1a7.66,7.66,0,0,1,1.455-1.067,3.268,3.268,0,0,1,.442-.221c.1-.046.152-.069.16-.061a12.139,12.139,0,0,0-1.951,1.471,11.7,11.7,0,0,0-2.926,5.029,19.626,19.626,0,0,0-.625,5.852v1.8A3.443,3.443,0,0,1,318.7,530.552Z" transform="translate(-304.291 -498.609)"></path><path class="f" d="M311.073,499.617a1.253,1.253,0,0,1,.091.267c.061.206.13.472.221.762.191.693.457,1.692.762,2.934.632,2.477,1.455,5.906,2.286,9.723s1.486,7.277,1.936,9.8c.221,1.257.4,2.286.5,2.979.053.335.091.61.122.815a2.047,2.047,0,0,1,0,.29,1.206,1.206,0,0,1-.076-.282c-.046-.206-.1-.472-.168-.808-.137-.724-.335-1.737-.572-2.964-.488-2.507-1.181-5.974-2-9.784s-1.623-7.247-2.21-9.731c-.29-1.227-.526-2.225-.693-2.949l-.183-.762A1.274,1.274,0,0,1,311.073,499.617Z" transform="translate(-302.513 -494.771)"></path><path class="g" d="M311.387,523.13a12.344,12.344,0,0,0-8.519-7.376c-.968-.229-2.172-.251-2.751.564s-.152,1.943.4,2.774a10.539,10.539,0,0,0,10.866,4.313" transform="translate(-299.84 -498.578)"></path><path class="f" d="M305.223,519.557a2.868,2.868,0,0,1,.61.114,6.807,6.807,0,0,1,.7.2c.274.1.587.175.914.328a10.6,10.6,0,0,1,1.067.488,11.568,11.568,0,0,1,1.166.671,13.529,13.529,0,0,1,2.378,1.974,13.331,13.331,0,0,1,1.829,2.492,11.6,11.6,0,0,1,.587,1.212,11.254,11.254,0,0,1,.411,1.1,9.19,9.19,0,0,1,.244.937,4.754,4.754,0,0,1,.137.716,3.113,3.113,0,0,1,.069.617c-.053,0-.152-.876-.61-2.217a10.62,10.62,0,0,0-.427-1.075,10.957,10.957,0,0,0-.6-1.181,13.527,13.527,0,0,0-1.806-2.438,14.066,14.066,0,0,0-2.286-1.951,12.51,12.51,0,0,0-1.143-.686c-.358-.206-.716-.358-1.036-.5C306.076,519.786,305.208,519.6,305.223,519.557Z" transform="translate(-301.121 -499.516)"></path></g><g transform="translate(536.518 382.516)"><path class="g" d="M689.9,518.857a3.391,3.391,0,0,0-1.265-3.048A8.362,8.362,0,0,1,686.4,513.2c-.693-1.737.236-3.985-.945-5.433-.693-.853-1.935-1.143-2.553-2.05a4.664,4.664,0,0,1-.556-1.631,16.522,16.522,0,0,0-4.115-7.689,14.415,14.415,0,0,0,1.615,7.414,9.389,9.389,0,0,1,1.212,2.85c.259,1.654-.663,3.353-.259,4.976.465,1.852,2.545,3.094,2.644,5,.084,1.615-1.326,3.048-1.219,4.648a4.444,4.444,0,0,0,.716,1.913,6.416,6.416,0,0,0,5.86,3.452l3.406.122Z" transform="translate(-678.216 -473.951)"></path><g class="h" transform="translate(0 22.449)"><path d="M689.9,518.857a3.391,3.391,0,0,0-1.265-3.048A8.362,8.362,0,0,1,686.4,513.2c-.693-1.737.236-3.985-.945-5.433-.693-.853-1.935-1.143-2.553-2.05a4.664,4.664,0,0,1-.556-1.631,16.522,16.522,0,0,0-4.115-7.689,14.415,14.415,0,0,0,1.615,7.414,9.389,9.389,0,0,1,1.212,2.85c.259,1.654-.663,3.353-.259,4.976.465,1.852,2.545,3.094,2.644,5,.084,1.615-1.326,3.048-1.219,4.648a4.444,4.444,0,0,0,.716,1.913,6.416,6.416,0,0,0,5.86,3.452l3.406.122Z" transform="translate(-678.216 -496.4)"></path></g><path class="f" d="M696.959,523.2a2.689,2.689,0,0,0,.937,0,5.8,5.8,0,0,0,1.1-.274,4.735,4.735,0,0,0,1.364-.762,1.881,1.881,0,0,0,.564-.762,3.662,3.662,0,0,0,.16-1.013,9.252,9.252,0,0,1,.084-1.1,2.887,2.887,0,0,1,.412-1.09,8.24,8.24,0,0,0,1.28-2.332,7.618,7.618,0,0,0-.091-2.979,6.344,6.344,0,0,1,.084-3.2c.366-1.059,1.1-2.027,1.478-3.223a16.485,16.485,0,0,0,.282-3.81,5.009,5.009,0,0,1,.442-1.89c.274-.6.655-1.166.953-1.8a12.968,12.968,0,0,0,.876-4.161c.084-.716.168-1.44.244-2.172a10.517,10.517,0,0,1,.381-2.179,17.246,17.246,0,0,1,.815-2.1,8.156,8.156,0,0,0,.4-1.1c.061-.4.084-.762.107-1.166a13.5,13.5,0,0,0-.091-2.355c-.091-.762-.236-1.57-.32-2.355v-.29l-.137.069a5.234,5.234,0,0,0-1.836,1.524,8.288,8.288,0,0,0-1.12,2.073,24.925,24.925,0,0,0-1.059,4.458,12.234,12.234,0,0,1-1.4,4.115c-.373.6-.823,1.158-1.219,1.745a4.833,4.833,0,0,0-.846,1.943c-.2,1.44.594,2.705.427,3.978a4.3,4.3,0,0,1-.617,1.768,17.111,17.111,0,0,1-1.021,1.524,9.512,9.512,0,0,0-.907,1.57,4.842,4.842,0,0,0-.419,1.707c-.084,1.143.076,2.233,0,3.261a7.488,7.488,0,0,1-.838,2.8c-.411.838-.869,1.593-1.25,2.286a11.675,11.675,0,0,0-.518,1.09,5.3,5.3,0,0,0-.3,1.074,6.7,6.7,0,0,0,0,1.943,4.958,4.958,0,0,0,.975,2.477,3.857,3.857,0,0,0,.274.3,1.559,1.559,0,0,0,.229.19l.191.137a4.593,4.593,0,0,1-.655-.655,4.876,4.876,0,0,1-.93-2.461,6.814,6.814,0,0,1,.046-1.913,5.608,5.608,0,0,1,.3-1.052,11.186,11.186,0,0,1,.518-1.067c.381-.762.846-1.478,1.265-2.324a7.619,7.619,0,0,0,.869-2.842c.091-1.052-.069-2.149,0-3.269a4.714,4.714,0,0,1,.411-1.646,9.275,9.275,0,0,1,.9-1.524c.343-.5.709-1.006,1.029-1.562a4.491,4.491,0,0,0,.648-1.836c.168-1.364-.617-2.637-.419-3.97a4.673,4.673,0,0,1,.823-1.859c.381-.579.838-1.128,1.219-1.753a12.2,12.2,0,0,0,1.433-4.183,25.7,25.7,0,0,1,1.052-4.42,8.233,8.233,0,0,1,1.1-2.019,4.969,4.969,0,0,1,1.753-1.478l-.152-.091v.137c.084.8.229,1.577.32,2.355a13.891,13.891,0,0,1,.084,2.286,9.145,9.145,0,0,1-.1,1.135,7.086,7.086,0,0,1-.381,1.067,17.48,17.48,0,0,0-.823,2.126,10.644,10.644,0,0,0-.381,2.21c-.084.762-.168,1.463-.244,2.179a12.834,12.834,0,0,1-.853,4.092c-.282.617-.663,1.189-.953,1.814a5.2,5.2,0,0,0-.45,1.958,16.678,16.678,0,0,1-.259,3.757c-.351,1.158-1.1,2.126-1.471,3.223a6.479,6.479,0,0,0-.076,3.277,7.643,7.643,0,0,1,.114,2.926,8.286,8.286,0,0,1-1.257,2.286,3.047,3.047,0,0,0-.419,1.135,9.686,9.686,0,0,0-.076,1.112,3.412,3.412,0,0,1-.145.991,1.854,1.854,0,0,1-.526.716,4.684,4.684,0,0,1-1.333.762,5.785,5.785,0,0,1-1.09.29,3.409,3.409,0,0,1-.693.069Z" transform="translate(-682.279 -470.305)"></path><path class="f" d="M708.188,483.75a.819.819,0,0,0,0,.107l-.076.3c-.069.267-.145.671-.274,1.181s-.442,1.067-.709,1.776a23.816,23.816,0,0,0-.808,2.408c-.259.914-.488,1.92-.762,2.995a12.431,12.431,0,0,1-1.09,3.33c-.274.549-.594,1.113-.838,1.722a7.974,7.974,0,0,0-.5,1.951,38.907,38.907,0,0,1-.762,4.115c-.678,2.789-1.334,5.448-1.92,7.864s-1.158,4.572-1.615,6.416-.815,3.284-1.067,4.328c-.122.5-.213.892-.282,1.174l-.069.312a.623.623,0,0,0,0,.107.25.25,0,0,1,.038-.107l.091-.3c.076-.29.183-.678.32-1.174.267-1.036.655-2.5,1.135-4.305s1.029-4,1.654-6.4,1.257-5.075,1.943-7.864a40.164,40.164,0,0,0,.762-4.138,8.194,8.194,0,0,1,.472-1.905c.244-.594.549-1.151.831-1.715a12.717,12.717,0,0,0,1.082-3.368c.236-1.082.457-2.088.7-2.995s.518-1.715.762-2.416.549-1.273.671-1.8.183-.914.236-1.189l.069-.328Z" transform="translate(-682.786 -470.941)"></path><path class="g" d="M694.439,519.847c2.225-1.318,2.858-5.334,1.935-7.742s-2.553-4.618-2.8-7.193c-.19-1.981.457-4.008,0-5.944-.617-2.606-3.162-4.625-3.139-7.308,0-1.524.876-2.926.808-4.427-.084-1.844-1.524-3.307-2.378-4.93-1.341-2.492-1.425-5.426-1.89-8.215s-1.524-5.776-3.993-7.148c-.358,2.37-.983,3.993-.762,7.193.076,1.158,1.41,3.36,1.593,5.883.107,1.524.183,3.048.274,4.526a14.682,14.682,0,0,0,.716,4.344c.4,1.052,1.052,2.012,1.349,3.094.564,2.05-.175,4.267.282,6.34.381,1.753,1.6,3.261,1.844,5.045.35,2.5-1.265,5.1-.442,7.483.411,1.189,1.387,2.141,1.661,3.36.221.953,0,1.951.175,2.9.313,1.524,3.246,2.728,4.808,2.637" transform="translate(-679.157 -466.94)"></path><path class="f" d="M684.031,470.03v.13l.053.389c.046.343.107.846.221,1.524a17.37,17.37,0,0,0,.762,2.286,28.913,28.913,0,0,1,.815,3.048c.251,1.143.465,2.4.686,3.757a15.513,15.513,0,0,0,1.143,4.252c.3.716.655,1.425.922,2.179A9.9,9.9,0,0,1,689.1,490a48.8,48.8,0,0,0,.655,5.174c.678,3.505,1.326,6.858,1.92,9.906s1.181,5.753,1.654,8.054.861,4.13,1.135,5.426c.13.625.236,1.12.312,1.471l.091.381.038.13a.729.729,0,0,0,0-.13l-.069-.389c-.069-.351-.16-.853-.274-1.486-.259-1.3-.625-3.147-1.067-5.433s-1.044-5.1-1.646-8.146-1.227-6.378-1.905-9.906a50.4,50.4,0,0,1-.655-5.159,10.124,10.124,0,0,0-.48-2.454c-.274-.762-.625-1.486-.937-2.187a15.879,15.879,0,0,1-1.151-4.206c-.229-1.356-.45-2.621-.716-3.764a31.22,31.22,0,0,0-.846-3.048c-.282-.884-.632-1.615-.762-2.286s-.2-1.151-.267-1.486a1.916,1.916,0,0,0-.069-.381A.454.454,0,0,0,684.031,470.03Z" transform="translate(-679.6 -467.675)"></path></g><rect class="g" width="338.388" height="33.818" transform="translate(145.691 334.713)"></rect><g class="i" transform="translate(145.691 334.713)"><rect width="338.388" height="33.818" transform="translate(0)"></rect></g><rect class="j" width="99.885" height="31.319" transform="translate(310.881 372.798)"></rect><path class="f" d="M290.51,435.6V477h34.108l13.671-19.812H587.322V435.6Z" transform="translate(-49.429 -76.964)"></path><path class="g" d="M242.185,262.807a2.545,2.545,0,0,0-2.637-2.4c-13.48.556-77.474,3.49-90.634,9.815-10.074,4.846-21.108,22.937-28.888,35.121-5.578,8.733-17.9,28.118-20.392,38.032-2.111,8.382-3.383,25.817-3.239,34.466l3.521,45.767h58l5.807-15.118a25.526,25.526,0,0,1,23.828-16.36H245.18v-75.95Z" transform="translate(-3.231 -35.271)"></path><path class="j" d="M143.22,279.937c-7.986,7.62-16,20.574-22.015,30.054-5.166,8.085-16.109,25.3-19.683,35.678-.069.19-.122.373-.183.564,1.768-.488,4.488-1.486,5.334-3.162,1.273-2.538,2.9-11.232,23.066-44.052C135.867,289.013,141.841,283.16,143.22,279.937Z" transform="translate(-4.41 -39.92)"></path><path class="f" d="M218.47,275.483c-14.829.846-46.978,3.048-57.25,6.538-13.381,4.572-28.4,40-29.109,41.553l-10.12,25.909a1.128,1.128,0,0,0,1.067,1.486h26.16a8.39,8.39,0,0,0,2.9-.518l68.8-25.649a7.957,7.957,0,0,0,5.174-7.453V282.7a7.225,7.225,0,0,0-7.221-7.228Q218.674,275.472,218.47,275.483Z" transform="translate(-9.311 -38.857)"></path><path class="j" d="M125.84,349.22s9.693-21.74,12.954-28.865c4.923-10.76,16.421-32.767,24.186-35.136,7.14-2.141,27.669-4.747,56.564-6.4h.274A4.694,4.694,0,0,1,224.5,283.5v35.434a4.306,4.306,0,0,1-2.789,4.016l-50.834,6.271a14.149,14.149,0,0,0-10.1,6.279l-8.809,13.434a4.661,4.661,0,0,1-1.615.29Z" transform="translate(-10.241 -39.653)"></path><path class="f" d="M177.122,331.272,159.84,350.52l9.563-63.91,2.393-.823-4.709,47.344a1.395,1.395,0,0,0,1.905,1.425Z" transform="translate(-18.332 -41.312)"></path><path class="b" d="M94.907,419.6c-.061-.831.221-1.524.648-1.524l9.266-.853c.762-.076,1.471,1.364,1.562,3.048l.419,7.11c.069,1.143-.274,2.111-.762,2.195l-9.449,1.631c-.427.076-.838-.556-.9-1.395Z" transform="translate(-2.877 -72.592)"></path><rect class="f" width="66.768" height="26.77" transform="translate(92.022 380.228)"></rect><circle class="f" cx="36.531" cy="36.531" r="36.531" transform="translate(165.426 361.923)"></circle><path class="f" d="M191.269,487.027a.43.43,0,0,1,0,.1,36.531,36.531,0,0,0,73.054,1.052v-.091Z" transform="translate(-25.811 -89.204)"></path><path class="d" d="M205.539,479.465A25.649,25.649,0,1,0,231.564,454.2h-.01A25.649,25.649,0,0,0,205.539,479.465Z" transform="translate(-29.207 -81.39)"></path><path class="c" d="M231.555,454.2a25.649,25.649,0,0,0-26.015,25.268l51.291.762A25.657,25.657,0,0,0,231.555,454.2Z" transform="translate(-29.208 -81.39)"></path><path class="f" d="M218.7,482.739a15.621,15.621,0,1,0,15.846-15.393h0A15.62,15.62,0,0,0,218.7,482.739Z" transform="translate(-32.339 -84.52)"></path><rect class="f" width="15.141" height="36.34" rx="7.571" transform="translate(122.061 259.83)"></rect><path class="f" d="M125.862,368.947H125.1V330.518a6.919,6.919,0,0,1,6.911-6.911h1.829v.762h-1.829a6.156,6.156,0,0,0-6.149,6.149Z" transform="translate(-10.064 -50.312)"></path><path class="f" d="M132.247,370.449l-2.118-35.929a4.572,4.572,0,0,1,4.345-4.789l.174,0v.762a3.764,3.764,0,0,0-3.764,3.765c0,.073,0,.147.007.22l2.118,35.937Z" transform="translate(-11.26 -51.769)"></path><rect class="f" width="10.272" height="11.895" transform="translate(113.115 315.175)"></rect><rect class="f" width="4.176" height="0.762" transform="translate(115.416 292.596)"></rect><path class="f" d="M161.383,274.73l.907-.122,2.675-.312,10.363-1.2,38.634-4.4c2.057-.221,4.153-.5,6.325-.686a11.863,11.863,0,0,1,3.315.213,12.866,12.866,0,0,1,3.178,1.2,11.851,11.851,0,0,1,4.808,5,11.146,11.146,0,0,1,1.1,3.437,13.243,13.243,0,0,1,.16,1.829V387.241H192.717a42.624,42.624,0,0,0-6.858.328A26.615,26.615,0,0,0,164.8,404.387a20.768,20.768,0,0,0-.831,2.492,21.206,21.206,0,0,0-.587,2.553l-.2,1.3-.091.648-.038.648-.061,1.3v.732c.168-.168-.236.259-.206.213H111.89V354.33a35.185,35.185,0,0,1,.259-3.6,36.142,36.142,0,0,1,4.313-13.122q3.147-5.921,6.1-11.43l10.805-20.247,8.771-16.437q.96-1.791,1.844-3.467c.3-.549.572-1.1.892-1.623a15.873,15.873,0,0,1,1.029-1.463,21.6,21.6,0,0,1,4.618-4.29,23.271,23.271,0,0,1,7.9-3.437,20.189,20.189,0,0,1,2.949-.48l-.762.114c-.5.076-1.227.206-2.187.427a23.361,23.361,0,0,0-7.849,3.475,21.437,21.437,0,0,0-4.572,4.29,13.511,13.511,0,0,0-1.013,1.448c-.312.5-.579,1.067-.884,1.623l-1.836,3.475-8.695,16.452c-3.261,6.142-6.858,12.916-10.744,20.262l-6.1,11.43a35.732,35.732,0,0,0-4.26,13.023,34.586,34.586,0,0,0-.251,3.574v59.719l-.191-.183h50.7c.053-.038-.366.366-.191.183V413.3l.069-1.326v-.655l.1-.655.2-1.318a21.543,21.543,0,0,1,.594-2.591,20.966,20.966,0,0,1,.846-2.53,27.035,27.035,0,0,1,21.375-17.069,43.524,43.524,0,0,1,6.858-.328h39.952l-.2.19V281.512a21.849,21.849,0,0,0-.152-3.62,10.92,10.92,0,0,0-1.074-3.36,11.435,11.435,0,0,0-4.686-4.877,12.182,12.182,0,0,0-3.094-1.181,11.641,11.641,0,0,0-3.239-.221c-2.157.183-4.267.457-6.317.678l-38.627,4.275-10.371,1.135-2.675.282Z" transform="translate(-6.921 -37.074)"></path><path class="f" d="M248.182,384.6a2.845,2.845,0,0,0,.594-.091,4.2,4.2,0,0,0,1.57-.625,3.976,3.976,0,0,0,1.593-2.073,4.416,4.416,0,0,0,.206-1.646,4.012,4.012,0,0,0-.465-1.768,3.947,3.947,0,0,0-3.429-2.1H231.7a3.908,3.908,0,0,0-3.879,3.467,4.351,4.351,0,0,0,.48,2.629,3.91,3.91,0,0,0,1.905,1.692,5.953,5.953,0,0,0,2.484.3h6.82l6.348.061h1.73a2.991,2.991,0,0,1,.594.046,5.362,5.362,0,0,1-.594.038h-1.73l-6.348.061H231.4a4.584,4.584,0,0,1-1.334-.3,4.3,4.3,0,0,1-2.088-1.844,4.732,4.732,0,0,1-.533-2.858,4.29,4.29,0,0,1,4.252-3.81h16.551a4.229,4.229,0,0,1,4.145,4.183,4.683,4.683,0,0,1-.251,1.715,4.151,4.151,0,0,1-1.715,2.134,3.961,3.961,0,0,1-1.638.572A2.7,2.7,0,0,1,248.182,384.6Z" transform="translate(-34.413 -62.73)"></path><path class="e" d="M248.759,374.728a55.922,55.922,0,0,1-6.53.191,55.876,55.876,0,0,1-6.538-.191,54.591,54.591,0,0,1,6.538-.2A54.628,54.628,0,0,1,248.759,374.728Z" transform="translate(-36.383 -62.425)"></path><path class="f" d="M184.606,482.573l-6.1-.442c1.593-21.832,3.924-34.893,7.132-39.93,6.157-9.678,12.276-11.43,19.05-12.581,6.309-1.074,12.672-.823,18.829-.572l1.524.061c12.71.5,39.335.053,39.625.053l.1,6.1c-.267,0-27.059.45-39.937-.053l-1.524-.061c-5.845-.229-11.88-.48-17.564.5-6.058,1.029-10.089,2.21-14.951,9.845C189.323,447.764,186.565,455.681,184.606,482.573Z" transform="translate(-22.775 -75.354)"></path><rect class="g" width="300.219" height="199.892" transform="translate(245.142 158.527)"></rect><path class="f" d="M593.414,370.286c0-1.288-.061-74.6-.16-191.418l.16.152-293.376.046h0l.2-.2V370.286l-.183-.183,293.376.183-293.376.183h-.213V178.677h.221l293.376.038h.16v.16C593.475,295.684,593.414,369.006,593.414,370.286Z" transform="translate(-51.65 -15.821)"></path><path class="d" d="M595.56,239.516,640.5,228.992l-1.776-4.785Z" transform="translate(-122.027 -26.657)"></path><path class="d" d="M331.51,285.1l31.243-7.315-1.234-3.322Z" transform="translate(-59.187 -38.618)"></path><path class="d" d="M471.88,382.436,516.816,371.9l-1.768-4.778Z" transform="translate(-92.593 -60.669)"></path><path class="d" d="M230.5,297.217a3.032,3.032,0,0,1-.282.236l-.838.6c-.762.526-1.806,1.257-3.132,2.164-2.659,1.8-6.363,4.252-10.493,6.9s-7.9,4.984-10.668,6.652c-1.372.831-2.492,1.524-3.269,1.951l-.9.5a1.554,1.554,0,0,1-.328.16,2.118,2.118,0,0,1,.282-.221l.861-.579,3.208-2.05,10.584-6.751,10.546-6.8,3.208-2.05.884-.549A1.7,1.7,0,0,1,230.5,297.217Z" transform="translate(-28.03 -44.032)"></path><path class="d" d="M213.409,301.737a3.031,3.031,0,0,1-.282.236l-.838.6c-.762.518-1.806,1.257-3.139,2.156-2.659,1.806-6.363,4.252-10.485,6.858s-7.9,4.991-10.668,6.66c-1.372.831-2.492,1.524-3.269,1.943l-.9.511a1.189,1.189,0,0,1-.328.152,1.582,1.582,0,0,1,.282-.221l.861-.572,3.2-2.057,10.592-6.744,10.546-6.8,3.208-2.057.876-.541A1.383,1.383,0,0,1,213.409,301.737Z" transform="translate(-23.963 -45.108)"></path><path class="d" d="M138.1,325.483a2.065,2.065,0,0,1-.236-.671c-.122-.434-.29-1.074-.48-1.867a27.17,27.17,0,0,1-.762-6.325,13.7,13.7,0,0,1,1.448-6.2,8.952,8.952,0,0,1,1.082-1.615,2.264,2.264,0,0,1,.5-.5,24.365,24.365,0,0,0-1.341,2.24,14.585,14.585,0,0,0-1.3,6.1,32.528,32.528,0,0,0,.678,6.264A20.994,20.994,0,0,1,138.1,325.483Z" transform="translate(-12.806 -46.671)"></path><path class="d" d="M97.833,395.045a3.941,3.941,0,0,1,0-.815c0-.549,0-1.341.046-2.286.061-1.958.206-4.664.442-7.62s.518-5.669.762-7.62c.122-.975.229-1.76.312-2.286a3.912,3.912,0,0,1,.175-.831,3.2,3.2,0,0,1,0,.853l-.2,2.286c-.168,2.042-.4,4.686-.648,7.62s-.4,5.57-.549,7.62c-.069.914-.13,1.684-.175,2.286A3.361,3.361,0,0,1,97.833,395.045Z" transform="translate(-3.57 -62.207)"></path><path class="d" d="M200.978,421.157c0,.084-1.471.29-3.749,1.029a29.614,29.614,0,0,0-3.894,1.577,29.754,29.754,0,0,0-10.92,9.335c-1.379,1.958-2.027,3.307-2.1,3.269a5.812,5.812,0,0,1,.427-.96,9.692,9.692,0,0,1,.579-1.082c.244-.411.511-.892.861-1.387a26.563,26.563,0,0,1,2.637-3.33,30.81,30.81,0,0,1,3.894-3.482,29.511,29.511,0,0,1,4.465-2.675,26.366,26.366,0,0,1,3.962-1.524c.572-.19,1.113-.3,1.577-.411a11.877,11.877,0,0,1,1.212-.229A5.407,5.407,0,0,1,200.978,421.157Z" transform="translate(-23.206 -73.528)"></path><path class="d" d="M305.35,321.17a1.813,1.813,0,0,1,0-.328v-.96c0-.869,0-2.111-.053-3.7-.046-3.231-.107-7.872-.19-13.594-.206-11.5-.488-27.341-.8-44.845s-.579-33.376-.686-44.852c-.053-5.738-.069-10.386-.061-13.594v-4.984a1.813,1.813,0,0,1,0,.328v.96c0,.861,0,2.1.053,3.7.046,3.231.107,7.864.19,13.587.206,11.5.488,27.341.8,44.852s.587,33.369.686,44.845c.053,5.746.076,10.386.069,13.594v4.664A2.77,2.77,0,0,1,305.35,321.17Z" transform="translate(-52.535 -19.543)"></path><circle class="f" cx="36.531" cy="36.531" r="36.531" transform="translate(435.298 361.882)"></circle><path class="f" d="M545.369,487.027v.1a36.527,36.527,0,0,0,73.047,1.052v-.091Z" transform="translate(-110.081 -89.204)"></path><path class="d" d="M559.639,479.465A25.642,25.642,0,1,0,585.654,454.2,25.642,25.642,0,0,0,559.639,479.465Z" transform="translate(-113.478 -81.39)"></path><path class="c" d="M585.655,454.2a25.641,25.641,0,0,0-26.015,25.263v.005l51.284.762a25.643,25.643,0,0,0-25.248-26.03Z" transform="translate(-113.478 -81.39)"></path><path class="f" d="M572.839,482.739a15.621,15.621,0,1,0,15.846-15.393h0A15.62,15.62,0,0,0,572.839,482.739Z" transform="translate(-116.619 -84.52)"></path><path class="j" d="M530.229,484.794s-5.563-51.817,48.129-51.817c49.531,0,48.434,44.563,47.961,51.459h-7.765s3.955-43.923-40.2-43.923-40.311,44.814-40.311,44.814S534.786,485.167,530.229,484.794Z" transform="translate(-106.44 -76.341)"></path><path class="d" d="M559.777,440.016a1.781,1.781,0,0,1-.419.152c-.282.1-.7.2-1.219.381a37.161,37.161,0,0,0-4.366,1.7,34.928,34.928,0,0,0-19.218,22.86,37.364,37.364,0,0,0-.922,4.572c-.084.549-.114.975-.16,1.265a2.711,2.711,0,0,1-.076.442,1.785,1.785,0,0,1,0-.442,7.163,7.163,0,0,1,.091-1.28,30.991,30.991,0,0,1,.808-4.648,34.13,34.13,0,0,1,19.37-23.066,32.036,32.036,0,0,1,4.435-1.6c.533-.152.96-.236,1.242-.3A1.93,1.93,0,0,1,559.777,440.016Z" transform="translate(-107.229 -78.016)"></path><g transform="translate(544.05 264.114)"><path class="j" d="M741.09,508.027l6.492,9.769L750.5,527a1.2,1.2,0,0,0,1.494.794q.047-.015.091-.032h0a1.174,1.174,0,0,0,.762-.823c.594-2.408,2.736-11.278,2.225-11.971s-6.172-10.752-6.172-10.752Z" transform="translate(-700.711 -357.409)"></path><g class="k" transform="translate(51.375 156.889)"><path class="e" d="M755.52,530.9l2.53-13.457.267.419a1.8,1.8,0,0,1,.267,1.219c-.16,1.135-.678,4.267-2.286,10.973a1.189,1.189,0,0,1-.762.846Z" transform="translate(-755.52 -517.447)"></path></g><g class="k" transform="translate(49.801 154.56)"><path class="e" d="M753.5,514.807a.762.762,0,0,0,.335.907.7.7,0,0,0,.907-.328.763.763,0,0,0-.366-.96.716.716,0,0,0-.9.45" transform="translate(-753.455 -514.391)"></path></g><path class="f" d="M754.067,527.393a3.477,3.477,0,0,0-1.356-.221,3.631,3.631,0,0,0-1.28.5.864.864,0,0,1,.267-.358,1.889,1.889,0,0,1,.991-.4,1.829,1.829,0,0,1,1.052.19C753.983,527.233,754.089,527.37,754.067,527.393Z" transform="translate(-703.172 -362.808)"></path><path class="f" d="M754.382,529.8a7.861,7.861,0,0,0-1.151.13,7.736,7.736,0,0,0-1.044.488c-.061-.038.282-.549.975-.762A1.325,1.325,0,0,1,754.382,529.8Z" transform="translate(-703.35 -363.444)"></path><path class="f" d="M754.125,524.137a11.618,11.618,0,0,0-1.791.084,11.069,11.069,0,0,0-1.684.587,2.62,2.62,0,0,1,1.638-.838A2.717,2.717,0,0,1,754.125,524.137Z" transform="translate(-702.986 -362.089)"></path><path class="f" d="M752.109,520.1c0,.076-.686.19-1.41.617s-1.189.953-1.25.907a2.351,2.351,0,0,1,1.12-1.128A2.282,2.282,0,0,1,752.109,520.1Z" transform="translate(-702.7 -361.187)"></path><path class="f" d="M749.709,516.262a6.007,6.007,0,0,0-1.524.61,6.119,6.119,0,0,0-1.1,1.158,1.163,1.163,0,0,1,.145-.48,2.634,2.634,0,0,1,1.943-1.326C749.518,516.193,749.709,516.231,749.709,516.262Z" transform="translate(-702.136 -360.264)"></path><path class="f" d="M747.39,515.519a1.178,1.178,0,0,1-.244-.366,2.955,2.955,0,0,1-.328-1.174,1.382,1.382,0,0,1,.145-.861.487.487,0,0,1,.518-.206.813.813,0,0,1,.442.351,1.7,1.7,0,0,1-.419,2.126,1.973,1.973,0,0,1-2.187.16.645.645,0,0,1-.328-.457.464.464,0,0,1,.282-.48,1.669,1.669,0,0,1,.869-.076,3.494,3.494,0,0,1,1.166.343,1.179,1.179,0,0,1,.366.244,5.6,5.6,0,0,0-1.524-.4,1.573,1.573,0,0,0-.762.084.25.25,0,0,0-.16.259.469.469,0,0,0,.236.29,1.769,1.769,0,0,0,1.9-.16,1.525,1.525,0,0,0,.381-1.8.562.562,0,0,0-.3-.259.266.266,0,0,0-.29.107,1.19,1.19,0,0,0-.137.762A4.852,4.852,0,0,0,747.39,515.519Z" transform="translate(-701.638 -359.476)"></path><path class="j" d="M729.853,516.421l-.762,9.807s9.731,3.33,9.769,5.159l-19.05-.046.533-15.324Z" transform="translate(-695.646 -360.217)"></path><g class="k" transform="translate(27.019 164.932)"><path class="e" d="M724.138,528.021a.734.734,0,0,0,.282,1.44.823.823,0,0,0,.6-.922.762.762,0,0,0-.953-.5" transform="translate(-723.557 -528.002)"></path></g><g class="k" transform="translate(24.186 169.6)"><path class="e" d="M719.84,535.651l.053-1.524,18.418.686a1.334,1.334,0,0,1,.7,1.044Z" transform="translate(-719.84 -534.127)"></path></g><path class="f" d="M731.87,529.277c0,.091-.472.114-.945.4s-.762.663-.808.625a1.126,1.126,0,0,1,.648-.907C731.336,529.063,731.893,529.193,731.87,529.277Z" transform="translate(-698.097 -363.35)"></path><path class="f" d="M734.588,530.482c0,.091-.389.229-.724.61s-.434.762-.533.762-.13-.533.3-1S734.588,530.391,734.588,530.482Z" transform="translate(-698.849 -363.649)"></path><path class="f" d="M736.339,533.183c-.084,0-.2-.457.061-.96s.7-.686.762-.6-.244.343-.45.762S736.431,533.183,736.339,533.183Z" transform="translate(-699.557 -363.926)"></path><path class="f" d="M731.7,526.23c-.046.084-.465-.061-.991-.046s-.945.16-.991.084.358-.4.983-.411S731.746,526.162,731.7,526.23Z" transform="translate(-698.004 -362.559)"></path><g class="h" transform="translate(24.56 157.857)"><path d="M729.824,519.006l-.13,1.745-9.365-.457.053-1.577Z" transform="translate(-720.33 -518.717)"></path></g><path class="f" d="M731.583,523.238a1.781,1.781,0,0,1-.953-.038,4.563,4.563,0,0,1-.991-.35,3.9,3.9,0,0,1-.533-.312,1.108,1.108,0,0,1-.282-.236.412.412,0,0,1,0-.5.526.526,0,0,1,.419-.2,1.408,1.408,0,0,1,.35.061,3.706,3.706,0,0,1,.587.229,3.443,3.443,0,0,1,.861.617c.427.427.564.762.526.762s-.244-.267-.678-.625a4.086,4.086,0,0,0-.838-.511,2.849,2.849,0,0,0-.541-.19c-.2-.061-.366-.069-.427,0s0,.046,0,.107a.75.75,0,0,0,.2.175,5.229,5.229,0,0,0,.5.3,5.451,5.451,0,0,0,.907.4A7.222,7.222,0,0,1,731.583,523.238Z" transform="translate(-697.772 -361.548)"></path><path class="f" d="M732.231,522.979a1.519,1.519,0,0,1-.213-.93,3.178,3.178,0,0,1,.434-1.608.762.762,0,0,1,.632-.465.473.473,0,0,1,.389.282,1.854,1.854,0,0,1,.084.358,2.182,2.182,0,0,1-.472,1.615c-.4.472-.762.571-.762.541a3.553,3.553,0,0,0,.61-.678,2.342,2.342,0,0,0,.335-.884,1.939,1.939,0,0,0,0-.556c0-.206-.084-.366-.168-.351a.633.633,0,0,0-.343.3,3.209,3.209,0,0,0-.259.511,3.415,3.415,0,0,0-.221.945C732.2,522.614,732.285,522.964,732.231,522.979Z" transform="translate(-698.55 -361.16)"></path><path class="f" d="M736.587,410.677s3.5,7.171,4.412,12.284c.259,1.448-10.013,74.952-10.013,74.952l-12.146-.457,5.692-68.4-2.027-13.716Z" transform="translate(-695.416 -335.148)"></path><path class="f" d="M703.405,416.507a109.046,109.046,0,0,0,.762,14.859c.9,7.209,2.957,15.416,3.627,20,1.478,10.15,4.389,12.07,4.389,12.07l23.3,29.818,9.144-8.222-20.574-32.866s-5.471-36.47-5.281-35.487S703.405,416.507,703.405,416.507Z" transform="translate(-691.739 -336.536)"></path><path class="j" d="M715.57,478.677a2.589,2.589,0,0,0,.221.312l.663.853L718.9,483c2.065,2.69,4.877,6.378,7.994,10.455s5.951,7.78,8.055,10.417c1.044,1.318,1.905,2.377,2.515,3.1l.7.823a2.271,2.271,0,0,0,.259.282,1.842,1.842,0,0,0-.221-.312l-.663-.861-2.446-3.147L727.1,493.292c-3.109-4.092-5.951-7.78-8.055-10.409-1.044-1.326-1.905-2.378-2.507-3.1l-.709-.831A1.839,1.839,0,0,0,715.57,478.677Z" transform="translate(-694.638 -351.331)"></path><path class="j" d="M710.389,423.837a2.547,2.547,0,0,1-.328,1.166,7.47,7.47,0,0,1-4.161,3.9,2.831,2.831,0,0,1-1.181.251,13.123,13.123,0,0,0,3.376-2.08A12.9,12.9,0,0,0,710.389,423.837Z" transform="translate(-692.055 -338.28)"></path><path class="j" d="M744.094,418.214a3.179,3.179,0,0,1-3.414-.5c.053-.1.762.229,1.692.358A15.831,15.831,0,0,1,744.094,418.214Z" transform="translate(-700.613 -336.818)"></path><path class="j" d="M727.95,431.677a3.9,3.9,0,0,1,.084.488c.046.351.1.815.175,1.4.137,1.257.335,3.048.587,5.227.472,4.481,1.12,10.668,1.867,17.785V456.5l3.376,5.4,11.727,18.875c1.471,2.4,2.667,4.351,3.513,5.746l.914,1.555a3.266,3.266,0,0,1,.3.564,4.447,4.447,0,0,1-.366-.526l-1.006-1.524L745.5,480.9c-3.048-4.839-7.216-11.476-11.826-18.807l-3.368-5.4h0v-.046c-.686-7.094-1.3-13.312-1.73-17.8L728.1,433.6c-.046-.587-.084-1.052-.107-1.41A2.12,2.12,0,0,1,727.95,431.677Z" transform="translate(-697.583 -340.146)"></path><path class="j" d="M715.636,347.51l7.27,2.332.549,15.416s3.932,18.113,4.786,20.4a46.7,46.7,0,0,1,2.217,8.443s-1.4,10.226-11.621,11.43-19.729-4.664-19.729-4.664-3.406-15.24-6.53-28.911c-2.972-13.008-.556-20.765-.556-20.765l11.194-4.023Z" transform="translate(-688.813 -320.034)"></path><rect class="d" width="6.729" height="1.73" transform="translate(25.544 36.865) rotate(-6.9)"></rect><path class="f" d="M729.378,332.53a1.524,1.524,0,0,0-1.623-1.265,1.273,1.273,0,0,0-.16-2.134,2.622,2.622,0,0,0-.541-3.475l-7.674,10.584a5.579,5.579,0,0,0,4.229,1.158,11.323,11.323,0,0,0,4.229-1.524,1.738,1.738,0,0,0,.838-.762c.145-.358-.061-.876-.457-.884A1.525,1.525,0,0,0,729.378,332.53Z" transform="translate(-695.544 -314.915)"></path><path class="f" d="M706.166,327.081a.724.724,0,0,0-.762,1.12,1.28,1.28,0,0,0-1.326,1.821,2.475,2.475,0,0,0-1.524.419,1.44,1.44,0,0,0-.61,1.425,1.029,1.029,0,0,0,1.219.762,1.417,1.417,0,0,0,.076,1.524.914.914,0,0,0,1.286.133.983.983,0,0,0,.1-.1,1.1,1.1,0,0,0,1.364,1.638,1.2,1.2,0,0,0,1.928,1.2Z" transform="translate(-691.39 -315.249)"></path><path class="l" d="M708.005,321.817l-.335,18.738A5.829,5.829,0,0,0,713,346.461h0a5.829,5.829,0,0,0,6.319-5.3c.011-.124.018-.249.021-.374,0-1.783.061-3.246.061-3.246s4.572-.3,5.022-4.8c.267-2.606.335-8.55.351-13.114a5.928,5.928,0,0,0-5.41-5.928l-2.72-.236a8.382,8.382,0,0,0-8.637,8.118C708.007,321.662,708.005,321.74,708.005,321.817Z" transform="translate(-692.757 -312.012)"></path><path class="m" d="M721.265,344.353a10.914,10.914,0,0,1-5.715-2.286s1.158,3.406,5.692,3.4Z" transform="translate(-694.633 -318.82)"></path><path class="f" d="M727.654,327.317c-.084.076-.541-.328-1.234-.389s-1.227.244-1.3.152.061-.19.3-.328a1.742,1.742,0,0,1,1.044-.229,1.7,1.7,0,0,1,.975.419C727.639,327.119,727.7,327.279,727.654,327.317Z" transform="translate(-696.907 -315.119)"></path><path class="f" d="M718.435,327.759a.648.648,0,0,1-.678.594.618.618,0,0,1-.618-.617v-.015a.647.647,0,0,1,.678-.594.617.617,0,0,1,.617.617Z" transform="translate(-695.011 -315.264)"></path><path class="f" d="M727.238,328.557a.648.648,0,0,1-.678.594.625.625,0,0,1-.61-.64h0a.639.639,0,0,1,.678-.594.61.61,0,0,1,.61.609C727.239,328.535,727.238,328.546,727.238,328.557Z" transform="translate(-697.108 -315.452)"></path><path class="f" d="M718.812,326.537c-.084.076-.541-.328-1.234-.389s-1.234.244-1.3.152.061-.19.3-.328a1.767,1.767,0,0,1,2.027.183C718.8,326.339,718.857,326.5,718.812,326.537Z" transform="translate(-694.801 -314.934)"></path><path class="f" d="M722.31,332.006a4.794,4.794,0,0,1,1.166-.107c.183,0,.35,0,.389-.137a.88.88,0,0,0-.069-.533c-.13-.45-.267-.907-.4-1.395a22.457,22.457,0,0,1-.861-3.627,23.8,23.8,0,0,1,1.151,3.543c.13.5.259.96.381,1.4a1.044,1.044,0,0,1,0,.7.461.461,0,0,1-.312.236,1.458,1.458,0,0,1-.3,0A4.611,4.611,0,0,1,722.31,332.006Z" transform="translate(-696.242 -315.046)"></path><path class="f" d="M719.532,334.207c.114,0,.053.762.648,1.349s1.4.579,1.4.678-.2.137-.533.114a1.892,1.892,0,0,1-1.173-.533,1.621,1.621,0,0,1-.5-1.12C719.38,334.375,719.487,334.2,719.532,334.207Z" transform="translate(-695.544 -316.949)"></path><path class="f" d="M719.11,323.642c-.091.183-.762,0-1.593.061s-1.524.19-1.593,0,.091-.251.373-.411a2.643,2.643,0,0,1,1.2-.3,2.706,2.706,0,0,1,1.219.251C719,323.4,719.141,323.558,719.11,323.642Z" transform="translate(-694.718 -314.279)"></path><path class="f" d="M727.82,324.689c-.137.152-.6-.053-1.173-.114s-1.067,0-1.166-.16.046-.236.274-.366a1.707,1.707,0,0,1,1.882.221C727.827,324.483,727.88,324.62,727.82,324.689Z" transform="translate(-696.988 -314.488)"></path><path class="l" d="M708.711,328.962c-.076-.038-3.048-1.189-3.193,1.905A2.33,2.33,0,0,0,708.5,333.4C708.513,333.313,708.711,328.962,708.711,328.962Z" transform="translate(-692.244 -315.644)"></path><path class="m" d="M707.856,332.49a1.152,1.152,0,0,1-.152.076.576.576,0,0,1-.4,0,1.333,1.333,0,0,1-.549-1.227,1.9,1.9,0,0,1,.191-.762.662.662,0,0,1,.434-.389.267.267,0,0,1,.3.168v.152a.178.178,0,0,0,.053-.175.333.333,0,0,0-.114-.2.4.4,0,0,0-.289-.1.758.758,0,0,0-.587.45,1.793,1.793,0,0,0-.236.853,1.4,1.4,0,0,0,.709,1.379.6.6,0,0,0,.5-.053C707.841,332.567,707.864,332.5,707.856,332.49Z" transform="translate(-692.479 -315.957)"></path><path class="f" d="M707.412,324.857a1.623,1.623,0,0,1,1.417.892c.16.457.16.96.32,1.417s.579.9,1.059.823a.946.946,0,0,0,.709-.64,2.6,2.6,0,0,0,.091-1c-.053-1.455-.229-2.911-.16-4.359a7.516,7.516,0,0,1,1.28-4.115,4.068,4.068,0,0,1,3.81-1.707c.953.16,1.783.762,2.72.96a3.81,3.81,0,0,0,3.223-.762c.114-.091.625-.366.625-.366a1.828,1.828,0,0,0-.244-.983c-1.73-1.913-5.09-2.705-7.62-2.286a9.019,9.019,0,0,0-6.317,4.2c-1.28,2.248-1.25,5.525-.869,7.94" transform="translate(-692.652 -311.813)"></path><path class="f" d="M727.546,319.83a2.935,2.935,0,0,1-2.583,1.372,8.157,8.157,0,0,1-2.972-.709,24.234,24.234,0,0,0-4.572-1.09c-.152,0-.335,0-.4-.16s.1-.373.267-.488c1.44-.93,4.74-1.288,6.454-1.212a5.038,5.038,0,0,1,4.237,2.484" transform="translate(-694.978 -312.982)"></path><path class="j" d="M724.653,318.507a5.517,5.517,0,0,0-3.612-2.042,14.912,14.912,0,0,0-13.9,6.965,19.261,19.261,0,0,1-.411-3.993,8.8,8.8,0,0,1,6.858-7.552C713.611,311.87,722.359,309.363,724.653,318.507Z" transform="translate(-692.534 -311.56)"></path><path class="j" d="M708.06,322.654a22.231,22.231,0,0,1,7.475-5.989A43.334,43.334,0,0,1,726.2,313.38a6.8,6.8,0,0,1,2.88-.053,2.584,2.584,0,0,1,1.958,1.92c.191,1.189-2.042,2.812-3.048,3.429a31.619,31.619,0,0,1-3.117,1.486s.221-2.156-3.208-2.911C716.983,316.222,708.06,322.654,708.06,322.654Z" transform="translate(-692.85 -311.95)"></path><path class="f" d="M729.492,313.453a9.123,9.123,0,0,0-.983-.152,13.015,13.015,0,0,0-2.72.183,41.339,41.339,0,0,0-8.679,2.461,24,24,0,0,0-7.62,4.724,11.022,11.022,0,0,0-1.737,2.088c-.335.549-.465.884-.5.869s0-.091.061-.251a4.756,4.756,0,0,1,.3-.693,9.447,9.447,0,0,1,1.676-2.21,22.425,22.425,0,0,1,7.666-4.892,36.964,36.964,0,0,1,8.786-2.377,11.53,11.53,0,0,1,2.774-.053,2.46,2.46,0,0,1,.762.183C729.423,313.4,729.5,313.438,729.492,313.453Z" transform="translate(-692.656 -311.924)"></path><path class="d" d="M721.809,314.668a11.212,11.212,0,0,1,3.521-.861,4.457,4.457,0,0,0-.876-.64,8.919,8.919,0,0,0-2.743.663Z" transform="translate(-696.099 -311.942)"></path><path class="f" d="M727.977,321.229a1.364,1.364,0,0,0-1.013-2.156,1.25,1.25,0,0,0,.7-1.625c-.012-.03-.025-.061-.04-.09a1.577,1.577,0,0,0-1.8-.7,2.2,2.2,0,0,0-1.41,1.433,1.486,1.486,0,0,0-2.53.107.8.8,0,0,0-.968-.5,2.778,2.778,0,0,0-1.036.617,1.839,1.839,0,0,1-1.09.5l-.267.114a1.692,1.692,0,0,0,2.149.64,7.947,7.947,0,0,1,3.641,1.532,1.2,1.2,0,0,0,.443-.214,1.525,1.525,0,0,0,2.362.655,2.568,2.568,0,0,1,.29,2.1,1.372,1.372,0,0,0,.572-2.4Z" transform="translate(-695.339 -312.757)"></path><path class="f" d="M712.366,321.677a19.86,19.86,0,0,0-3.048,1.684,6.616,6.616,0,0,0-2.248,2.629l1.524,1.455c.419.137.762.282,1.082,0a1.322,1.322,0,0,0,.442-1.174,1.128,1.128,0,0,0,1.273-1.547.877.877,0,0,0,.64-.61.9.9,0,0,0-.221-.853.884.884,0,0,0,.556-1.524Z" transform="translate(-692.615 -313.967)"></path><path class="j" d="M732.84,350.677s4.5,2.705,5.86,5.113,8.565,19.98,8.268,22.86-7.064,4.656-7.064,4.656l-7.064-9.144,3.231-1.928-3.231-6.226Z" transform="translate(-698.747 -320.869)"></path><path class="l" d="M735.162,390.409s-16.368,3.277-22.312-3.81l1.722-5.982s10.813,2.56,14.2,1.463Z" transform="translate(-693.99 -327.994)"></path><path class="f" d="M742.02,374.387c.061.122-1.92.953-3.985,2.53s-3.368,3.284-3.475,3.2a4.073,4.073,0,0,1,.762-1.158,15.056,15.056,0,0,1,2.431-2.355,15.522,15.522,0,0,1,2.9-1.745A4.287,4.287,0,0,1,742.02,374.387Z" transform="translate(-699.157 -326.512)"></path><path class="f" d="M736.582,376.835a16.85,16.85,0,0,1-1.471-2.919,21.454,21.454,0,0,1-1.341-2.979,9.912,9.912,0,0,1,1.7,2.812A11.741,11.741,0,0,1,736.582,376.835Z" transform="translate(-698.969 -325.691)"></path><path class="f" d="M733.229,367.392a12.435,12.435,0,0,0-.4-2.545,13.238,13.238,0,0,0-.663-2.5A25.694,25.694,0,0,0,733.229,367.392Z" transform="translate(-698.588 -323.646)"></path><path class="j" d="M693.358,353.383c.312.328,4.808,3.307,6.31,8.382s3.155,10.371,3.155,10.371l5.86.762-3.307,13.518a15.792,15.792,0,0,1-10.965-7.209,72.9,72.9,0,0,1-6.31-14.394S688.6,348.4,693.358,353.383Z" transform="translate(-688.1 -321.289)"></path><path class="l" d="M709.448,376.626s-2.484-5.563-2.819-5.639-5.128-1.76-5.128-1.76a1.728,1.728,0,0,0,0,1.212l-1.73.221s.259,1.059.846,1.2l-.625.556a3.521,3.521,0,0,0,1.173.991,1.282,1.282,0,0,0,1.135,0s-.213.4.762,1.021,2.675,1.524,2.675,1.524Z" transform="translate(-690.877 -325.284)"></path><path class="m" d="M705.739,375.984h0s-1.7-.93-2.675-1.524c-.846-.533-.823-.9-.762-1.006a1.349,1.349,0,0,1-1.112,0,3.647,3.647,0,0,1-1.181-1h0l.572-.6c-.572-.168-.823-1.166-.831-1.212h0l1.722-.221a1.794,1.794,0,0,1,0-1.2h0c.046,0,4.808,1.692,5.136,1.76s2.72,5.418,2.827,5.646h0Zm-4.237-5.555h0l-1.73.221c0,.122.3,1.052.838,1.189h0l-.632.556a3.377,3.377,0,0,0,1.158.975,1.29,1.29,0,0,0,1.128,0h0v.046s-.2.4.762,1.006,2.614,1.524,2.675,1.524l3.681.648c-.869-1.928-2.553-5.555-2.8-5.608s-4.862-1.669-5.121-1.76A1.659,1.659,0,0,0,701.5,370.429Z" transform="translate(-690.872 -325.281)"></path><path class="m" d="M702.24,370.837a21.242,21.242,0,0,0,3.14,1.227c.442.16.876.274,1.219.442a1.569,1.569,0,0,1,.716.686c.29.518.4.892.442.876a2.3,2.3,0,0,0-.274-.968,1.766,1.766,0,0,0-.762-.808,10.919,10.919,0,0,0-1.25-.472A23.349,23.349,0,0,0,702.24,370.837Z" transform="translate(-691.465 -325.667)"></path><path class="m" d="M700.77,372.677a2.422,2.422,0,0,0,.869.312c.549.152,1.326.274,2.149.5a5.493,5.493,0,0,1,1.943.914c.442.343.632.64.671.617a1.68,1.68,0,0,0-.549-.762,4.851,4.851,0,0,0-2-1.029c-.846-.229-1.631-.32-2.179-.419A4.1,4.1,0,0,0,700.77,372.677Z" transform="translate(-691.115 -326.105)"></path><path class="m" d="M705.747,375.72a2.016,2.016,0,0,0-1.151-.762,2.15,2.15,0,0,0-1.387-.13c0,.084.61.122,1.3.373S705.7,375.781,705.747,375.72Z" transform="translate(-691.696 -326.602)"></path><path class="l" d="M713.665,378.85,728.44,371.4l2.705,5.509s-13.617,13.5-20,13.32" transform="translate(-693.586 -325.8)"></path><path class="f" d="M702.67,360.677a4.6,4.6,0,0,0,.2,1.1c.16.663.389,1.577.663,2.583s.533,1.92.762,2.576a4.489,4.489,0,0,0,.381,1.036,5.185,5.185,0,0,0-.2-1.09c-.16-.663-.389-1.577-.663-2.591s-.533-1.913-.762-2.56A4.859,4.859,0,0,0,702.67,360.677Z" transform="translate(-691.567 -323.249)"></path><path class="f" d="M703.507,383.218c.046,0,.175-.678.518-1.737a5.628,5.628,0,0,1,.884-1.707,3.167,3.167,0,0,1,1.9-1.181,7.393,7.393,0,0,1,2.339.267l1.936.389a3.049,3.049,0,0,1,.709.183.694.694,0,0,1,.358.366.557.557,0,0,1,0,.442s.206-.122.122-.472a.763.763,0,0,0-.389-.465,2.978,2.978,0,0,0-.762-.236l-1.928-.442a7.166,7.166,0,0,0-2.431-.29,3.349,3.349,0,0,0-2.065,1.318,5.518,5.518,0,0,0-.869,1.8,11.633,11.633,0,0,0-.3,1.311A1.509,1.509,0,0,0,703.507,383.218Z" transform="translate(-691.765 -327.449)"></path><path class="f" d="M700.84,379.955a6.2,6.2,0,0,1,1.593-1.844,9.661,9.661,0,0,1,2.286-.991,1.615,1.615,0,0,0-.762.061,4.45,4.45,0,0,0-1.654.716,3.949,3.949,0,0,0-1.212,1.349A1.462,1.462,0,0,0,700.84,379.955Z" transform="translate(-691.132 -327.157)"></path><path class="f" d="M688.1,368.677a.885.885,0,0,0,.076.29c.076.19.16.48.274.808.251.762.594,1.737,1.021,2.964s.945,2.751,1.676,4.351a51.7,51.7,0,0,0,2.637,5.067,17.215,17.215,0,0,0,3.681,4.374,15.868,15.868,0,0,0,3.962,2.477,11.73,11.73,0,0,0,3.048.846c.283.042.568.07.853.084h.3s-.4-.046-1.135-.175a12.679,12.679,0,0,1-2.972-.922,16.86,16.86,0,0,1-7.491-6.8c-1.036-1.73-1.875-3.475-2.644-5.037a41.663,41.663,0,0,1-1.73-4.313c-.465-1.265-.823-2.248-1.1-2.941l-.32-.762A1.562,1.562,0,0,0,688.1,368.677Z" transform="translate(-688.1 -325.153)"></path><path class="f" d="M693.66,354.1c0,.076,1.128.488,2.416,1.257s2.21,1.57,2.286,1.524a9.216,9.216,0,0,0-4.679-2.766Z" transform="translate(-689.423 -321.683)"></path><path class="f" d="M708.37,401.217a5.037,5.037,0,0,0,.762.381c.251.122.556.259.914.4s.762.32,1.234.465a29.534,29.534,0,0,0,3.292.96,34.715,34.715,0,0,0,4.153.655,32.97,32.97,0,0,0,4.206.076,29.657,29.657,0,0,0,3.414-.358c.48-.069.914-.168,1.288-.244s.709-.16.968-.229a5.968,5.968,0,0,0,.815-.244,6,6,0,0,0-.838.145c-.259.053-.587.122-.968.183s-.815.152-1.3.206a32.141,32.141,0,0,1-3.4.3,35.725,35.725,0,0,1-4.168-.107,36.164,36.164,0,0,1-4.122-.625,32.635,32.635,0,0,1-3.284-.9c-.473-.137-.876-.3-1.242-.427s-.671-.251-.922-.351A6.253,6.253,0,0,0,708.37,401.217Z" transform="translate(-692.924 -332.897)"></path><path class="f" d="M724.12,410.671a12.78,12.78,0,0,0,2.995-.762,12.644,12.644,0,0,0,2.835-1.2c0-.069-1.311.419-2.919.953A27.854,27.854,0,0,0,724.12,410.671Z" transform="translate(-696.672 -334.677)"></path><g class="h" transform="translate(10.935 62.497)"><path d="M730.241,393.9a28.576,28.576,0,0,1-10.242.152,11.053,11.053,0,0,0-3.81-.457,12.668,12.668,0,0,0-2.934,1.113,11.471,11.471,0,0,1-10.805-1.12,7.446,7.446,0,0,0,5.593,3.924,16.529,16.529,0,0,0,7.018-.625,18.234,18.234,0,0,1,4.161-.838c1.8-.046,3.559.541,5.334.571a9.619,9.619,0,0,0,5.829-1.76Z" transform="translate(-702.45 -393.575)"></path></g><g class="h" transform="translate(22.35 74.553)"><path d="M727.953,409.4a9.458,9.458,0,0,1-7.193,4.572,4.669,4.669,0,0,1-1.9-.152,2.339,2.339,0,0,1-1.433-1.2,6.792,6.792,0,0,1,2.233-.922l8.207-2.248" transform="translate(-717.43 -409.397)"></path></g><path class="m" d="M730.919,378.917a5.256,5.256,0,0,1-.663.678c-.442.427-1.082,1.036-1.836,1.814s-1.654,1.737-2.751,2.69-2.347,1.936-3.665,2.957a37.137,37.137,0,0,1-3.894,2.667,18.677,18.677,0,0,1-3.505,1.623,14.818,14.818,0,0,1-2.53.617,4.048,4.048,0,0,1-.945.053,29.347,29.347,0,0,0,3.383-.93,20.552,20.552,0,0,0,3.414-1.676,41.083,41.083,0,0,0,3.81-2.667c1.318-1.021,2.576-1.989,3.665-2.919s2-1.852,2.8-2.614,1.463-1.341,1.935-1.73A3.9,3.9,0,0,1,730.919,378.917Z" transform="translate(-693.581 -327.59)"></path></g><g transform="translate(308.212 129.199)"><path class="e" d="M508.55,146.673l-20.194-.1a5.048,5.048,0,0,0-4.927,5.048v3.665a5.049,5.049,0,0,1-4.927,5.048L439.2,160.3a5.048,5.048,0,0,1-4.887-5.149V151.5a5.05,5.05,0,0,0-4.877-5.15h-7.068l-17.67-.181a15.872,15.872,0,0,0-15.943,15.8v.011l-1.081,254.631a15.883,15.883,0,0,0,15.8,15.953l103.855.474a15.871,15.871,0,0,0,15.943-15.8v-.01L524.351,162.6A15.872,15.872,0,0,0,508.55,146.673Z" transform="translate(-380.765 -137.284)"></path><circle class="j" cx="0.697" cy="0.697" r="0.697" transform="translate(130.481 43.537)"></circle><path class="j" d="M551.233,195.612a.7.7,0,1,1-.7-.7A.7.7,0,0,1,551.233,195.612Z" transform="translate(-419.358 -148.885)"></path><circle class="j" cx="0.697" cy="0.697" r="0.697" transform="translate(130.481 48.525)"></circle><rect class="a" width="135.721" height="117.82" transform="translate(7.866 60.338)"></rect><path class="f" d="M506.544,134.994l-104.068-.485a22.677,22.677,0,0,0-22.768,22.576l-1.1,260.881a22.658,22.658,0,0,0,22.556,22.758h0l104.068.485A22.658,22.658,0,0,0,528,418.664v-.031l1.1-260.88a22.657,22.657,0,0,0-22.556-22.758Zm14.57,279.58a15.871,15.871,0,0,1-15.932,15.811h-.011L401.316,429.9a15.873,15.873,0,0,1-15.8-15.912l1.081-254.631a15.872,15.872,0,0,1,15.932-15.811h.011l17.659.081h7.068a5.047,5.047,0,0,1,4.877,5.149v3.706a5.049,5.049,0,0,0,4.877,5.15l39.327.181a5.048,5.048,0,0,0,4.917-5.048V149.1a5.049,5.049,0,0,1,4.894-5.2l.043,0,20.194.1a15.862,15.862,0,0,1,15.8,15.922v.011Z" transform="translate(-378.608 -134.509)"></path><g transform="translate(43.61 260.145)"><path class="g" d="M494.823,494.205l-57.907-.25c-.6,0-1.086-.657-1.078-1.453l.063-15.149c0-.781.492-1.453,1.094-1.453l57.907.265a1.314,1.314,0,0,1,1.078,1.462l-.055,15.133C495.925,493.564,495.425,494.213,494.823,494.205Z" transform="translate(-435.838 -475.9)"></path><text class="n" transform="translate(19.007 9.888)"><tspan x="0" y="0">TRACK</tspan></text></g><text class="o" transform="translate(56.595 48.602)"><tspan x="0" y="0">LOGISTICS</tspan></text><text class="p" transform="translate(37.173 187.723)"><tspan x="0" y="0">Lot Size</tspan></text><text class="p" transform="translate(58.807 231.154)"><tspan x="0" y="0">TRACKING</tspan></text><text class="p" transform="translate(91.498 187.722)"><tspan x="0" y="0">Transit</tspan></text><g transform="translate(37.203 86.754)"><rect class="g" width="42.044" height="32.431" transform="translate(0 32.557)"></rect><rect class="q" width="42.044" height="32.431" transform="translate(0 32.557)"></rect><path class="f" d="M468.761,323.257c-.037,0-.069-7.228-.069-16.143s.032-16.143.069-16.143.069,7.228.069,16.143S468.8,323.257,468.761,323.257Z" transform="translate(-437.249 -258.498)"></path><rect class="a" width="3.225" height="3.644" transform="translate(35.256 57.607)"></rect><rect class="f" width="4.774" height="6.921" transform="translate(12.826 32.641)"></rect><rect class="f" width="4.774" height="6.921" transform="translate(12.826 57.97)"></rect><path class="f" d="M469.113,291.074h-1.635l-4.468.02H433.538l-4.464-.024h0l4.464-.02h29.472l4.468.02H469Z" transform="translate(-427.432 -258.517)"></path><rect class="g" width="42.044" height="32.431" transform="translate(35.002 32.516)"></rect><path class="f" d="M514.694,323.2c-.037,0-.069-7.228-.069-16.143s.033-16.143.069-16.143.069,7.224.069,16.143S514.718,323.2,514.694,323.2Z" transform="translate(-448.181 -258.486)"></path><rect class="a" width="3.225" height="3.644" transform="translate(70.258 57.566)"></rect><rect class="r" width="4.774" height="6.921" transform="translate(47.828 32.601)"></rect><rect class="r" width="4.774" height="6.921" transform="translate(47.828 57.93)"></rect><path class="f" d="M515.042,291.015h-1.635l-4.464.02H479.47l-4.468-.02h0l4.468-.024,14.739-.021,14.734.021,4.464.024h1.635Z" transform="translate(-438.362 -258.498)"></path><rect class="g" width="42.044" height="32.431" transform="translate(17.588 0.085)"></rect><path class="f" d="M491.842,280.644c-.04,0-.069-7.228-.069-16.143s.028-16.143.069-16.143.069,7.225.069,16.143S491.877,280.644,491.842,280.644Z" transform="translate(-442.742 -248.357)"></path><rect class="a" width="3.225" height="3.644" transform="translate(52.844 25.135)"></rect><rect class="f" width="4.774" height="6.921" transform="translate(30.413 0.17)"></rect><rect class="f" width="4.774" height="6.921" transform="translate(30.413 25.498)"></rect><path class="f" d="M492.2,248.44a.3.3,0,0,1-.1,0H486.1l-14.735.021-14.738-.021h-6a.305.305,0,0,1-.105,0h1.635l4.468-.024H486.1l4.463.024H492.2Z" transform="translate(-432.926 -248.371)"></path></g><g transform="translate(29.424 193.153)"><text class="s" transform="translate(10.523 12.012)"><tspan x="0" y="0">490</tspan></text><rect class="t" width="36.812" height="19.951" rx="7.817"></rect></g><g transform="translate(83.61 193.153)"><text class="s" transform="translate(11.997 12.012)"><tspan x="0" y="0">5M</tspan></text><rect class="t" width="36.812" height="19.951" rx="7.817"></rect></g><g transform="translate(19.973 240.827)"><line class="u" x2="108.42" transform="translate(0 3.15)"></line><g transform="translate(15.051)"><circle class="v" cx="3.15" cy="3.15" r="3.15"></circle><circle class="g" cx="1.488" cy="1.488" r="1.488" transform="translate(1.663 1.663)"></circle></g><g transform="translate(51.427)"><circle class="v" cx="3.15" cy="3.15" r="3.15"></circle><circle class="g" cx="1.488" cy="1.488" r="1.488" transform="translate(1.663 1.663)"></circle></g><g transform="translate(87.944)"><circle class="v" cx="3.15" cy="3.15" r="3.15"></circle><circle class="g" cx="1.488" cy="1.488" r="1.488" transform="translate(1.663 1.663)"></circle></g></g></g></g></svg>